<svg id="Layer_1" data-name="Layer 1" xmlns="http://www.w3.org/2000/svg" viewBox="0 0 1303.12 975.88"><defs><style>.cls-1{fill:#d0b6ff;}.cls-1,.cls-2,.cls-21,.cls-22,.cls-23,.cls-24,.cls-25,.cls-26,.cls-3,.cls-4,.cls-5{stroke:#000;stroke-miterlimit:10;stroke-width:0.75px;}.cls-2,.cls-3{fill:#ccc;}.cls-16,.cls-17,.cls-18,.cls-24,.cls-3{isolation:isolate;}.cls-3{opacity:0.5;}.cls-4{fill:#e6e6e6;}.cls-10,.cls-5{fill:#fff;}.cls-23,.cls-6{fill:#ffc727;}.cls-25,.cls-7{fill:#263238;}.cls-21,.cls-8{fill:#ebebeb;}.cls-9{fill:#37474f;}.cls-11{fill:#f7a9a0;}.cls-12{fill:#c7c7c7;}.cls-13,.cls-26{fill:#455a64;}.cls-14{fill:#a6a6a6;}.cls-15{fill:#ff98b9;}.cls-16{fill:#050400;}.cls-16,.cls-17,.cls-24{opacity:0.1;}.cls-18,.cls-22,.cls-27{fill:#dbdbdb;}.cls-18{opacity:0.6;}.cls-19{fill:#ffc4c0;}.cls-20{opacity:0.2;}</style></defs><g id="Layer_1-2" data-name="Layer 1"><g id="freepik--background-complete--inject-46"><path class="cls-1" d="M1516.43,606.79H1307.06v-258h209.37Zm-203.11-6.18h196.84V355h-196.9Z" transform="translate(-245.09 -76.95)"/><rect class="cls-1" x="1163.52" y="279.67" width="6.21" height="247.07"/><rect class="cls-1" x="1056.35" y="284.38" width="220.59" height="8.61"/><rect class="cls-1" x="1056.35" y="294.07" width="220.59" height="8.61"/><rect class="cls-1" x="1056.35" y="303.76" width="220.59" height="8.61"/><rect class="cls-1" x="1056.35" y="313.44" width="220.59" height="8.61"/><rect class="cls-1" x="1056.35" y="323.14" width="220.59" height="8.61"/><rect class="cls-1" x="1056.35" y="332.82" width="220.59" height="8.61"/><rect class="cls-1" x="1056.35" y="342.52" width="220.59" height="8.61"/><rect class="cls-1" x="1056.35" y="352.2" width="220.59" height="8.61"/><rect class="cls-1" x="1056.35" y="361.9" width="220.59" height="8.61"/><rect class="cls-1" x="1256.92" y="282.62" width="1.55" height="134.47"/><polygon class="cls-1" points="1260.45 424.29 1254.94 424.29 1256.32 416.4 1259.08 416.4 1260.45 424.29"/><rect class="cls-1" x="1262.51" y="282.62" width="1.55" height="176.76"/><polygon class="cls-1" points="1266.05 465.18 1260.52 465.18 1261.91 457.3 1264.67 457.3 1266.05 465.18"/><rect class="cls-1" x="1046.7" y="270.66" width="239.85" height="18.03"/><ellipse class="cls-2" cx="292.49" cy="181.08" rx="59.53" ry="59.28"/><ellipse class="cls-2" cx="295.21" cy="182.41" rx="56.8" ry="56.56"/><ellipse class="cls-2" cx="295.21" cy="182.41" rx="53.21" ry="53"/><path class="cls-3" d="M592.32,248.11c-24.24,14.63-64.07,38.6-86.33,51.75a52.91,52.91,0,0,1-14.54-19.46l73.62-67.93A53.19,53.19,0,0,1,592.32,248.11Z" transform="translate(-245.09 -76.95)"/><path class="cls-3" d="M593.48,261.21A51.85,51.85,0,0,1,590,278.4l-66.36,31.26a53.34,53.34,0,0,1-8.36-3.6C535.26,294.56,571.88,273.58,593.48,261.21Z" transform="translate(-245.09 -76.95)"/><rect class="cls-2" x="294.7" y="133.25" width="1.03" height="8.04"/><polygon class="cls-2" points="270.09 140.09 270.98 139.57 275.01 146.53 274.12 147.04 270.09 140.09"/><polygon class="cls-2" points="252.62 157.75 253.15 156.86 260.16 160.88 259.65 161.78 252.62 157.75"/><rect class="cls-2" x="245.86" y="181.89" width="8.07" height="1.03"/><polygon class="cls-2" points="252.22 206.54 259.21 202.52 259.72 203.41 252.74 207.43 252.22 206.54"/><polygon class="cls-2" points="270.8 224.26 274.84 217.26 275.74 217.78 271.7 224.76 270.8 224.26"/><rect class="cls-2" x="294.7" y="223.53" width="1.03" height="8.04"/><polygon class="cls-2" points="315.42 218.27 316.32 217.76 320.35 224.72 319.46 225.24 315.42 218.27"/><polygon class="cls-2" points="330.7 203.39 331.23 202.5 338.21 206.52 337.7 207.41 330.7 203.39"/><rect class="cls-2" x="336.49" y="181.89" width="8.07" height="1.03"/><polygon class="cls-2" points="330.7 161.41 337.7 157.4 338.21 158.29 331.23 162.3 330.7 161.41"/><polygon class="cls-2" points="315.4 146.53 319.44 139.56 320.32 140.08 316.3 147.03 315.4 146.53"/><polygon class="cls-2" points="295.99 136.89 297.74 185.99 292.7 185.92 294.62 136.87 295.99 136.89"/><polygon class="cls-2" points="326.68 165.29 293.52 186.36 291.11 181.94 326.03 164.08 326.68 165.29"/><path class="cls-2" d="M542,259.36a1.65,1.65,0,0,1-1.71,1.56,1.61,1.61,0,1,1,.05-3.22,1.65,1.65,0,0,1,1.66,1.65Z" transform="translate(-245.09 -76.95)"/><rect class="cls-1" x="702.64" y="204.83" width="199.83" height="11.81"/><rect class="cls-1" x="875.43" y="216.65" width="11.87" height="39.09"/><rect class="cls-1" x="875.43" y="216.65" width="11.87" height="12.08"/><rect class="cls-1" x="717.81" y="216.65" width="11.87" height="39.09"/><rect class="cls-1" x="717.81" y="216.65" width="11.87" height="12.08"/><rect class="cls-1" x="832.91" y="129.52" width="19.04" height="75.31"/><rect class="cls-1" x="832.91" y="125.5" width="19.04" height="8.27"/><rect class="cls-1" x="832.91" y="144.39" width="19.04" height="3.06"/><rect class="cls-1" x="830.57" y="186.7" width="21.41" height="8.28"/><rect class="cls-1" x="819.61" y="116.98" width="13.31" height="87.86"/><rect class="cls-1" x="822.34" y="125.25" width="7.99" height="33.78"/><polygon class="cls-1" points="797.05 143.13 734.32 204.9 724.96 195.47 787.7 133.71 797.05 143.13"/><polygon class="cls-1" points="771.25 164.73 747.13 188.48 741.52 182.82 765.64 159.08 771.25 164.73"/><rect class="cls-1" x="797.02" y="138.12" width="22.61" height="66.74"/><rect class="cls-1" x="797.02" y="191.57" width="22.61" height="6.22"/><rect class="cls-1" x="797.02" y="185.07" width="22.61" height="2.42"/><rect class="cls-1" x="851.98" y="142.15" width="15.61" height="62.7"/><rect class="cls-1" x="851.98" y="192.36" width="15.61" height="5.84"/><rect class="cls-1" x="851.98" y="155.07" width="15.61" height="5.84"/><rect class="cls-1" x="851.96" y="164.91" width="15.61" height="2.26"/><path class="cls-1" d="M1522.75,660.32l-21.82.47-11.08.18c-3.71.08-7.44,0-11.15.1H1478v-.75l-.09-18.59v-.83h.83l22,.1c7.32,0,14.63.18,22,.28h.46v.45c0,3.15-.12,6.28-.21,9.38Zm0,0-.24-9.36c-.08-3-.18-6.13-.21-9.18l.45.47c-7.31.08-14.63.26-22,.26l-22,.1.83-.83v18.54l-.75-.72c3.63,0,7.25,0,10.9.08l10.83.28Z" transform="translate(-245.09 -76.95)"/><path class="cls-1" d="M1498.18,683.7l-21.83.46-11.1.18c-3.69,0-7.41,0-11.12.11h-.73V664.34h.83l22,.11c7.32,0,14.7.18,22,.26h.46v.46c0,3.14-.13,6.27-.22,9.37Zm0,0-.23-9.36c-.08-3-.19-6.13-.22-9.17l.45.45c-7.32.09-14.63.27-22,.27l-22,.09.83-.81V683.7l-.74-.73c3.62,0,7.25,0,10.89.08l10.93.2Z" transform="translate(-245.09 -76.95)"/><path class="cls-1" d="M1547.32,683.7l-21.83.46-11.08.18c-3.71,0-7.43,0-11.14.11h-.73v-.75l-.11-18.53v-.83h.84l22,.11c7.32,0,14.7.18,22,.26h.47v.46c0,3.14-.15,6.27-.22,9.37Zm0,0-.23-9.36c0-3-.18-6.13-.22-9.17l.45.45c-7.32.09-14.64.27-22,.27l-22,.09.84-.81V683.7l-.76-.73c3.65,0,7.26,0,10.89.08l11,.2Z" transform="translate(-245.09 -76.95)"/><path class="cls-1" d="M894.63,423.16l-21.83.46-11.08.18H849.84v-.7l-.09-18.54v-.83h.83l22,.11c7.32,0,14.7.18,22,.26h.46v.44c0,3.15-.14,6.27-.23,9.37Zm0,0-.24-9.38c0-3.08-.18-6.13-.21-9.16l.45.45c-7.31,0-14.63.26-22,.26l-22,.12.83-.83-.08,18.54-.75-.74c3.62,0,7.25,0,10.9.09l10.94.18Z" transform="translate(-245.09 -76.95)"/><path class="cls-1" d="M870,446.53,848.2,447l-11.1.18c-3.69,0-7.42,0-11.13.09h-.73v-.75L825.11,428v-.87h.83l22,.1c7.32,0,14.7.18,22,.27h.47V428c0,3.15-.14,6.27-.22,9.36Zm0,0-.24-9.37c-.09-3.08-.18-6.13-.21-9.16l.45.44c-7.32.08-14.7.27-22,.27l-22,.12.84-.83v18.53l-.76-.74c3.63,0,7.26,0,10.91.1l10.92.19Z" transform="translate(-245.09 -76.95)"/><path class="cls-1" d="M919.2,446.53l-21.83.47-11.08.18c-3.71,0-7.42,0-11.14.09h-.73v-.75L874.31,428v-.87h.84l22,.1c7.32,0,14.64.18,22,.27h.47V428c0,3.15-.16,6.27-.22,9.36Zm0,0-.23-9.37c0-3.08-.19-6.13-.22-9.16l.45.44c-7.32.08-14.64.27-22,.27l-22,.12L876,428l-.09,18.53-.74-.74c3.64,0,7.25,0,10.89.1l11,.19Z" transform="translate(-245.09 -76.95)"/><path class="cls-1" d="M535.46,502.56l-21.83.47-11.1.18H490.74v-20h.83l22,.1c7.32,0,14.69.19,22,.29h.46V484c0,3.14-.13,6.28-.22,9.36Zm0,0-.25-9.35c0-3.1-.17-6.15-.2-9.18l.45.45c-7.32,0-14.7.26-22,.28l-22,.1.83-.83-.08,18.53-.75-.74c3.62,0,7.25,0,10.9.11l10.92.18Z" transform="translate(-245.09 -76.95)"/><path class="cls-1" d="M1265.72,423.15l-21.83.46-11.08.18c-3.71.08-7.44,0-11.14.08h-.73v-.77l-.11-18.55v-.83h.84l22,.11c7.32,0,14.64.2,22,.28h.46v.44c0,3.16-.13,6.28-.21,9.37Zm0,0-.23-9.37c-.09-3.1-.19-6.14-.22-9.18l.45.45c-7.32.08-14.64.26-22,.28l-22,.1.83-.83-.09,18.55-.74-.75c3.62,0,7.24,0,10.89.1l11,.18Z" transform="translate(-245.09 -76.95)"/><path class="cls-1" d="M1520.2,243.13l-21.82.47-11.09.18c-3.7,0-7.42,0-11.13.1h-.74V223.72h.83l22,.1c7.32,0,14.64.19,22,.28h.46v.45c0,3.14-.13,6.28-.21,9.36Zm0,0-.23-9.35c-.08-3.1-.19-6.15-.22-9.18l.45.45c-7.31,0-14.63.26-22,.28l-22,.1.82-.83-.08,18.53-.74-.74c3.62,0,7.25,0,10.89.1l10.93.19Z" transform="translate(-245.09 -76.95)"/><path class="cls-1" d="M1544.78,266.47l-21.83.45-11.08.18c-3.71.1-7.44,0-11.14.11H1500v-.74l-.11-18.54v-.83h.84l22,.1c7.32,0,14.64.19,22,.28h.46v.45c0,3.14-.15,6.27-.23,9.36Zm0,0-.23-9.36c0-3.11-.19-6.15-.22-9.18l.45.44c-7.32.08-14.64.26-22,.28l-22,.1.83-.82v18.54l-.75-.75c3.62,0,7.25,0,10.89.1l11,.18Z" transform="translate(-245.09 -76.95)"/><path class="cls-2" d="M486.31,243.13l-21.84.47-11.08.18c-3.7,0-7.42,0-11.13.1h-.75V223.76h.85l22,.12c7.32,0,14.63.19,22,.27h.45v.44c0,3.16-.14,6.28-.22,9.38Zm0,0-.25-9.36c0-3.08-.18-6.15-.21-9.18l.46.46c-7.32.09-14.69.26-22,.27l-22,.1.84-.83L443,243.13l-.73-.64h10.88l10.94.18Z" transform="translate(-245.09 -76.95)"/><rect class="cls-1" x="451.54" y="121.8" width="165.84" height="184.26"/><rect class="cls-1" x="462.48" y="132.69" width="143.98" height="162.59"/><rect class="cls-4" x="475.48" y="161.43" width="50.76" height="59.89"/><path class="cls-1" d="M747.79,242.46a1.83,1.83,0,0,1-3.66,0h0a1.83,1.83,0,0,1,3.66,0Z" transform="translate(-245.09 -76.95)"/><path class="cls-1" d="M730.29,250.37c5.14-.39,10.26-.41,15.39-.47s10.26.08,15.4.47c-5.14.41-10.26.42-15.4.49S735.38,250.74,730.29,250.37Z" transform="translate(-245.09 -76.95)"/><path class="cls-1" d="M730.29,255.11a74.19,74.19,0,0,1,16.72,0A75.38,75.38,0,0,1,730.29,255.11Z" transform="translate(-245.09 -76.95)"/><path class="cls-1" d="M730.29,259.84c3.55-.37,7.14-.45,10.69-.47a100.37,100.37,0,0,1,10.69.47A121.16,121.16,0,0,1,730.29,259.84Z" transform="translate(-245.09 -76.95)"/><path class="cls-1" d="M730.29,264.58c4.45-.37,8.91-.45,13.3-.49s8.94.12,13.39.49c-4.45.37-8.92.46-13.39.47S734.7,265,730.29,264.58Z" transform="translate(-245.09 -76.95)"/><path class="cls-1" d="M730.29,269.31c3.88-.38,7.74-.46,11.64-.48a113.23,113.23,0,0,1,11.65.48c-3.86.36-7.74.46-11.65.48A116,116,0,0,1,730.29,269.31Z" transform="translate(-245.09 -76.95)"/><path class="cls-1" d="M730.29,274.05c5-.39,10-.43,14.87-.47a141.08,141.08,0,0,1,15,.47c-5,.38-10,.41-15,.47S735.27,274.47,730.29,274.05Z" transform="translate(-245.09 -76.95)"/><path class="cls-1" d="M730.29,278.77a99.43,99.43,0,0,1,19.21,0A96.34,96.34,0,0,1,730.29,278.77Z" transform="translate(-245.09 -76.95)"/><path class="cls-1" d="M730.29,283.51c5.14-.4,10.26-.41,15.39-.48s10.26.08,15.4.48c-5.14.4-10.26.42-15.4.48S735.38,283.88,730.29,283.51Z" transform="translate(-245.09 -76.95)"/><path class="cls-1" d="M730.29,288.24c5.14-.39,10.26-.42,15.39-.47s10.26.08,15.4.47c-5.14.41-10.26.42-15.4.47S735.38,288.63,730.29,288.24Z" transform="translate(-245.09 -76.95)"/><rect class="cls-5" x="533.97" y="198.78" width="60.05" height="70.87"/><path class="cls-1" d="M810.89,285.28a1.83,1.83,0,1,1-1.83-1.82h0a1.8,1.8,0,0,1,1.81,1.79h0Z" transform="translate(-245.09 -76.95)"/><path class="cls-1" d="M787.46,293.4a46.37,46.37,0,0,1,13.31,0A46.37,46.37,0,0,1,787.46,293.4Z" transform="translate(-245.09 -76.95)"/><path class="cls-1" d="M787.46,298.79a76.54,76.54,0,0,1,17.25,0A80.22,80.22,0,0,1,787.46,298.79Z" transform="translate(-245.09 -76.95)"/><path class="cls-1" d="M787.46,304.09a68.88,68.88,0,0,1,16,0A67.79,67.79,0,0,1,787.46,304.09Z" transform="translate(-245.09 -76.95)"/><path class="cls-1" d="M787.46,309.44a66.74,66.74,0,0,1,16,0A68.88,68.88,0,0,1,787.46,309.44Z" transform="translate(-245.09 -76.95)"/><path class="cls-1" d="M787.46,314.77a52.79,52.79,0,0,1,13.87,0A50.34,50.34,0,0,1,787.46,314.77Z" transform="translate(-245.09 -76.95)"/><path class="cls-1" d="M787.46,320.12a83.77,83.77,0,0,1,17.77,0,75.27,75.27,0,0,1-8.88.49A80,80,0,0,1,787.46,320.12Z" transform="translate(-245.09 -76.95)"/><path class="cls-1" d="M787.46,325.46a58.79,58.79,0,0,1,14.64,0A56.05,56.05,0,0,1,787.46,325.46Z" transform="translate(-245.09 -76.95)"/><path class="cls-1" d="M787.46,330.81a80.53,80.53,0,0,1,9.18-.48,78.7,78.7,0,0,1,9.21.48,83.31,83.31,0,0,1-9.21.48A88.06,88.06,0,0,1,787.46,330.81Z" transform="translate(-245.09 -76.95)"/><path class="cls-1" d="M787.46,336.15a91.14,91.14,0,0,1,18.39,0A89.71,89.71,0,0,1,787.46,336.15Z" transform="translate(-245.09 -76.95)"/><path class="cls-1" d="M813.7,293.4a79.45,79.45,0,0,1,17.44,0A79.45,79.45,0,0,1,813.7,293.4Z" transform="translate(-245.09 -76.95)"/><path class="cls-1" d="M813.7,298.79a34.15,34.15,0,0,1,11.5,0A35.78,35.78,0,0,1,813.7,298.79Z" transform="translate(-245.09 -76.95)"/><path class="cls-1" d="M813.7,304.09a72.71,72.71,0,0,1,16.42,0A71.56,71.56,0,0,1,813.7,304.09Z" transform="translate(-245.09 -76.95)"/><path class="cls-1" d="M813.7,309.44a66.74,66.74,0,0,1,16,0A70,70,0,0,1,813.7,309.44Z" transform="translate(-245.09 -76.95)"/><path class="cls-1" d="M813.7,314.77a83.33,83.33,0,0,1,17.44,0A79.45,79.45,0,0,1,813.7,314.77Z" transform="translate(-245.09 -76.95)"/><path class="cls-1" d="M813.7,320.12a51.28,51.28,0,0,1,13.89,0,46.09,46.09,0,0,1-6.94.49A48.9,48.9,0,0,1,813.7,320.12Z" transform="translate(-245.09 -76.95)"/><path class="cls-1" d="M813.7,325.46a72.71,72.71,0,0,1,16.42,0A70.45,70.45,0,0,1,813.7,325.46Z" transform="translate(-245.09 -76.95)"/><path class="cls-1" d="M813.7,330.81a40.61,40.61,0,0,1,6.42-.55,37.5,37.5,0,0,1,6.35.49,38.54,38.54,0,0,1-6.35.47A41.71,41.71,0,0,1,813.7,330.81Z" transform="translate(-245.09 -76.95)"/><path class="cls-1" d="M813.7,336.15a40.18,40.18,0,0,1,12.19,0A39.55,39.55,0,0,1,813.7,336.15Z" transform="translate(-245.09 -76.95)"/><rect class="cls-6" x="521.58" y="144.96" width="30.54" height="30.42"/><path class="cls-1" d="M783.71,225a1.83,1.83,0,1,1-1.85-1.81h0a1.82,1.82,0,0,1,1.85,1.81Z" transform="translate(-245.09 -76.95)"/><rect class="cls-1" x="602.22" y="132.69" width="4.13" height="162.78"/></g><g id="freepik--Floor--inject-46"><polygon class="cls-7" points="433.52 688.13 538.87 687.71 644.22 687.58 854.93 687.3 1065.61 687.57 1170.97 687.72 1276.32 688.13 1170.97 688.53 1065.61 688.67 854.93 688.95 644.22 688.67 538.87 688.53 433.52 688.13"/></g><g id="freepik--Desk--inject-46"><polygon class="cls-7" points="171.29 461.25 233.84 460.86 296.37 460.7 421.47 460.42 546.55 460.7 609.1 460.86 671.63 461.25 609.1 461.67 546.55 461.8 421.47 462.08 296.37 461.8 233.84 461.67 171.29 461.25"/></g><g id="freepik--Shadow--inject-46"><ellipse class="cls-8" cx="787.09" cy="741.21" rx="480.91" ry="52.87"/></g><g id="freepik--Lamp--inject-46"><rect class="cls-9" x="924.95" y="682.15" width="74.18" height="8.4"/><rect class="cls-9" x="957.65" y="351.97" width="8.79" height="330.16"/><rect class="cls-7" x="957.65" y="351.97" width="8.79" height="44.36"/><polygon class="cls-6" points="1008.58 377.67 915.52 377.67 922.27 355.52 922.5 354.74 942.19 290.33 981.88 290.33 1001.59 354.76 1001.59 354.78 1001.8 355.51 1008.58 377.67"/><path class="cls-10" d="M1190.57,382.16a.62.62,0,0,1-.6.63h0a.62.62,0,0,1-.63-.59h0a.62.62,0,0,1,.62-.62h0a.61.61,0,0,1,.61.62h0Zm10.83-.62a.61.61,0,0,0-.62.61h0a.63.63,0,0,0,.62.63h0a.62.62,0,0,0,.63-.59h0a.62.62,0,0,0-.57-.66Zm11.5,0a.62.62,0,0,0-.63.61h0a.63.63,0,0,0,1.26,0h0a.62.62,0,0,0-.62-.62Zm11.5,0a.62.62,0,0,0-.63.61h0a.6.6,0,0,0,.58.63h0a.63.63,0,0,0,.62-.63h0a.61.61,0,0,0-.61-.62h0Zm-28.65-8a.62.62,0,0,0-.63.62h0a.61.61,0,0,0,.62.61.6.6,0,0,0,.63-.6h0a.61.61,0,0,0-.62-.62Zm11.5,0a.61.61,0,0,0-.63.62h0a.6.6,0,0,0,.59.62h0a.62.62,0,0,0,.63-.61h0a.62.62,0,0,0-.62-.62h0Zm11.44,0a.61.61,0,0,0-.62.61h0a.64.64,0,0,0,.71.53.63.63,0,0,0,.54-.53h0a.61.61,0,0,0-.61-.62h0Zm-40.1,24.59a.63.63,0,0,0-.62.63h0a.61.61,0,0,0,.61.62h0a.63.63,0,0,0,0-1.25Zm11.5,0a.6.6,0,0,0-.62.59h0a.61.61,0,0,0,.61.62h0a.62.62,0,0,0,.62-.62h0a.62.62,0,0,0-.61-.63h0Zm11.5,0a.64.64,0,0,0-.63.63h0a.62.62,0,0,0,.62.62h0a.63.63,0,1,0,0-1.26h0Zm11.5,0a.64.64,0,0,0-.63.63h0a.62.62,0,0,0,.62.62h0a.63.63,0,0,0,0-1.25Zm11.5,0a.61.61,0,0,0-.63.59h0a.62.62,0,0,0,.62.62h0a.61.61,0,0,0,.61-.62h0a.62.62,0,0,0-.59-.64h0Zm11.49,0a.63.63,0,0,0-.62.63h0a.63.63,0,0,0,1.25-.06.62.62,0,0,0-.58-.58h-.05Zm-51.57-8a.62.62,0,0,0-.63.6h0a.64.64,0,0,0,.63.63h0a.64.64,0,0,0,.63-.63h0a.6.6,0,0,0-.59-.62h0Zm11.5,0a.62.62,0,0,0-.63.6h0a.63.63,0,0,0,1.26,0h0a.61.61,0,0,0-.62-.61Zm11.5,0a.6.6,0,0,0-.63.58h0a.63.63,0,0,0,1.25,0,.61.61,0,0,0-.61-.58h0Zm11.44,0a.61.61,0,0,0-.61.61h0a.6.6,0,0,0,.6.63h0a.64.64,0,0,0,.63-.63h0a.59.59,0,0,0-.58-.62h0Zm11.5,0a.61.61,0,0,0-.62.61h0a.62.62,0,0,0,.61.63h0a.64.64,0,0,0,.63-.63h0a.61.61,0,0,0-.61-.62h0Zm-51.56,24.57a.62.62,0,0,0-.63.61h0a.63.63,0,0,0,.63.63h0a.61.61,0,0,0,.61-.62h0a.62.62,0,0,0-.61-.63h0Zm11.5,0a.62.62,0,0,0-.63.61h0a.6.6,0,0,0,.58.63h0a.62.62,0,0,0,.62-.62h0a.63.63,0,0,0-.62-.63h.05Zm11.49,0a.62.62,0,0,0-.62.61h0a.63.63,0,0,0,.62.63h0a.6.6,0,0,0,.62-.58h0a.61.61,0,0,0-.61-.62h0Zm11.5,0a.62.62,0,0,0-.63.61h0a.64.64,0,0,0,.63.63h0a.64.64,0,0,0,.65-.63.65.65,0,0,0-.65-.63h0Zm11.5,0a.62.62,0,0,0-.63.61h0a.61.61,0,0,0,.59.63h0a.65.65,0,0,0,.57-.71.67.67,0,0,0-.57-.56h-.14Zm11.5,0a.62.62,0,0,0-.63.61h0a.63.63,0,0,0,.63.63h0a.6.6,0,0,0,.62-.59h0a.64.64,0,0,0-.62-.63h0Zm-51.58-8a.61.61,0,0,0-.62.62h0a.61.61,0,0,0,.61.62h0a.61.61,0,0,0,.63-.59h0a.61.61,0,0,0-.6-.62h0Zm11.5,0a.63.63,0,0,0-.63.62h0a.63.63,0,0,0,.63.62.62.62,0,0,0,.63-.6v0a.63.63,0,0,0-.63-.62Zm11.5,0a.63.63,0,0,0-.63.62h0a.61.61,0,0,0,.6.62h0a.63.63,0,0,0,.63-.61h0a.61.61,0,0,0-.62-.62h0Zm11.44,0a.61.61,0,0,0-.61.61h0a.63.63,0,0,0,1.24,0h0a.61.61,0,0,0-.6-.62h0Zm11.5,0a.61.61,0,0,0-.61.61h0a.61.61,0,0,0,.61.62h0a.62.62,0,0,0,0-1.24Zm-62.41,24.95-.23.78a.58.58,0,0,0,.3-.53.47.47,0,0,0-.19-.25Zm10.9-.35a.61.61,0,0,0-.62.62h0a.61.61,0,0,0,.61.62h0a.62.62,0,0,0,.62-.62h0a.61.61,0,0,0-.6-.63h0Zm11.5,0a.63.63,0,0,0-.63.62h0a.63.63,0,1,0,.63-.62Zm11.5,0a.63.63,0,0,0-.63.62h0a.62.62,0,0,0,.65.59.61.61,0,1,0,0-1.21Zm11.5,0a.62.62,0,0,0-.56.7.63.63,0,0,0,.56.54.61.61,0,0,0,.62-.61h0a.62.62,0,0,0-.61-.63h0Zm11.49,0a.61.61,0,0,0-.62.62h0a.63.63,0,1,0,.62-.62Zm11.45,0a.62.62,0,0,0-.56.7.65.65,0,0,0,.56.54.64.64,0,0,0,.56-.7A.63.63,0,0,0,1236.67,431.35Zm10.89.39a.74.74,0,0,0,0,.21.63.63,0,0,0,.27.52Zm-73.91-8.38a.61.61,0,0,0-.63.58h0a.63.63,0,0,0,.63.63h0a.63.63,0,0,0,.63-.62h0a.64.64,0,0,0-.62-.63h-.13Zm11.5,0a.62.62,0,0,0-.62.62h0a.61.61,0,0,0,.61.62h0a.63.63,0,0,0,.63-.62h0a.61.61,0,0,0-.58-.64H1185Zm11.5,0a.61.61,0,0,0-.62.62h0a.61.61,0,0,0,.61.62h0a.61.61,0,0,0,.62-.62h0a.63.63,0,0,0-.62-.63h0Zm11.49,0a.59.59,0,0,0-.61.57h0a.61.61,0,0,0,.6.63h0a.63.63,0,0,0,0-1.26H1208Zm11.5,0a.61.61,0,0,0-.61.62h0a.6.6,0,0,0,.6.62h0a.63.63,0,0,0,.63-.62h0a.61.61,0,0,0-.57-.64h-.17Zm11.5,0a.62.62,0,0,0-.62.62h0a.61.61,0,0,0,.61.62h0a.63.63,0,0,0,.63-.62h0a.62.62,0,0,0-.6-.64H1231Zm11.5,0a.59.59,0,0,0-.62.57h0a.62.62,0,0,0,.61.63h0a.61.61,0,0,0,.62-.62h0a.61.61,0,0,0-.59-.63h-.16Zm-74.5,24.58a.61.61,0,0,0-.62.6h0a.63.63,0,0,0,.62.63h0a.6.6,0,0,0,.62-.58h0a.61.61,0,0,0-.6-.63H1168Zm11.5,0a.62.62,0,0,0-.63.6h0a.64.64,0,0,0,.63.63h0a.63.63,0,0,0,0-1.26h-.14Zm11.5,0a.62.62,0,0,0-.63.6h0a.6.6,0,0,0,.58.63h0a.61.61,0,0,0,.61-.62h0a.61.61,0,0,0-.59-.63H1191Zm11.5,0a.62.62,0,0,0-.63.6h0a.63.63,0,0,0,.63.63h0a.6.6,0,0,0,.62-.59h0a.62.62,0,0,0-.61-.63h-.14Zm11.49,0a.61.61,0,0,0-.62.6h0a.62.62,0,0,0,.62.62.62.62,0,0,0,.63-.61h0a.63.63,0,0,0-.62-.63H1214Zm11.5,0a.62.62,0,0,0-.63.6h0a.62.62,0,0,0,.59.63h0a.66.66,0,0,0,.66-.64.65.65,0,0,0-.66-.63.67.67,0,0,0-.2,0Zm11.45,0a.62.62,0,0,0-.63.6h0a.63.63,0,0,0,.63.63h0a.6.6,0,0,0,.62-.59h0a.62.62,0,0,0-.61-.63H1237Zm11.49,0a.61.61,0,0,0-.62.6h0a.62.62,0,0,0,.62.62.62.62,0,0,0,.63-.61h0a.63.63,0,0,0-.62-.63h-.13Zm-74.48-8a.63.63,0,0,0-.63.63h0a.6.6,0,0,0,.6.61h0a.62.62,0,0,0,.63-.6h0a.65.65,0,0,0-.62-.64h0Zm11.5,0a.62.62,0,0,0-.62.62h0a.61.61,0,0,0,.62.61h0a.59.59,0,0,0,.62-.58h0a.62.62,0,0,0-.6-.64h0Zm11.5,0a.61.61,0,0,0-.62.62h0a.61.61,0,0,0,.62.61h0a.61.61,0,0,0,.62-.6h0a.62.62,0,0,0-.62-.63Zm11.49,0a.62.62,0,0,0-.62.63h0a.6.6,0,0,0,.59.61h0a.62.62,0,0,0,.63-.6h0a.63.63,0,0,0-.62-.64h0Zm11.5,0a.62.62,0,0,0-.62.62h0a.63.63,0,0,0,1.25,0h0a.62.62,0,0,0-.6-.64h0Zm11.5,0a.62.62,0,0,0-.62.62h0a.61.61,0,0,0,.62.61h0a.62.62,0,0,0,.64-.63.63.63,0,0,0-.64-.62h0Zm11.5,0a.61.61,0,0,0-.62.62h0a.58.58,0,0,0,.57.61h0a.63.63,0,1,0,0-1.25h0Z" transform="translate(-245.09 -76.95)"/></g><g id="freepik--Plant--inject-46"><path class="cls-7" d="M1040.74,655a113.41,113.41,0,0,1,2.64-18.5,41,41,0,0,1,6.66-15.61,20,20,0,0,1,13-8.09,18.31,18.31,0,0,1,13.7,4.85,66.21,66.21,0,0,1,11.72,14.27,172.23,172.23,0,0,1,10.13,17.69c.11.19-.2.36-.29.16a111,111,0,0,0-9.07-14.79,93.71,93.71,0,0,0-10.46-12.58c-3.5-3.32-7.94-6.62-13-6.74a16,16,0,0,0-12.74,6.53,38.7,38.7,0,0,0-6.41,15,111.68,111.68,0,0,0-2.61,17.61c-1,12.2-1.27,24.45-1.55,36.66q-.23,10.38-.31,20.76c0,3.5,0,7-.09,10.5a66.9,66.9,0,0,1-.39,10.11c-.12.68-1.26.62-1.37,0a60.37,60.37,0,0,1-.46-9.6c0-3.32-.09-6.63-.13-9.94,0-6.47-.07-12.93,0-19.37C1039.7,680.91,1039.86,667.93,1040.74,655Z" transform="translate(-245.09 -76.95)"/><path class="cls-6" d="M1058.22,645.81a28,28,0,0,1,3.8-10.6c3.54-4.8,7.32-2.72,3.82,2.6a31.71,31.71,0,0,0-5,13.14s6,8.48,13.14,12.66a56.16,56.16,0,0,1-.58-13.14c1.38-10.47,7.74-9.94,6.16-1.56a70.26,70.26,0,0,0-1.43,16.8,36.07,36.07,0,0,0,7.66,3.76c-.4-1.22-.85-2.69-1.33-4.44-2.54-9.38,3.74-12.31,3.94-7a73.77,73.77,0,0,0,2.44,13.25c3.46,1.16,6.27,1.94,8.07,2.55a29.42,29.42,0,0,1,11.77,8,36.86,36.86,0,0,0,8-10.25,130,130,0,0,0-10.45-8.09c-9-6.36-5.88-14.38,1.29-9.4,5.22,3.59,9.16,10.28,11,13.68a55.79,55.79,0,0,0,4-18.75c-7.1-6.62-24.64-15.86-19.35-15.86,4.75,0,15.41,6.93,19.32,9.62q-.18-2.82-.6-5.45c-6.66-4.36-28.4-11.12-25-13.09,3.79-2.15,19,4.83,23.53,7.08a27.17,27.17,0,0,0-4-8.28c-9.23-12.31-25.88-16.57-33.15-14.22-5.13,1.66-3.63,14.66-4.74,14.22C1060,614.73,1050.64,620.58,1058.22,645.81Zm50.63-1.42c1.46-1.76,8.23,3.43,6.27,6.26S1106.94,646.7,1108.85,644.39Zm-35.43-11.12c1.79,1.12-.84,7.68-3.58,5.7-2.35-1.64,1.78-6.79,3.58-5.65Z" transform="translate(-245.09 -76.95)"/><path class="cls-7" d="M1076.14,635.32c.93-1.84,1.89-3.66,3-5.42a31.42,31.42,0,0,1,3.41-5c-.3-.37-.58-.73-.88-1.08s.08-.35.22-.2l1,1.2a.29.29,0,0,1,.15.16c1.26,1.52,2.47,3,3.6,4.69a53.37,53.37,0,0,1,6,1.66c2,.67,4,1.37,6,2.2.19.09.09.43-.11.34-2-.85-3.94-1.65-6-2.38s-3.85-1.12-5.79-1.66c.62.88,1.26,1.77,1.83,2.69a70.49,70.49,0,0,1,10.62,4.31c3.58,1.66,7,3.66,10.45,5.64.2.1,0,.4-.18.28q-5.08-2.92-10.46-5.35c-3.32-1.55-6.75-2.83-10.09-4.3,8.36,13.14,13.49,28.16,20.24,42.23.1.21-.22.38-.31.16-2.09-5-4.44-9.69-6.66-14.51-2-4.34-4-8.69-6-13-.58-1.26-1.2-2.54-1.82-3.79.37,7,.22,14.15,1.37,21a.16.16,0,0,1-.17.16h0a.16.16,0,0,1-.16-.16h0c-.51-7.5-1.82-14.92-1.77-22.37v-.1c-1.43-2.85-3-5.68-4.59-8.41-2.8,6.54-5.74,13.25-7,20.22,0,.22-.41.12-.34-.09,1.89-7.08,3.66-14.16,7.07-20.64a80.3,80.3,0,0,0-5.94-8.53c-.93,1.66-2.09,3.32-3.21,5s-2.09,3.31-3,5a68.67,68.67,0,0,0-5.22,11.12c-.09.21-.43.09-.35-.1C1072.66,642.69,1074.29,639,1076.14,635.32Z" transform="translate(-245.09 -76.95)"/><path class="cls-7" d="M1009.66,651.26c5.41-5.41,11.65-12.51,20.06-12.49,8.07,0,14,6.49,17.44,13.25,3.56,7,4.83,14.92,5.86,22.59a267.76,267.76,0,0,1,2.09,27.74c.16,5.16.14,10.32,0,15.48a99.51,99.51,0,0,1-1.18,15.61c-.15.82-1.5.86-1.55,0-.23-4.35,0-8.7,0-13.06s0-8.55-.2-12.82c-.33-8.65-1-17.28-2-25.88-.89-7.51-1.66-15.23-3.86-22.48-2.09-6.63-5.84-14-12.54-16.9-9.1-3.92-18,3.31-23.92,9.29C1009.77,651.68,1009.48,651.41,1009.66,651.26Z" transform="translate(-245.09 -76.95)"/><path class="cls-6" d="M982.07,663.28h0c0,1.1.09,2.2.18,3.3a19.76,19.76,0,0,1,8.86-3.64c7.67-.83,7.19,5,2.09,5.24a29.15,29.15,0,0,0-10.53,2.1c1.25,10.11,4.05,18.2,4.46,18.32a144.4,144.4,0,0,0,20.3-2.55c-1.92-4-6.28-9.43-4-9.93s4.64,4.35,5.87,9.5a97.34,97.34,0,0,0,14.76-4c-3.33-2.91-8.6-6.62-6.65-8.08s6.13,3.56,8.62,7.27a31.89,31.89,0,0,0,6.39-3.55c-4.56-6.63-15.68-8-14.21-12.82s11.82,1.86,16.48,10.76c5.47-5.65,7.09-13.64,6.51-20.47-4.78-.56-14,.45-13.31-3s7.32-2.77,12.71-.78a18.93,18.93,0,0,0-3.14-7.51c-5-6.43-20.36,1.74-20.36,1.74s1.66-15.34-4.18-18c-3.32-1.53-9.31-1.5-15.27,2,3.32.29,7.39,1.33,9,3.65,2.09,2.95-1.2,4.55-3.33,3.2-1.47-1-4.18-4-9.15-4.41a30.1,30.1,0,0,0-5.54,6.07c-.56.79-1.1,1.65-1.66,2.53a21.19,21.19,0,0,1,17.95.34c6.65,3.3,2.92,10.11-2.79,7.48s-11.17-5.3-17.23-3.77a43,43,0,0,0-2.93,17.11,30.56,30.56,0,0,1,9.78-4.76c6.64-1.65,8.61,2.23,1.33,3A28.81,28.81,0,0,0,982.07,663.28Zm8-10.58c-.45-2.13,4.18-2.75,5-1,.66,1.55-4.55,3.29-5,1.08Zm40.09,11.82c.45-1.18,3.58.14,3.33,1.65-.46,2-3.8-.43-3.33-1.59Zm-22.1,7.53c2.3-.91,5.87,4.76,3.34,6.07S1006.18,672.82,1008.09,672.05Z" transform="translate(-245.09 -76.95)"/><path class="cls-7" d="M988,687.46c3.45-5.73,6.86-11.5,10.46-17.13q2.52-3.92,5.22-7.7l-.81-.2-1.37-.27c-1.11-.18-2.18-.32-3.19-.44s-2-.15-3-.17a14.56,14.56,0,0,0-3.23.17.1.1,0,0,1-.12-.06.08.08,0,0,1,.06-.11H992c1,0,2.18-.1,3.33-.11a29.86,29.86,0,0,1,3.14.08,21.2,21.2,0,0,1,3,.29l1.66.28a4.43,4.43,0,0,1,1,.2c1.86-2.54,3.8-5,5.8-7.5a69.43,69.43,0,0,0-18.81-6c-.12,0,0-.18,0-.16a64.15,64.15,0,0,1,19.14,5.78l3.32-4c1.24-1.49,2.58-3,3.69-4.53,0-.11.23,0,.15.11a67.33,67.33,0,0,0-4.37,5.31h0a67.69,67.69,0,0,1,7,5.61q3.45,3,6.66,6.26a.09.09,0,0,1,0,.13.11.11,0,0,1-.11,0c-2.09-2.13-4.37-4.16-6.65-6.06s-4.77-3.69-7.11-5.6h0l-1.68,2.09c-.28.34-.54.71-.81,1h0c-.88,1.17-1.78,2.34-2.66,3.5a28.67,28.67,0,0,1,2.66,4.78c.77,1.66,1.43,3.32,2.09,5a74.26,74.26,0,0,1,2.86,10.74c0,.1-.15.16-.16,0a63.69,63.69,0,0,0-3.14-10.53c-.68-1.76-1.42-3.46-2.23-5.17s-1.57-3-2.24-4.61c-.77,1-1.55,2-2.29,3.09l-.65.91v.15h0c-2.36,3.31-4.61,6.62-6.81,10.11a2.46,2.46,0,0,1,.3.75c.14.41.28.82.4,1.24a22.46,22.46,0,0,1,.6,2.55c.15.81.26,1.65.35,2.45a21.09,21.09,0,0,0,.19,2.76c0,.14-.17.16-.16,0a8.88,8.88,0,0,0-.2-2.57c-.12-.88-.28-1.78-.48-2.64s-.4-1.57-.63-2.35c-.14-.38-.25-.79-.39-1.16s-.16-.42-.23-.63q-1.55,2.41-3,4.81l-5.92,9.65C988.14,687.76,987.89,687.63,988,687.46Z" transform="translate(-245.09 -76.95)"/><path class="cls-7" d="M1041.1,731.46c.09-3.32.6-6.53,1-9.76s.74-6.5,1-9.74a145.17,145.17,0,0,1,2.51-18.79,27.39,27.39,0,0,1,7.69-14,12.39,12.39,0,0,1,7.52-3.58,13,13,0,0,1,8,2.46,27.75,27.75,0,0,1,6.65,7.07,67.91,67.91,0,0,1,5.23,8.49c0,.1-.13.16-.19,0a43.43,43.43,0,0,0-11.29-12.65,13.3,13.3,0,0,0-7.14-3,9.69,9.69,0,0,0-6.94,2.75,26,26,0,0,0-7.32,12.9A130.83,130.83,0,0,0,1045,711c-.46,3.43-.9,6.88-1.36,10.32s-.73,6.92-1.46,10.29a.57.57,0,0,1-.74.29h0A.56.56,0,0,1,1041.1,731.46Z" transform="translate(-245.09 -76.95)"/><path class="cls-6" d="M1057.14,706.34a18.5,18.5,0,0,0,3.56,3.62c-.53-3.18-1.18-8.81.42-11.81,2.49-4.66,5.46-2.34,4,1.65a33.43,33.43,0,0,0-2.39,11.5,49.85,49.85,0,0,0,10.85,5.05,17.55,17.55,0,0,1-.37-5.55c.5-5,4.33-4.88,3.33.29a31.6,31.6,0,0,0-.52,6.06,113,113,0,0,0,17,3.76,49.17,49.17,0,0,0,7-12.4c-4.08-1-12.3-1.25-12.15-4.15.24-3.89,8.23-.89,12.9,1.94a30.77,30.77,0,0,0,1.41-10.48,51.89,51.89,0,0,0-11.22-1.86c-8.36-.73-8-5.45-1.9-5.35,4.48.08,10.15,2.81,12.84,4.24-1.76-11.35-10.45-18.64-17.43-18.9-11.65-.48-7.51,14-7.51,14s-7.93-5.56-15.44-5.41S1049.14,695.15,1057.14,706.34Zm31.35-21c-.26-1.65,5-2,5.23,0,.33,2.33-5,1.57-5.23-.09Zm8.37,17c-.12-1.08,2.15-1.26,2.66.08.34.79-2.58.88-2.66-.17Zm-28.14,1c1.75.26,2.76,6.54-.29,6.41-2.31-.13-1.22-6.75.29-6.49Z" transform="translate(-245.09 -76.95)"/><path class="cls-7" d="M1071.15,710.29c.28-.79.54-1.59.8-2.39-.23.82-.43,1.66-.59,2.44C1071.31,710.51,1071.15,710.44,1071.15,710.29Z" transform="translate(-245.09 -76.95)"/><path class="cls-7" d="M1074.29,700.17c.54-1.66,1.16-3.2,1.78-4.79.34-.84.7-1.65,1-2.52a10.38,10.38,0,0,1,1.05-2.11,13.77,13.77,0,0,1-1-2m.1,0a24,24,0,0,1,2.29,3.53l1,1.66a14.62,14.62,0,0,1,2,.29c.71.13,1.41.27,2.09.44l2.09.47a18.17,18.17,0,0,0,2.09.5c.16,0,.09.28,0,.22a13.94,13.94,0,0,0-2.2-.57c-.68-.15-1.35-.26-2-.36s-1.36-.18-2.09-.25l-1.54-.11c.26.47.56,1,.82,1.45a1.76,1.76,0,0,0,.14.23,7.12,7.12,0,0,1,1.66.21l1.82.36c1.22.26,2.43.56,3.64.89,2.53.7,5,1.51,7.55,2.33.14,0,0,.26-.1.21a72.77,72.77,0,0,0-7.54-2.14l-3.6-.77-1.8-.4a11,11,0,0,1-1.41-.3c1.29,2.36,2.5,4.78,3.63,7.24,2.42,5.37,4.47,10.89,6.56,16.37,0,.15-.17.23-.21.1a149.42,149.42,0,0,0-7-16c-.46-1-.95-1.9-1.41-2.85a3.9,3.9,0,0,1-.14.59l-.34,2c-.22,1.29-.44,2.6-.64,3.91a45.91,45.91,0,0,0-.94,8.09c0,.16-.25.14-.22,0,.2-1.31.2-2.66.28-4s.18-2.73.35-4.1.32-2.62.53-3.92l.35-2a4.09,4.09,0,0,1,.37-1.41c-.69-1.37-1.37-2.75-2.09-4.1s-1.31-2.57-2-3.84l-.87-1.66a17.29,17.29,0,0,1-.79,2c-.3.75-.59,1.48-.92,2.22-.66,1.66-1.29,3.31-1.91,5-.88,2.33-1.86,4.72-2.59,7.16.68-2.45,1.28-4.89,2.09-7.24Z" transform="translate(-245.09 -76.95)"/><path class="cls-7" d="M1072,707.9a1.53,1.53,0,0,1,.17-.55A5,5,0,0,0,1072,707.9Z" transform="translate(-245.09 -76.95)"/><polygon class="cls-9" points="776.41 648.23 777.23 665.61 779.35 710.4 825.76 710.4 827.89 665.61 828.7 648.23 776.41 648.23"/><polygon class="cls-7" points="776.41 648.23 777.23 665.61 827.89 665.61 828.7 648.23 776.41 648.23"/><rect class="cls-9" x="773.1" y="641.21" width="58.89" height="14.05"/><rect class="cls-9" x="813.85" y="710.4" width="8.15" height="7.36"/><rect class="cls-7" x="813.85" y="710.4" width="8.15" height="3.68"/><rect class="cls-9" x="783.11" y="710.4" width="8.13" height="7.36"/><rect class="cls-7" x="783.11" y="710.4" width="8.13" height="3.68"/></g><g id="freepik--character-2--inject-46"><path class="cls-7" d="M1376.54,485.49c-13,21.14-.73,41.91-4.3,56.47-2.19,8.92-14.64,21.55-14.81,31.08-.32,15.63,13.3,16.83,13.09,25.34-.28,12-15.11,15.88-12,34.44s28.82,31.1,76.91,21.23,68.21-35,64.88-50.55-20.28-15.59-25-26.51c-3-6.93,5-15,1.12-28.36s-18.1-13.48-23.59-24.1-8.36-39.76-29.39-48.35S1382.94,475.06,1376.54,485.49Z" transform="translate(-245.09 -76.95)"/><path class="cls-7" d="M1378.75,485.22a39.91,39.91,0,0,0-7.48,17.56,86.4,86.4,0,0,0-.75,20.32,52.14,52.14,0,0,1-.08,12,29.28,29.28,0,0,1-3.74,9.67c-3.57,6.15-8.44,11.52-11.3,18.05-2.72,6.2-3.94,13.7-.12,19.71,2.09,3.31,5.39,5.43,8,8.29s4.18,6.46,2.37,9.93c-1.66,3-4.64,5.06-6.66,7.78a30.54,30.54,0,0,0-4.65,8.72,23.63,23.63,0,0,0,1.5,19.21c7.39,13.51,23.6,17.33,37.77,18.46,2,.16,4,.3,6,.42.31,0,.41-.44.09-.47-14.37-1.55-31.07-3.44-40.44-15.87a22.2,22.2,0,0,1-3.85-19.27,28.14,28.14,0,0,1,4.37-9.1c1.93-2.67,4.48-4.74,6.47-7.33a8.85,8.85,0,0,0,1.48-8.88,21.79,21.79,0,0,0-6.44-8.08,18,18,0,0,1-6.1-8.73,19.92,19.92,0,0,1,.67-10.44c2.1-6.78,6.66-12.26,10.59-18.09s6.45-12.08,6.27-19.21c-.11-3.62-.61-7.21-.86-10.81a90.89,90.89,0,0,1-.2-10,45.71,45.71,0,0,1,4.6-19.27,26.4,26.4,0,0,1,2.82-4.36C1379.07,485.27,1378.87,485.07,1378.75,485.22Z" transform="translate(-245.09 -76.95)"/><path class="cls-7" d="M1498.85,591.85a18.58,18.58,0,0,0-5.4-5.7c-2.27-1.5-4.78-2.6-7.19-3.91a13.74,13.74,0,0,1-5.82-5c-1.56-2.76-1.22-6-.66-9a66.76,66.76,0,0,0,1.55-9.4,30.31,30.31,0,0,0-1-9.19A30.92,30.92,0,0,0,1470,534c-2.43-2.09-5-4-7.44-6a39.64,39.64,0,0,1-7-7.66c-4.33-6.29-7.18-13.49-11.17-20A114.44,114.44,0,0,0,1430,481.74c-.14-.16-.31.08-.18.21a101.87,101.87,0,0,1,12.74,16.83c3.47,5.71,6.09,11.85,9.21,17.74a42.69,42.69,0,0,0,11.81,14.7c4.8,4,9.67,8.09,12.55,13.84a29.71,29.71,0,0,1,2.62,18.19c-1,5.38-2.73,11.6,1.15,16.25,3.32,4,8.53,5.3,12.66,8.15a19.21,19.21,0,0,1,7.88,13.61c1.67,13.75-9.24,24.36-21.24,28.93a.33.33,0,0,0-.11.44.33.33,0,0,0,.33.15c10.56-3.53,20.59-11.9,22.36-23.37A23.61,23.61,0,0,0,1498.85,591.85Z" transform="translate(-245.09 -76.95)"/><path class="cls-11" d="M1466.14,885c-1.48-4.85-81.8-116.91-87.57-119.3-2.18-.91-6.44-4.28-26.7,9.21l-42.67-37.29-24.25,79,105.77,44.86s50,29.2,56.56,31.12S1467.64,889.89,1466.14,885Z" transform="translate(-245.09 -76.95)"/><path class="cls-11" d="M1466.14,885c-1.48-4.85-81.8-116.91-87.57-119.3-2.18-.91-6.44-4.28-26.7,9.21l-42.67-37.29-24.25,79,105.77,44.86s50,29.2,56.56,31.12S1467.64,889.89,1466.14,885Z" transform="translate(-245.09 -76.95)"/><path class="cls-12" d="M1347.56,843.2l43,18.2s50,29.19,56.56,31.1,20.4-2.7,18.9-7.54-81.79-116.92-87.55-119.3c-2.2-.91-6.44-4.28-26.7,9.21l-4.36-3.94Z" transform="translate(-245.09 -76.95)"/><path class="cls-7" d="M1357,843.49a26.72,26.72,0,0,0-3.81-4.29,24.67,24.67,0,0,0-4.59-3.44,26.41,26.41,0,0,0,3.84,4.28A25.19,25.19,0,0,0,1357,843.49Z" transform="translate(-245.09 -76.95)"/><path class="cls-7" d="M1357.11,836a27.28,27.28,0,0,0-3.81-4.3,26.37,26.37,0,0,0-4.59-3.45,24,24,0,0,0,3.81,4.3A25.88,25.88,0,0,0,1357.11,836Z" transform="translate(-245.09 -76.95)"/><path class="cls-7" d="M1357.2,828.52a28.57,28.57,0,0,0-8.37-7.75,26.85,26.85,0,0,0,3.82,4.3A26.07,26.07,0,0,0,1357.2,828.52Z" transform="translate(-245.09 -76.95)"/><path class="cls-7" d="M1357.29,821.05a28.5,28.5,0,0,0-8.36-7.74,24.59,24.59,0,0,0,3.8,4.29A26.15,26.15,0,0,0,1357.29,821.05Z" transform="translate(-245.09 -76.95)"/><path class="cls-7" d="M1357.45,813.57a29.06,29.06,0,0,0-8.36-7.75,29.15,29.15,0,0,0,8.36,7.75Z" transform="translate(-245.09 -76.95)"/><path class="cls-7" d="M1357.45,806.08a26.29,26.29,0,0,0-3.82-4.28,24.29,24.29,0,0,0-4.59-3.45,28.37,28.37,0,0,0,8.37,7.73Z" transform="translate(-245.09 -76.95)"/><path class="cls-7" d="M1357.55,798.59a28.62,28.62,0,0,0-8.43-7.74,28.6,28.6,0,0,0,8.36,7.73Z" transform="translate(-245.09 -76.95)"/><path class="cls-7" d="M1357.66,791.11a26.3,26.3,0,0,0-3.81-4.29,25.17,25.17,0,0,0-4.59-3.45,24.71,24.71,0,0,0,3.81,4.3A25.82,25.82,0,0,0,1357.66,791.11Z" transform="translate(-245.09 -76.95)"/><path class="cls-7" d="M1357.74,783.64a25,25,0,0,0-3.8-4.3,27.15,27.15,0,0,0-4.59-3.45,28.48,28.48,0,0,0,8.31,7.75Z" transform="translate(-245.09 -76.95)"/><path class="cls-13" d="M1143.86,730.55c13,35.51,193.07,117.42,193.07,117.42l30.5-94.27-82.68-35.11L1459.93,693l-89.4-33.23s-17,7.16-29.47,3.55c-5.56-1.66-123.59-17.88-146.52-12.14C1143.84,663.65,1132,698,1143.86,730.55Z" transform="translate(-245.09 -76.95)"/><path class="cls-7" d="M1243.53,697a88.67,88.67,0,0,1,10.18,5c3.51,1.76,7,3.47,10.55,5.23h.13l-2.36-1.9c-2.72-2.14-5.23-4.49-8.12-6.38a.14.14,0,0,1,.16-.23c3,1.83,6.08,3.43,8.86,5.53,1.31,1,2.58,2,3.82,3.09.68.57,1.38,1.15,2,1.76a8.7,8.7,0,0,1,.92.9c1.66.82,3.13,1.65,4.75,2.55,3.5,2,6.83,4.19,10.33,6.07.19.11,0,.37-.18.27-3.45-1.74-7-3.14-10.51-4.85s-7-3.58-10.45-5.46-6.66-3.75-10-5.6a91.11,91.11,0,0,1-10.23-5.79C1243.33,697.15,1243.39,697,1243.53,697Z" transform="translate(-245.09 -76.95)"/><path class="cls-7" d="M1327,825.33c.76-2.68,1.56-5.37,2.36-8,1.66-5.33,3.21-10.68,4.84-16,3.33-10.61,6.53-21.23,10-31.75,2-5.94,4-11.94,6.19-17.8a.28.28,0,0,1,.36-.18.28.28,0,0,1,.19.34h0c-2.73,10.82-6.11,21.54-9.46,32.12s-6.8,21.13-10.27,31.67c-1,3-1.94,5.91-3,8.84s-2.2,6-3.22,9c0,.14-.28.08-.24,0C1325.62,830.74,1326.26,828,1327,825.33Z" transform="translate(-245.09 -76.95)"/><path class="cls-11" d="M1422.65,576.36c-16.63,32.44-43.6,69.59-52.26,74.55-11,6.25-73.68,7-76.69,6.63-7.43-1.09-8.77-56.75-.77-55.92,12.19,1.28,55.52,9.73,58.75,7.76s27.17-20.22,52.2-41.12C1421.12,553.68,1433,556.25,1422.65,576.36Z" transform="translate(-245.09 -76.95)"/><path class="cls-11" d="M1300.19,656.1c-1,.21-14.81,3.31-23,3.55-6.07.21-23.57.34-24.47-6.3-.61-4.52,9.67-5.82,16.93-6.88,3.82-.56,9-3.09,8.53-5.57-.8-4.32-10.69-2.66-17.39-.76-13,3.7-31,11.6-36.5,4.23-2.09-2.82,2-6,7.39-8.74-8.36,2.69-17,4.45-19.37,1.42-1.39-1.74-1-3.55.45-5.36a5.21,5.21,0,0,1-5.34-2.24c-1.66-3,.34-6.35,3.85-9.41a2.87,2.87,0,0,1-1.78-1.92c-3-8.77,27.25-24.13,36.35-24,26.74.39,53.06,8.2,53.06,8.2C1306.86,612.7,1300.2,656.09,1300.19,656.1Z" transform="translate(-245.09 -76.95)"/><path class="cls-7" d="M1269,623.61a44.25,44.25,0,0,0-18.49,2.21c-7.47,2.59-13,6.44-19.59,10a.15.15,0,0,0,0,.22h0a.17.17,0,0,0,.15,0c3.14-1.66,16-7.9,19.27-9.23a42,42,0,0,1,18.65-3.21C1269,623.71,1269,623.61,1269,623.61Z" transform="translate(-245.09 -76.95)"/><path class="cls-7" d="M1267,611.74a105.74,105.74,0,0,0-21.31,1.83c-7.6,1.66-14.29,6-20.85,10q-5.89,3.64-11.64,7.58c-.17.09,0,.37.15.26q10-6.32,20.38-12.05a55.74,55.74,0,0,1,20.71-6.63c4.18-.48,8.36-.64,12.54-.8C1267,611.91,1267,611.74,1267,611.74Z" transform="translate(-245.09 -76.95)"/><path class="cls-7" d="M1262.23,600.64c-6.78-.31-12.7-.59-19.27,1.42-8.72,2.65-18,8.48-21.22,10.55-3.58,2.29-7.09,4.7-10.55,7.17-.15.1,0,.35.16.25A219.7,219.7,0,0,1,1236,605.59a44.12,44.12,0,0,1,12.81-4.36,81,81,0,0,1,13.48-.55S1262.26,600.64,1262.23,600.64Z" transform="translate(-245.09 -76.95)"/><path class="cls-6" d="M1398.6,623.85l-19.68-41.61a298.28,298.28,0,0,1,28.93-20.48c17-10.62,25.34-4.81,15.19,20.22A171.57,171.57,0,0,1,1398.6,623.85Z" transform="translate(-245.09 -76.95)"/><path class="cls-7" d="M1385,579.37c1.82,2.92,3.2,6.14,4.75,9.18s3,5.83,4.38,8.8q4.32,9.24,8.36,18.61c0,.11-.13.19-.18.09-3.14-6-6.07-12-9-18-1.44-3-2.81-6.06-4.18-9.1s-3.06-6.2-4.18-9.44a.09.09,0,0,1,.08-.1h0Z" transform="translate(-245.09 -76.95)"/><path class="cls-6" d="M1496,709.84c-4.18,1.66-127.74-27.37-127.74-27.37l12.24-42.82s-7.78-13.15-5.13-26.36c3.5-17.63,34.4-47.85,36.85-49.7,9.86-7.24,18.81-8.66,27.5-4.61C1475.82,575.88,1496,709.84,1496,709.84Z" transform="translate(-245.09 -76.95)"/><path class="cls-7" d="M1396.23,579.62c-3,3.79-6.14,7.42-9.2,11.12,1.38-2.72,2.75-5.47,4.18-8.08,0,0,0-.13-.09,0a60.06,60.06,0,0,0-5.66,10.11,79.06,79.06,0,0,0-6.27,8.88,38.22,38.22,0,0,0-5,12,31.87,31.87,0,0,0,.29,13,82.35,82.35,0,0,0,4.84,14.29c.27.62,1.13.18.93-.42-2.71-8.09-5.73-16.57-4.34-25.28s6.35-16,11.2-23A121.1,121.1,0,0,1,1396.4,580C1396.65,579.65,1396.37,579.46,1396.23,579.62Z" transform="translate(-245.09 -76.95)"/><rect class="cls-12" x="951.42" y="576.71" width="135.11" height="6.03"/><polygon class="cls-14" points="951.42 576.71 951.42 582.75 1043.27 582.75 1038.65 576.71 951.42 576.71"/><polygon class="cls-12" points="1032.81 582.75 901.12 582.75 890.16 493.68 1021.86 493.68 1032.81 582.75"/><path class="cls-10" d="M1214.59,615.19a7.83,7.83,0,0,1-7.68,8h-.2a8.17,8.17,0,0,1-8.15-8,7.83,7.83,0,0,1,7.68-8h.19A8.23,8.23,0,0,1,1214.59,615.19Z" transform="translate(-245.09 -76.95)"/><path class="cls-11" d="M1455.6,575.84c14.43,23.94,43.62,105.26,26.61,116.65s-94.33-21.23-115.12-35.85c-6.18-4.35,26.7-41.79,34.8-41.45,6.66.31,36.35,20.66,37.63,18.89s-1.89-18.6-5-49.18C1431.08,549.69,1447.28,562.08,1455.6,575.84Z" transform="translate(-245.09 -76.95)"/><path class="cls-11" d="M1370.75,596c-16-5.1-20.9-4-32.08-15.4-7.31-7.5-15.31-6.06-12.18,4.4,5.1,17.1,24.33,28,32.1,29.82Z" transform="translate(-245.09 -76.95)"/><path class="cls-11" d="M1411.53,619.15s-16.64-13.35-33.15-20.46c-11.4-5-37.43-12.84-67.41,8.92-7.12,5.16-13.59,17.54,1.11,13.25,10.46-3,16.15-8.09,22.54-8.7,0,0-6.34,16.72-.88,23.61a161.69,161.69,0,0,0,15.59,17,33.89,33.89,0,0,0,3.46-2.63s5.72,6,18.3,6.93Z" transform="translate(-245.09 -76.95)"/><path class="cls-11" d="M1366.74,595.74c-6.2,2-19.27,6.38-28.72,13.69-10.46,8.14-28.51,26.59-22.39,34.24,4.47,5.62,12-.84,12-.84s-5.83,9.19-.67,13.39c4.69,3.81,10.2-1.53,10.2-1.53s-2.58,6.18,2.65,9c6.27,3.31,10.65-10.11,20-12.21C1361.87,651,1366.74,595.74,1366.74,595.74Z" transform="translate(-245.09 -76.95)"/><path class="cls-7" d="M1348.48,619c-5.53,2.82-16.44,12.42-20.91,23.53-.1.25,0,.46.18.25a129.83,129.83,0,0,1,20.83-23.68S1348.54,619,1348.48,619Z" transform="translate(-245.09 -76.95)"/><path class="cls-7" d="M1356.41,629.82c-4.52,2.92-15.33,13.25-19.49,24.72,0,.26,0,.46.2.25a138.16,138.16,0,0,1,19.39-24.85S1356.51,629.79,1356.41,629.82Z" transform="translate(-245.09 -76.95)"/><path class="cls-7" d="M1334.64,612.16c-5.62.64-9.55,2.67-14.63,5a74.79,74.79,0,0,1-7.64,3.15c-2.38.82-5.89,2-7.89-.22a4.4,4.4,0,0,1-.23-4.51,22,22,0,0,1,4-5.55s0-.16-.12-.09a32.49,32.49,0,0,0-4.18,4.82,7.18,7.18,0,0,0-1.19,4c.26,3,3.67,4,6.27,3.66a24.72,24.72,0,0,0,4.56-1.29c1.43-.54,2.82-1.12,4.18-1.66,2.83-1.28,5.59-2.7,8.36-4.05a74.85,74.85,0,0,1,8.36-3.11C1334.79,612.28,1334.73,612.16,1334.64,612.16Z" transform="translate(-245.09 -76.95)"/><path class="cls-7" d="M1320.19,628.89a174.07,174.07,0,0,1,14.53-16.56s0-.18-.1-.12c-4.84,3.21-13.31,12.49-15.47,15.58s-4.63,7-5.23,10.63c-1,5.55,2.55,7.24,3.86,7.76a7.58,7.58,0,0,0,4.89,0,15.23,15.23,0,0,0,5-3.32s0-.18-.11-.12c-2.31,1.86-5.9,3.47-8.86,2.54a5.23,5.23,0,0,1-3.14-2.45,6.7,6.7,0,0,1-.12-4.63A31.78,31.78,0,0,1,1320.19,628.89Z" transform="translate(-245.09 -76.95)"/><path class="cls-6" d="M1479.5,619.31l-45.77-6.07a297.84,297.84,0,0,1-1.66-35.33c.24-20,9.64-23.82,25.25-1.8A170.57,170.57,0,0,1,1479.5,619.31Z" transform="translate(-245.09 -76.95)"/><path class="cls-7" d="M1434.62,606.63a101.62,101.62,0,0,1,10.31,1c3.42.34,6.54.66,9.78,1.09,6.77.91,13.47,1.95,20.19,3.14.13,0,.11.23,0,.23q-10.07-1-20.09-2.26c-3.32-.41-6.66-.91-10-1.41s-6.91-.79-10.26-1.57a.12.12,0,0,1-.08-.13.1.1,0,0,1,.1-.1Z" transform="translate(-245.09 -76.95)"/><path class="cls-7" d="M1432.67,608.6c-.18-1.66-.32-3.32-.41-5v-1c-.56-2-1-4-1.46-6.12,0,0,.11-.1.12,0a44,44,0,0,1,1.25,4.67c-.13-2.57-.22-5.14-.1-7.7m.13,0c.42,3.32.62,6.64.93,10,.15,1.66.7,9.62.79,9.63s3.8.61,4,.75.12.31,0,.31l-4.74-.61s-.4-3.49-.55-5Z" transform="translate(-245.09 -76.95)"/><path class="cls-11" d="M983.84,832.26c4.34,2.64,139.13,33.25,145,31.18,2.24-.78,7.67-1,13.81-24.55,1.32-5,87.32-46,87.32-46l-89.21-39.76-84.85,46.83s-56.86,11.26-63.05,14.22S979.51,829.61,983.84,832.26Z" transform="translate(-245.09 -76.95)"/><path class="cls-12" d="M983.84,832.26c4.36,2.65,139.13,33.27,145,31.2,2.24-.76,7.69-1,13.8-24.56.38-1.38,7.68-5.3,18.11-10.23l-88.44-37.82-16.33,9s-56.85,11.29-63.06,14.22S979.51,829.61,983.84,832.26Z" transform="translate(-245.09 -76.95)"/><path class="cls-7" d="M1154.32,828.68a26.51,26.51,0,0,0-5.39,2,25.59,25.59,0,0,0-4.89,3,28.23,28.23,0,0,0,10.28-5Z" transform="translate(-245.09 -76.95)"/><path class="cls-7" d="M1147.35,825.88a26.29,26.29,0,0,0-5.39,2,26,26,0,0,0-4.88,3,25.64,25.64,0,0,0,5.38-2A24.81,24.81,0,0,0,1147.35,825.88Z" transform="translate(-245.09 -76.95)"/><path class="cls-7" d="M1140.4,823.1a28.11,28.11,0,0,0-10.29,5,24.58,24.58,0,0,0,5.38-2A25.69,25.69,0,0,0,1140.4,823.1Z" transform="translate(-245.09 -76.95)"/><path class="cls-7" d="M1133.43,820.3a28.23,28.23,0,0,0-10.3,5,24.63,24.63,0,0,0,5.41-2A25.54,25.54,0,0,0,1133.43,820.3Z" transform="translate(-245.09 -76.95)"/><path class="cls-7" d="M1126.46,817.5a28.39,28.39,0,0,0-10.3,5,25.2,25.2,0,0,0,5.41-2A26.29,26.29,0,0,0,1126.46,817.5Z" transform="translate(-245.09 -76.95)"/><path class="cls-7" d="M1119.56,814.7a31,31,0,0,0-10.38,5,28.63,28.63,0,0,0,10.3-5Z" transform="translate(-245.09 -76.95)"/><path class="cls-7" d="M1112.51,811.9a29.16,29.16,0,0,0-10.27,5,25.72,25.72,0,0,0,5.39-2A25.16,25.16,0,0,0,1112.51,811.9Z" transform="translate(-245.09 -76.95)"/><path class="cls-7" d="M1105.55,809.07a25.72,25.72,0,0,0-5.39,2,24.13,24.13,0,0,0-4.89,3,26.29,26.29,0,0,0,5.39-2A25.07,25.07,0,0,0,1105.55,809.07Z" transform="translate(-245.09 -76.95)"/><path class="cls-7" d="M1098.58,806.27a28.49,28.49,0,0,0-10.28,5,25.18,25.18,0,0,0,5.39-2A26.1,26.1,0,0,0,1098.58,806.27Z" transform="translate(-245.09 -76.95)"/><path class="cls-7" d="M1091.61,803.51a28.55,28.55,0,0,0-10.29,5,24.55,24.55,0,0,0,5.4-2A25.63,25.63,0,0,0,1091.61,803.51Z" transform="translate(-245.09 -76.95)"/><path class="cls-7" d="M1084.62,800.78a28.4,28.4,0,0,0-10.28,5,25.06,25.06,0,0,0,5.4-2A25.45,25.45,0,0,0,1084.62,800.78Z" transform="translate(-245.09 -76.95)"/><path class="cls-7" d="M1077.69,797.91a29.5,29.5,0,0,0-10.3,5.06,28.86,28.86,0,0,0,10.3-5Z" transform="translate(-245.09 -76.95)"/><path class="cls-7" d="M1070.72,795.15a26.49,26.49,0,0,0-5.41,2,25.1,25.1,0,0,0-4.89,3,27.2,27.2,0,0,0,5.4-2A25.71,25.71,0,0,0,1070.72,795.15Z" transform="translate(-245.09 -76.95)"/><path class="cls-13" d="M1078.47,784.21l90.94,43.48,149.36-73.5s34.25,26.41,71,33.29c25,4.67,77.34,4.47,97.64-24.48,17.09-24.35,7-53,7-53l-28.67-12.9s-67.41-48-109.6-52.39C1291.78,637.89,1078.47,784.21,1078.47,784.21Z" transform="translate(-245.09 -76.95)"/><path class="cls-7" d="M1440.62,680.34c4.09,2.43,8.07,5.06,12.09,7.56s8.06,4.77,11.86,7.5,7.56,5.78,11.23,8.81c1.77,1.46,3.53,2.93,5.23,4.44a44.05,44.05,0,0,1,5,4.77c.14.16-.09.39-.26.31a53.27,53.27,0,0,1-5.51-3.91c-1.94-1.4-3.84-2.83-5.77-4.25-3.71-2.73-7.48-5.38-11.18-8.09s-7.12-5.74-10.78-8.51-8-5.69-12-8.47C1440.44,680.42,1440.49,680.29,1440.62,680.34Z" transform="translate(-245.09 -76.95)"/><path class="cls-7" d="M1318.88,754.23a211,211,0,0,0,24,15.34l37.82-47.21Z" transform="translate(-245.09 -76.95)"/><path class="cls-7" d="M1100.3,776c3,1.16,5.9,2.55,8.83,3.86s5.77,2.59,8.64,3.91c5.88,2.7,11.65,5.5,17.55,8.28,11.66,5.6,37.9,20.22,44.4,23.52.12,0,0,.26-.09.21-11.75-5.2-48.53-23.56-60.15-29.32l-9.64-5c-3.14-1.65-6.53-3.31-9.68-5.19C1100,776.22,1100.13,775.94,1100.3,776Z" transform="translate(-245.09 -76.95)"/><path class="cls-7" d="M1148.44,738.72c2.48-2,55.29-33.67,66.66-40.09s22.8-12.61,34.42-18.51,23.28-11.52,35.29-16.56,23.82-9.83,36.11-13.71l4.68-1.52c.16,0,.21.18,0,.23-6.27,2.12-12.27,4.69-18.29,7.15s-11.93,5-17.84,7.6q-17.71,7.89-34.94,16.76c-11.5,5.88-22.82,12.06-34,18.44s-22.5,13-33.65,19.63c-5.57,3.32-36.58,20.47-38,21.11C1148.5,739.3,1148.17,739,1148.44,738.72Z" transform="translate(-245.09 -76.95)"/><path class="cls-7" d="M1231.33,796.64c5.57-3,11.24-5.89,16.89-8.82s11.32-5.73,17-8.53q16.9-8.28,34-16.42c6.42-3,12.87-6.16,19.48-8.8.14,0,.25.13.11.19-5.47,3.2-11.16,6.06-16.81,8.91s-11.36,5.67-17,8.49c-11.28,5.58-22.55,11.2-34,16.47-6.47,3-12.91,6.06-19.44,8.89C1231.3,797.18,1231,796.77,1231.33,796.64Z" transform="translate(-245.09 -76.95)"/><path class="cls-11" d="M1434.5,561.25c0,2.26-7.14,18.47-17.07,20.22-3.23.58-7.11-16.88-7.11-16.88l-.59-1.21-8.13-17.13,20.84-20.88S1434.48,560.3,1434.5,561.25Z" transform="translate(-245.09 -76.95)"/><path class="cls-7" d="M1401.6,546.24l8.13,17.12a38.16,38.16,0,0,0,16.81-26c-2.09-6.06-3.8-11.12-4-11.85h0l-2.68,2.49Z" transform="translate(-245.09 -76.95)"/><path class="cls-11" d="M1368.12,527c4.68,32.92,25,33.85,32.13,32.84,6.47-.93,28.38-4.88,27.18-38.11s-18.07-41.45-33-40.14S1363.45,494.08,1368.12,527Z" transform="translate(-245.09 -76.95)"/><path class="cls-7" d="M1372.19,523.46c.71-.28,1.41-.6,2.09-1a3.63,3.63,0,0,0,2-1.35,1.18,1.18,0,0,0-.3-1.41,2.92,2.92,0,0,0-3,0,4.29,4.29,0,0,0-2.33,2,1.26,1.26,0,0,0,.73,1.63A1.21,1.21,0,0,0,1372.19,523.46Z" transform="translate(-245.09 -76.95)"/><path class="cls-7" d="M1394.41,519a22.06,22.06,0,0,1-2.3,0,3.85,3.85,0,0,1-2.36-.44,1.2,1.2,0,0,1-.3-1.41,3,3,0,0,1,2.7-1.27,4.35,4.35,0,0,1,3,.92,1.26,1.26,0,0,1-.71,2.2Z" transform="translate(-245.09 -76.95)"/><path class="cls-7" d="M1390.08,524.82c0-.11.19,0,.2.17.35,2.23,1.14,4.73,3.33,5v.13C1391.05,530.32,1390.05,527,1390.08,524.82Z" transform="translate(-245.09 -76.95)"/><path class="cls-7" d="M1391.63,522.12c3.54-.94,5.22,6.16,1.91,7.07S1388.67,522.91,1391.63,522.12Z" transform="translate(-245.09 -76.95)"/><path class="cls-7" d="M1393.09,522.18c.72.26,1.51.83,2.27.72s1.38-1,1.78-1.85c0-.09.11,0,.13,0a2.66,2.66,0,0,1-1.28,3.43c-1.3.5-2.54-.49-3.14-1.79C1392.69,522.45,1392.83,522.07,1393.09,522.18Z" transform="translate(-245.09 -76.95)"/><path class="cls-7" d="M1377.79,527.07s-.15.13-.12.23c.6,2.19.91,4.79-.92,6m0,.12c2.41-.93,2-4.35,1-6.35Z" transform="translate(-245.09 -76.95)"/><path class="cls-7" d="M1375.26,525.21c-3.61.59-2.2,7.73,1.17,7.21S1378.3,524.75,1375.26,525.21Z" transform="translate(-245.09 -76.95)"/><path class="cls-7" d="M1373.86,526c-.49.49-.91,1.28-1.66,1.46s-1.51-.44-2.17-1.09c0,0-.11,0-.09.1.23,1.38,1,2.72,2.34,2.72s1.91-1.34,2-2.78C1374.33,526.14,1374.08,525.77,1373.86,526Z" transform="translate(-245.09 -76.95)"/><path class="cls-7" d="M1395,544.09c-.36.64-.7,1.48-1.48,1.78a6.24,6.24,0,0,1-2.51.11m0,.13a3.05,3.05,0,0,0,3.14.41,2.4,2.4,0,0,0,1.18-2.4.18.18,0,0,0-.23-.07.13.13,0,0,0-.06.07Z" transform="translate(-245.09 -76.95)"/><path class="cls-7" d="M1383.68,537.92a49.78,49.78,0,0,0,.61,5c0,.15.42.13,1,0h0a7.6,7.6,0,0,0,6.65-4.32c0-.19-.15-.3-.28-.17a11.54,11.54,0,0,1-6.36,3.42c-.21-.41-.26-5.85-.51-5.82a13.58,13.58,0,0,0-3.32,1.66c-.76-7.08-.37-14.22-1.24-21.24,0-.24-.4-.24-.42,0-1,7.46-.25,15.61.34,22.93C1380.15,540.19,1383.11,538.35,1383.68,537.92Z" transform="translate(-245.09 -76.95)"/><path class="cls-7" d="M1386,542.19a8.56,8.56,0,0,0,3.88,1.95,3.76,3.76,0,0,0,2.34-.31c1.67-.76,1.32-2.28.77-3.53a10.12,10.12,0,0,0-1.14-1.85A11,11,0,0,1,1386,542.19Z" transform="translate(-245.09 -76.95)"/><path class="cls-15" d="M1390,544.14a3.8,3.8,0,0,0,2.35-.31c1.66-.76,1.31-2.28.76-3.53A4,4,0,0,0,1390,544.14Z" transform="translate(-245.09 -76.95)"/><path class="cls-7" d="M1427.31,521.8c-5.22,1.89-9.59-9-9.59-9s-10.92,3-18.82-11.59a25,25,0,0,0,8.36,11.59s-19.86,3.32-32.4-10.53c0,0,5.5,7.27,9.33,9.34,0,0-8.69,0-14.43-5.47,0,0-.8,10.19-2.68,13.46,0,0-8.51-33.75,23.67-38.77,0,0,20-4.05,31.18,9.39S1427.31,521.8,1427.31,521.8Z" transform="translate(-245.09 -76.95)"/><path class="cls-6" d="M1428.63,519.47c.14,4.69,4.3-18.49,3.32-21.54s-11.33-16.9-26.3-19.83c-12.54-2.42-25.17,5.16-27.34,6.53a20.25,20.25,0,0,0-6.15,5.86s16.45-9.94,32.82-9.75C1412.88,480.88,1428.1,502,1428.63,519.47Z" transform="translate(-245.09 -76.95)"/><path class="cls-6" d="M1410.91,475.13s-6.07-8.38-15.07-8.74c0,0,1,8.79,4.34,11.47,1.66,1.35,8.71,1.45,9.4.22A14.74,14.74,0,0,0,1410.91,475.13Z" transform="translate(-245.09 -76.95)"/><path class="cls-16" d="M1410.91,475.13a16.76,16.76,0,0,1-1.28,2.95.31.31,0,0,1-.12.14.48.48,0,0,1-.2.14l-.16.09a10.13,10.13,0,0,1-3.86.47A20.72,20.72,0,0,1,1406,475a5.81,5.81,0,0,1,2.5-2.62A24.18,24.18,0,0,1,1410.91,475.13Z" transform="translate(-245.09 -76.95)"/><path class="cls-6" d="M1413.19,476.17s12.31-2.82,18.5-.56c0,0-2.8,6.71-8.92,8.75-2.74.92-11.27-3.52-11-5A12.35,12.35,0,0,1,1413.19,476.17Z" transform="translate(-245.09 -76.95)"/><path class="cls-16" d="M1416,475.67a7.4,7.4,0,0,1,0,4.12,6.51,6.51,0,0,1-1.48,2.16c-1.66-1-2.88-2-2.76-2.59a12.53,12.53,0,0,1,1.37-3.14A26.6,26.6,0,0,1,1416,475.67Z" transform="translate(-245.09 -76.95)"/><path class="cls-6" d="M1414.68,478.89a4.1,4.1,0,0,1-5.28,2.19l-.11,0a4.1,4.1,0,0,1,3.14-7.57l.1,0h0a4,4,0,0,1,2.15,5.34Z" transform="translate(-245.09 -76.95)"/><path class="cls-11" d="M1422.5,525s4.76-11.75,10-10.27,3.32,17.33-1.67,20.58a5.64,5.64,0,0,1-7.75-.83l-.15-.18a2.43,2.43,0,0,1-.14-.2Z" transform="translate(-245.09 -76.95)"/><path class="cls-7" d="M1431.76,519.3s.14.09,0,.14c-3.43,2.39-4.62,6.36-5.22,10.32a3.15,3.15,0,0,1,3.91-2l.45.17c.11,0,0,.22,0,.22a3.5,3.5,0,0,0-3.45,2,17.32,17.32,0,0,0-1,3.42c-.1.38-.76.33-.72,0v-.1C1424.5,528.58,1426.69,521,1431.76,519.3Z" transform="translate(-245.09 -76.95)"/></g><g id="freepik--Dog--inject-46"><path class="cls-6" d="M850.43,801.9c0,1.87,7.51,7.89,16.55,8.61s23.69-2.84,26.82-2.49,2.75,8.87,5.85,10.67,10.21-3.21,11.64-5.66-1.41-11.47-3.87-12.63-18.54-8.09-20.79-15.51S850.44,799,850.43,801.9Z" transform="translate(-245.09 -76.95)"/><path class="cls-17" d="M850.43,801.9c0,1.87,7.51,7.89,16.55,8.61s23.69-2.84,26.82-2.49,2.75,8.87,5.85,10.67,10.21-3.21,11.64-5.66-1.41-11.47-3.87-12.63-18.54-8.09-20.79-15.51S850.44,799,850.43,801.9Z" transform="translate(-245.09 -76.95)"/><path class="cls-6" d="M755.49,806.83c-.9,4.7,6.27,16,9.3,17.72s11.4,4.05,13,5.45,2.66,4.77,4.84,6.07,10.46,1.17,11.5,0,0-5.42-1.66-6.17a16.48,16.48,0,0,1-4.32-1.94c-.94-.92-4.41-20.14-9.29-24.75S756.36,802.44,755.49,806.83Z" transform="translate(-245.09 -76.95)"/><path class="cls-17" d="M755.49,806.83c-.9,4.7,6.27,16,9.3,17.72s11.4,4.05,13,5.45,2.66,4.77,4.84,6.07,10.46,1.17,11.5,0,0-5.42-1.66-6.17a16.48,16.48,0,0,1-4.32-1.94c-.94-.92-4.41-20.14-9.29-24.75S756.36,802.44,755.49,806.83Z" transform="translate(-245.09 -76.95)"/><path class="cls-6" d="M935.52,745.8c-8.51,10.32-27.35,14.32-32.14,16.83s-13.21,17.36-18,23.08-28.22,22.5-41.87,24.85-39.72-4.17-45-4-24.74,3.42-25.51,3.79-9.41,9.6-11.65,12-9.8,8.85-10.58,9.54a2.18,2.18,0,0,0,.45,3l.08.06c1,.74,3.14,4.55,1.18,5.64s-7.94,1.84-10.16.67-3.77-4.85-4.89-6.73,6.1-15.16,7.47-19.21-7-21.23-4.74-27.42,23-27.24,33.52-26.93H781c10.33,0,28-.26,44.41-1.26,14.15-.83,27.33-2.21,34-4.32,16.78-5.34,23.28-27.88,32.64-30.33s18.37,1,22.41.15c5.85-1.24,20.74-11.75,23.43-10.26C941.84,717.47,941.13,739,935.52,745.8Z" transform="translate(-245.09 -76.95)"/><path class="cls-7" d="M771.51,811.14a7.28,7.28,0,0,0,1.84-2.5c.47-1,.9-1.94,1.29-2.94.76-2,1.26-4.05,1.91-6a.12.12,0,0,1,.15-.07h0a.23.23,0,0,1,.07.07,26.06,26.06,0,0,1-.75,5,4.75,4.75,0,0,0,1-1.66.16.16,0,0,1,.18-.09.15.15,0,0,1,.1.18h0a5.06,5.06,0,0,1-1.49,2.08c-.1.34-.2.68-.31,1A10,10,0,0,1,774,809a18.75,18.75,0,0,1-2.31,2.32.14.14,0,0,1-.24-.13Z" transform="translate(-245.09 -76.95)"/><path class="cls-6" d="M773.62,761c-6.14-.43-15.14-.18-20.77,3.46s-16.51,21.42-25,25.42-22.63,1.79-22.73,2.61,13.42,3.9,23,1,22-23.89,31.16-25.14A24.52,24.52,0,0,0,773.62,761Z" transform="translate(-245.09 -76.95)"/><path class="cls-7" d="M900.83,736.17c3.14-3,8.66,3.13,5.71,5.93S898.18,738.64,900.83,736.17Z" transform="translate(-245.09 -76.95)"/><path class="cls-7" d="M939.39,725.67c2.09-.78,2.86-9.1,1-11.81s-14.46,5.5-14.34,8.28S937.07,726.49,939.39,725.67Z" transform="translate(-245.09 -76.95)"/><path class="cls-7" d="M887.66,727.74c.38-1.23-6.86,2.28-12.73,7.76a36.36,36.36,0,0,0-7.09,10.11c-1.1,3.22,3.48,23.84,10.35,26.86,4.69,2,10.91-13.15,11.28-16.74S884.45,738.22,887.66,727.74Z" transform="translate(-245.09 -76.95)"/><path class="cls-7" d="M816.23,779c-3.14,1.78-6.66,2-10.22,2.57a57.5,57.5,0,0,0-14.12,4c-6,2.44-12.68,3.56-15.9-3.42s-.19-14.91,4.89-21.06c10.33,0,28-.26,44.41-1.25C826.14,767.07,822.17,775.71,816.23,779Z" transform="translate(-245.09 -76.95)"/><path class="cls-7" d="M844.61,777.16c-3.74,2.57-10.77,1.87-12.71-2.77-1-2.65,1-4.65,2.73-6.42a15.72,15.72,0,0,1,1.66-1.5,13.88,13.88,0,0,1,3.54-2.77,4.67,4.67,0,0,1,6.27.8C849.56,768,848.52,774.44,844.61,777.16Z" transform="translate(-245.09 -76.95)"/><path class="cls-13" d="M865.24,752.74c.12,2,3.45,27,23.85,28,1.26,0-.08,4.19-2.36,4.16s-25-3.6-25.08-31C861.71,752.09,865,751.08,865.24,752.74Z" transform="translate(-245.09 -76.95)"/><path class="cls-6" d="M845.07,793.78c-3.58,2.89-11.43,23.19-10.33,26.87s7.48,10.6,8,11.42.25,1.84,2,2.7,11.39.37,12.54-.82a5.74,5.74,0,0,0-.41-6.36c-1.45-1.26-5-1.28-5.71-2.11s-2.33-5.38-1.66-6.77,15-10.19,16.63-17.07S850.66,789.19,845.07,793.78Z" transform="translate(-245.09 -76.95)"/><path class="cls-7" d="M838,805.66c.34-1,.73-2,1.13-3v-.09c.15-1.15.28-2.31.47-3.45a17,17,0,0,1,.74-3.4c0-.1.2-.08.19,0-.13,1.11-.44,2.22-.64,3.32a25.18,25.18,0,0,0-.34,2.66l.31-.79a101.34,101.34,0,0,1,4.64-9.19h.12c-1.38,3.15-2.63,6.39-3.91,9.6-.62,1.58-1.22,3.19-1.89,4.74s-1.47,3.31-2,5c0,.2-.39.12-.31-.08C837.07,809.19,837.44,807.41,838,805.66Z" transform="translate(-245.09 -76.95)"/></g><g id="freepik--Mug--inject-46"><path class="cls-18" d="M1450.87,788s-27.18-12.44-27.18-29.24,35.25-27.52,35.25-40.62-15.41-20.77-15.41-20.77,24.33,8.28,24.33,24.86-23.27,27.77-25.5,38.31C1439.3,775.14,1450.87,788,1450.87,788Z" transform="translate(-245.09 -76.95)"/><path class="cls-18" d="M1449.53,788s27.18-9.83,27.18-23-35.31-21.65-35.31-32,15.45-16.34,15.45-16.34-24.32,6.5-24.32,19.53,26.74,22,28.64,32.54S1449.53,788,1449.53,788Z" transform="translate(-245.09 -76.95)"/><rect class="cls-6" x="1192.55" y="753.14" width="25.89" height="4.03"/><rect class="cls-7" x="1192.55" y="753.14" width="25.89" height="2.66"/><path class="cls-6" d="M1494.27,819.27a14.63,14.63,0,0,1-14.63,6.21,15.78,15.78,0,0,1-2.63-.74,18.23,18.23,0,0,1-3.56-1.92l3.28-4.87a11.26,11.26,0,0,0,1.94,1.1,8.62,8.62,0,0,0,10.84-3.16c3.57-5,4.82-16.32,1.24-20.67-.25-.34-1.29-.83-5.46,0-.77.18-1.64.37-2.62.64a10.76,10.76,0,0,1-2.38.52l-.1-2.91-.29-2.92,1.23-.32A38.26,38.26,0,0,1,1487,789c3.06-.33,6.27,0,8.25,2.46C1501.08,798.63,1498.71,813.05,1494.27,819.27Z" transform="translate(-245.09 -76.95)"/><path class="cls-7" d="M1476.71,818a11.26,11.26,0,0,0,1.94,1.1l-1.56,5.69a18,18,0,0,1-3.57-1.92Z" transform="translate(-245.09 -76.95)"/><path class="cls-7" d="M1487,789.09l-1.77,6.22c-.78.18-1.64.37-2.63.63a9.56,9.56,0,0,1-2.37.52l-.1-2.91-.3-2.92,1.24-.32A38.51,38.51,0,0,1,1487,789.09Z" transform="translate(-245.09 -76.95)"/><path class="cls-6" d="M1416.15,781.43s3.13,26.29,8.48,37.3,12.85,12.29,17.5,12.29h16.93c4.65,0,12.14-1.22,17.5-12.29s8.48-37.3,8.48-37.3Z" transform="translate(-245.09 -76.95)"/><path class="cls-10" d="M1476.84,785.89a3,3,0,1,1-3.06,3.12v-.08h0A3.1,3.1,0,0,1,1476.84,785.89Zm-30,2.42a3.07,3.07,0,1,0,3.06-3h0a3.07,3.07,0,0,0-3,3Zm0,38.26a3.07,3.07,0,1,0,3.06-3h0a3.09,3.09,0,0,0-3,3h0Zm-22.18-17.26a3.07,3.07,0,1,0,3.08-3h0a3.09,3.09,0,0,0-3.06,3Zm34,9a3.07,3.07,0,1,0,3.07-3h0a3.09,3.09,0,0,0-3.07,3Zm-35.92-30a3.08,3.08,0,1,0,3.14-3,3.08,3.08,0,0,0-3.14,3Zm24.49,20.56a3.08,3.08,0,1,0,3.14-3h0a3.09,3.09,0,0,0-3.14,3Zm23.19.49a3.06,3.06,0,1,0,3.13-3h0a3.07,3.07,0,0,0-3.06,3ZM1434.7,799.2a3.06,3.06,0,1,0,3.14-3h0a3.1,3.1,0,0,0-3.14,2.94h0Zm.84,19.69a3.07,3.07,0,1,0,3.06-3h0a3.1,3.1,0,0,0-3.14,2.93.09.09,0,0,1,0,.07Zm24.62-19.69a3.08,3.08,0,1,0,3.09-3h0a3.09,3.09,0,0,0-3.14,3h0Z" transform="translate(-245.09 -76.95)"/></g><g id="freepik--character-1--inject-46"><path class="cls-19" d="M570.81,376.51c9.71,47.39,31.63,104.62,41.72,114.14,12.7,12.06,99.1,36.45,103.42,37.12,10.74,1.39,35.54-68.75,24.11-70.66-17.38-3-80.83-8.51-84.49-12.22s-29.26-35.8-55.26-71.78C582.29,348.28,564.78,347.08,570.81,376.51Z" transform="translate(-245.09 -76.95)"/><path class="cls-19" d="M707.41,523.61c1.24.64,19.14,9.71,30.31,13.15,8.36,2.55,32.49,9.28,36.47,1.19,2.72-5.51-10.89-11-20.58-15.08-5.06-2.15-11.18-7.3-9.52-10.25,2.88-5.18,15.88.61,24.38,5.55,16.43,9.56,38.1,26.51,48.77,19.07,4-2.8-.26-8.28-6.62-13.85,10.45,6.53,21.62,12,26.23,9.05,2.64-1.66,2.87-4.13,1.56-7,3.27,1.11,6.19,1,8.36-.86,3.63-3.19,2.09-8.18-1.43-13.35a4.22,4.22,0,0,0,3.24-1.78c7.84-10-27.75-40.85-40.38-44.07-37.2-9.57-76.83-9.54-76.83-9.54C716.06,466.11,707.41,523.59,707.41,523.61Z" transform="translate(-245.09 -76.95)"/><path class="cls-7" d="M764,494.12a66.77,66.77,0,0,1,24.66,9.74c9.27,6.06,15.27,13,23,20.1a.19.19,0,0,1,0,.29.21.21,0,0,1-.27,0c-3.63-3.32-18.89-16.05-22.84-18.95a63.42,63.42,0,0,0-24.51-11S763.94,494.1,764,494.12Z" transform="translate(-245.09 -76.95)"/><path class="cls-7" d="M771.69,479.82c9.75,2.84,19.76,5.7,28.74,10.31,9.81,5,17.3,12.94,24.68,20.55q6.67,6.85,13,14a.21.21,0,0,1-.31.29Q826.56,513.15,814.56,502a80.94,80.94,0,0,0-25.91-16.29c-5.56-2.18-11.28-4-17-5.73C771.54,480,771.58,479.78,771.69,479.82Z" transform="translate(-245.09 -76.95)"/><path class="cls-7" d="M782.81,467.49c9.5,2.15,17.77,4,26.07,9,11,6.62,21.36,17.51,25,21.35,4,4.26,7.87,8.64,11.67,13.07.16.19-.19.44-.35.26a302.75,302.75,0,0,0-28-27.56,64.08,64.08,0,0,0-15.92-10.32,121.49,121.49,0,0,0-18.43-5.75S782.75,467.48,782.81,467.49Z" transform="translate(-245.09 -76.95)"/><path class="cls-6" d="M725.39,452.72l-30.32,76.71s-71.88-21.68-84.58-35.26S576.29,412.08,570.58,379s12.35-31.48,28.1-10.26,55,72.9,57.28,74.06S725.39,452.72,725.39,452.72Z" transform="translate(-245.09 -76.95)"/><path class="cls-10" d="M625.4,404.35l-.49-.16a2.64,2.64,0,0,1-1.58-2,3,3,0,0,0-.29-.88,10.87,10.87,0,0,0-.82-1,3.39,3.39,0,0,0-1.66-.85,4,4,0,0,0-2,.12c-.58.18-1.16.31-1.82.52a8.54,8.54,0,0,1,1.82.14,4,4,0,0,1,1.56.23,2.59,2.59,0,0,1,1.65,2,3.43,3.43,0,0,0,2.67,2.85,3.34,3.34,0,0,0,1.54,0A5.83,5.83,0,0,0,625.4,404.35ZM576,353.66l.41.11a3.62,3.62,0,0,0,2,0l.78-.21A7.85,7.85,0,0,0,576,353.66ZM629.93,474a3.69,3.69,0,0,1-1.54-.28,2.66,2.66,0,0,1-1.58-2A3.42,3.42,0,0,0,624,469a3.78,3.78,0,0,0-2,.1c-.58.18-1.18.31-1.82.52a8.54,8.54,0,0,1,1.82.13,3.78,3.78,0,0,1,1.56.24,2.59,2.59,0,0,1,1.65,2,3.43,3.43,0,0,0,2.67,2.85,3.81,3.81,0,0,0,2,0c.59-.18,1.17-.31,1.82-.53A13.69,13.69,0,0,0,629.93,474Zm-12.06-33.42a3.5,3.5,0,0,1-1.28.85,3,3,0,0,1-2.71-.34,3.88,3.88,0,0,0-5.1.56,5.34,5.34,0,0,0-.35.48c-.25.52-.57,1-.81,1.52a16.52,16.52,0,0,0,1.4-1.1,3.65,3.65,0,0,1,1.31-.79,3,3,0,0,1,2.69.42,3.9,3.9,0,0,0,4.12.19,3.51,3.51,0,0,0,1.35-1.38c.27-.49.57-1,.81-1.51a11.57,11.57,0,0,0-1.43,1.1Zm19.38,57.21a3.36,3.36,0,0,1-1.29.84,3,3,0,0,1-2.69-.32,4.05,4.05,0,0,0-4.1-.31,3.51,3.51,0,0,0-1.38,1.35c-.27.51-.57,1-.81,1.5.49-.33.93-.72,1.38-1.09a3.42,3.42,0,0,1,1.3-.8,3,3,0,0,1,2.71.44,3.92,3.92,0,0,0,4.12.16,3.48,3.48,0,0,0,1.34-1.35c.27-.5.58-1,.81-1.51-.49.34-1,.7-1.43,1.09ZM604.59,376.75l-.43.08a3.58,3.58,0,0,0-3.14,2.44,3,3,0,0,0,0,1.84c.2.53.35,1.08.58,1.66.09-.57.09-1.12.14-1.66a3,3,0,0,1,.32-1.41,2.83,2.83,0,0,1,2.22-1.44,4.68,4.68,0,0,0,1.05-.3Zm-12.16,38.69c-.2-.53-.34-1.08-.58-1.66a6.58,6.58,0,0,1-.15,1.66,2.93,2.93,0,0,1-.25,1.43,2.79,2.79,0,0,1-2.16,1.5,3.55,3.55,0,0,0-3.14,2.44,2.87,2.87,0,0,0,0,1.83c.2.54.34,1.08.57,1.66.1-.56.1-1.1.15-1.66a2.82,2.82,0,0,1,.31-1.4,2.86,2.86,0,0,1,2.23-1.44,3.54,3.54,0,0,0,3.05-2.54A2.91,2.91,0,0,0,592.43,415.44ZM578.92,384.1a3.74,3.74,0,0,1-1.31.79,3.07,3.07,0,0,1-2.71-.43,3.86,3.86,0,0,0-3.43-.48,7.19,7.19,0,0,0,.23,1.14,2.81,2.81,0,0,1,2.29.44,3.91,3.91,0,0,0,4.1.28,3.27,3.27,0,0,0,1.38-1.35c.27-.49.59-1,.82-1.49a12.23,12.23,0,0,0-1.47,1.1Zm72.28,60a3.71,3.71,0,0,1-1.55-.28,2.64,2.64,0,0,1-1.58-2A3.58,3.58,0,0,0,644,439a4,4,0,0,0-.67.15,17.12,17.12,0,0,0-1.82.53c.62.08,1.22.08,1.82.12a3.76,3.76,0,0,1,1.56.24,2.57,2.57,0,0,1,1.65,2,3.52,3.52,0,0,0,2.67,2.85,4.06,4.06,0,0,0,2,0c.57-.18,1.16-.31,1.8-.54a12.08,12.08,0,0,0-1.9-.16ZM681,499.68a3.86,3.86,0,0,1-1.54-.28,2.64,2.64,0,0,1-1.58-2,3.6,3.6,0,0,0-4.11-2.82,3.71,3.71,0,0,0-.66.15,17.94,17.94,0,0,0-1.81.52,18.13,18.13,0,0,0,1.81.12,3.89,3.89,0,0,1,1.55.25,2.52,2.52,0,0,1,1.65,2,3.53,3.53,0,0,0,2.67,2.85,3.85,3.85,0,0,0,2,0c.58-.18,1.18-.31,1.82-.55a13.81,13.81,0,0,0-1.92-.16Zm21.17,9.23c-.19-.53-.34-1.08-.58-1.66a7.07,7.07,0,0,1-.13,1.66,3.2,3.2,0,0,1-.27,1.43,2.77,2.77,0,0,1-2.16,1.5,3.55,3.55,0,0,0-3.14,2.44,3,3,0,0,0,0,1.83c.2.54.35,1.06.6,1.66a7.69,7.69,0,0,1,.12-1.66,3,3,0,0,1,.32-1.41,2.81,2.81,0,0,1,2.24-1.43,3.57,3.57,0,0,0,3.06-2.54,3.07,3.07,0,0,0-.17-1.82Zm17.87-57a5.14,5.14,0,0,0-.2.55,2.9,2.9,0,0,0,0,1.84c.2.54.34,1.07.58,1.65a6.55,6.55,0,0,1,.15-1.65,2.81,2.81,0,0,1,.3-1.4,3,3,0,0,1,.57-.71Zm-43.23,2.5c-.2-.53-.35-1.07-.6-1.66a7.11,7.11,0,0,1-.13,1.66,2.89,2.89,0,0,1-.27,1.42,2.74,2.74,0,0,1-2.16,1.51,3.55,3.55,0,0,0-3.14,2.44,3,3,0,0,0,0,1.84c.2.53.35,1.06.6,1.65a7.6,7.6,0,0,1,.12-1.65,2.73,2.73,0,0,1,2.57-2.85,3.53,3.53,0,0,0,3-2.53,3.29,3.29,0,0,0,0-1.76Zm-17.52,58.77c-.2-.53-.35-1.06-.58-1.66-.09.57-.09,1.13-.14,1.66a3,3,0,0,1-.25,1.42,2.76,2.76,0,0,1-2.17,1.47h-.44l2.09.78a3.18,3.18,0,0,0,1.49-3.81Zm43.78-41.88a3.28,3.28,0,0,1-1.3.79,3.1,3.1,0,0,1-2.71-.42,3.92,3.92,0,0,0-4.12-.19,3.46,3.46,0,0,0-1.33,1.38c-.27.49-.57,1-.81,1.51.49-.36.93-.75,1.4-1.12a3.34,3.34,0,0,1,1.28-.83,2.93,2.93,0,0,1,2.69.34,3.91,3.91,0,0,0,4.1.28,3.25,3.25,0,0,0,1.38-1.34c.27-.5.58-1,.81-1.5-.44.37-.86.73-1.36,1.1ZM658,478.84a3.12,3.12,0,0,1-1.31.78,3,3,0,0,1-2.7-.41,3.9,3.9,0,0,0-4.12-.18,3.29,3.29,0,0,0-1.32,1.37c-.27.5-.59,1-.82,1.49.49-.33.92-.73,1.37-1.09a3.61,3.61,0,0,1,1.31-.83,3,3,0,0,1,2.69.31,3.89,3.89,0,0,0,4.1.3,3.25,3.25,0,0,0,1.38-1.34c.28-.5.58-1,.82-1.51-.49.35-.91.75-1.38,1.11Z" transform="translate(-245.09 -76.95)"/><path class="cls-7" d="M689.64,494.65c3.63-9,7.4-18.06,10.7-27.22,1.82-5.22,3.78-10.42,5.61-15.64,0-.2-.29-.34-.38-.13-4.09,8.92-8.14,17.9-11.76,27s-7.25,18.12-10.78,27.21q-3,7.77-5.44,15.69c0,.1.14.16.2,0C682.21,512.8,685.93,503.75,689.64,494.65Z" transform="translate(-245.09 -76.95)"/><path class="cls-17" d="M658.84,517.37l-3.14-1.15c-6-2.19-12.06-4.56-17.77-6.94-.74-.3-1.46-.6-2.17-.91-1.14-.49-2.3-1-3.41-1.48l-1.65-.75-.61-.26-1.81-.79c-2.26-1.06-4.41-2.12-6.4-3.16l-1.38-.75a49.79,49.79,0,0,1-8.73-5.73c-.25-.21-.49-.44-.7-.65l-.66-.63c-12.75-13.59-34.27-82.09-39.93-115.13a6.44,6.44,0,0,0-.2-1.15v-.24c-.37-2.51-.67-5.6-.86-8.95h0c-.28-16.35,8.28-18.69,18.41-11.12C611.66,409.54,647.74,495.29,658.84,517.37Z" transform="translate(-245.09 -76.95)"/><path class="cls-6" d="M630.73,537.34l-165.1.43c.13-3.31,23.58-97.83,42.35-132.87,24-44.93,36.29-48.53,43.71-51,9.41-3.1,26.24-1.56,30.31.16,4.52,1.92,18.92,24.85,24,41.77C616.35,429.79,633.06,535.32,630.73,537.34Z" transform="translate(-245.09 -76.95)"/><path class="cls-10" d="M569.54,524.37a3.12,3.12,0,0,1-1.31.78,3,3,0,0,1-2.7-.42,3.9,3.9,0,0,0-4.12-.18,3.46,3.46,0,0,0-1.33,1.38c-.27.49-.57,1-.81,1.5.49-.34.93-.74,1.4-1.11a3.34,3.34,0,0,1,1.28-.83,3,3,0,0,1,2.69.33,3.94,3.94,0,0,0,4.1.29,3.33,3.33,0,0,0,1.38-1.35c.27-.49.58-1,.81-1.48C570.48,523.61,570,524,569.54,524.37Zm23.8-46.25a3.12,3.12,0,0,1-1.31.78,3,3,0,0,1-2.7-.42,3.85,3.85,0,0,0-5.08.66,2.75,2.75,0,0,0-.36.53c-.27.52-.58,1-.81,1.51.48-.33.92-.73,1.37-1.09a3.76,3.76,0,0,1,1.3-.85,3,3,0,0,1,2.69.33,3.91,3.91,0,0,0,4.11.29,3.4,3.4,0,0,0,1.38-1.33c.27-.5.57-1,.81-1.51C594.28,477.37,593.81,477.69,593.34,478.12ZM516.76,493a3.39,3.39,0,0,1-1.31.79,3,3,0,0,1-2.7-.43,3.92,3.92,0,0,0-4.12-.17,3.4,3.4,0,0,0-1.34,1.37c-.28.5-.58,1-.82,1.5.51-.33.93-.73,1.4-1.09a3.63,3.63,0,0,1,1.29-.85,3,3,0,0,1,2.7.33,3.9,3.9,0,0,0,4.08.3,3.41,3.41,0,0,0,1.4-1.34c.25-.5.58-1,.82-1.51-.52.4-.94.77-1.4,1.14Zm24.58-62.59a3.12,3.12,0,0,1-1.31.78,2.94,2.94,0,0,1-2.69-.42,3.9,3.9,0,0,0-4.12-.17,3.4,3.4,0,0,0-1.35,1.36c-.27.51-.57,1-.82,1.51.52-.33.93-.73,1.41-1.09a3.68,3.68,0,0,1,1.28-.85,3.06,3.06,0,0,1,2.71.33,3.88,3.88,0,0,0,4.07.29,3.41,3.41,0,0,0,1.41-1.33c.25-.51.57-1,.81-1.52a17.22,17.22,0,0,0-1.4,1.16Zm-10.7-44.3a3.16,3.16,0,0,1-1.31.8,3,3,0,0,1-2.7-.43,3.94,3.94,0,0,0-4.12-.17,3.57,3.57,0,0,0-1.34,1.36c-.28.52-.58,1-.82,1.52.51-.34.93-.74,1.4-1.11a3.58,3.58,0,0,1,1.29-.83,3,3,0,0,1,2.7.33,3.9,3.9,0,0,0,4.08.29,3.54,3.54,0,0,0,1.4-1.34c.25-.5.58-1,.82-1.51-.51.41-.94.78-1.4,1.14Zm48.22-2a3.61,3.61,0,0,1-1.3.79,3.07,3.07,0,0,1-2.71-.43,3.9,3.9,0,0,0-4.12-.18,3.45,3.45,0,0,0-1.29,1.39c-.28.49-.59,1-.82,1.5.5-.35.92-.74,1.39-1.11a3.49,3.49,0,0,1,1.3-.83,3,3,0,0,1,2.67.34,3.93,3.93,0,0,0,4.11.28,3.25,3.25,0,0,0,1.38-1.34c.27-.5.58-1,.82-1.5l-1.45,1.1Zm-49.58,137c-.2-.53-.35-1.08-.59-1.66a6.65,6.65,0,0,1-.13,1.66,3,3,0,0,1-.26,1.42,2.8,2.8,0,0,1-2.16,1.51,3.55,3.55,0,0,0-3.13,2.43,2.9,2.9,0,0,0,0,1.84c.19.54.34,1.07.58,1.66.09-.56.09-1.11.15-1.66a2.7,2.7,0,0,1,2.55-2.85,3.52,3.52,0,0,0,3.05-2.52,3.08,3.08,0,0,0-.07-1.78Zm-18-111c-.2-.52-.35-1.07-.6-1.65-.09.56,0,1.11-.13,1.65a2.72,2.72,0,0,1-.27,1.43,2.76,2.76,0,0,1-2.16,1.51,3.55,3.55,0,0,0-3.13,2.43,2.9,2.9,0,0,0,0,1.84c.2.53.34,1.06.58,1.66a6.63,6.63,0,0,1,.15-1.66,2.72,2.72,0,0,1,2.54-2.85,3.49,3.49,0,0,0,3-2.54,3.07,3.07,0,0,0,0-1.8Zm81.17,5.26c-.2-.53-.34-1.08-.58-1.66a6.58,6.58,0,0,1-.15,1.66,2.93,2.93,0,0,1-.25,1.43,2.77,2.77,0,0,1-2.16,1.5,3.55,3.55,0,0,0-3.14,2.44,3,3,0,0,0,0,1.83c.2.54.35,1.08.58,1.66.09-.56.09-1.1.14-1.66a2.72,2.72,0,0,1,.32-1.4,2.83,2.83,0,0,1,2.22-1.44,3.54,3.54,0,0,0,3-2.54,2.92,2.92,0,0,0-.07-1.8ZM487.36,472c-.2-.53-.34-1.06-.57-1.66a6.58,6.58,0,0,1-.15,1.66,3.05,3.05,0,0,1-.25,1.43,2.77,2.77,0,0,1-2.16,1.5,4.11,4.11,0,0,0-2.36,1.12l-.82,2.74h0a2.64,2.64,0,0,0,.12.4c.19.53.34,1.08.57,1.66a5.78,5.78,0,0,1,.15-1.66,2.6,2.6,0,0,1,.31-1.39,2.81,2.81,0,0,1,2.23-1.46,3.54,3.54,0,0,0,3.05-2.53,2.92,2.92,0,0,0-.12-1.8ZM628.47,524.7c-.2-.52-.34-1-.57-1.64a12.8,12.8,0,0,0-.13,1.64,3.28,3.28,0,0,1-.27,1.45,2.82,2.82,0,0,1-2.16,1.51,3.4,3.4,0,0,0-3.22,3.6v.06a2.57,2.57,0,0,0,.14.61c.2.53.35,1,.6,1.66a15.26,15.26,0,0,0,.12-1.66,2.75,2.75,0,0,1,.32-1.4,2.81,2.81,0,0,1,2.25-1.45,3.37,3.37,0,0,0,3.14-3.62.49.49,0,0,0,0-.12,2.8,2.8,0,0,0-.23-.63ZM544.73,462c-.2-.53-.35-1.06-.6-1.66A7.69,7.69,0,0,1,544,462a2.92,2.92,0,0,1-.28,1.45,2.77,2.77,0,0,1-2.16,1.5,3.57,3.57,0,0,0-3.14,2.42,3,3,0,0,0,0,1.86c.2.52.35,1,.58,1.65a5.71,5.71,0,0,1,.15-1.65,2.53,2.53,0,0,1,.31-1.42,2.7,2.7,0,0,1,2.23-1.43,3.4,3.4,0,0,0,3-4.38Zm5-99.72c-.2-.53-.34-1.08-.6-1.66a7.07,7.07,0,0,1-.13,1.66,2.73,2.73,0,0,1-.27,1.43,2.77,2.77,0,0,1-2.15,1.5,3.55,3.55,0,0,0-3.14,2.44,2.9,2.9,0,0,0,0,1.84c.2.53.34,1.06.58,1.66.09-.57.09-1.11.13-1.66a2.73,2.73,0,0,1,2.56-2.85,3.49,3.49,0,0,0,3-2.54,3.13,3.13,0,0,0,0-1.82Zm66.77,79.27a3,3,0,0,1-2.6-.37,3.86,3.86,0,0,0-5.09.56,3.27,3.27,0,0,0-.35.48c-.26.52-.58,1-.81,1.52a16.37,16.37,0,0,0,1.39-1.1,3.65,3.65,0,0,1,1.31-.79,3.08,3.08,0,0,1,2.7.42,4,4,0,0,0,3.63.41,8.58,8.58,0,0,0-.18-1.13Zm5.06,27.69a11.92,11.92,0,0,0-1.2.37,9.36,9.36,0,0,0,1.3.1.72.72,0,0,1-.13-.47Zm-46-20.1a3.69,3.69,0,0,1-1.54-.28,2.59,2.59,0,0,1-1.57-2,3.59,3.59,0,0,0-4.1-2.82,3.84,3.84,0,0,0-.69.15c-.59.19-1.16.32-1.82.53a9.23,9.23,0,0,1,1.82.12,4.14,4.14,0,0,1,1.56.24,2.55,2.55,0,0,1,1.65,2,3.5,3.5,0,0,0,2.66,2.85,3.88,3.88,0,0,0,2,0c.59-.18,1.17-.32,1.82-.55a14.17,14.17,0,0,0-1.84-.19Zm-85.27,67.18a3.86,3.86,0,0,1-1.54-.28,2.58,2.58,0,0,1-1.58-2,3.56,3.56,0,0,0-4.09-2.82,3.84,3.84,0,0,0-.69.15c-.59.18-1.16.31-1.82.52.62.08,1.23.08,1.82.12a3.89,3.89,0,0,1,1.55.25,2.57,2.57,0,0,1,1.68,2,3.63,3.63,0,0,0,4.21,2.9,3.41,3.41,0,0,0,.46-.1c.58-.18,1.16-.31,1.82-.55-.62-.08-1.2-.08-1.83-.11Zm62.85-17a3.87,3.87,0,0,1-1.54-.29,2.55,2.55,0,0,1-1.58-2,3.47,3.47,0,0,0-2.78-2.79,4,4,0,0,0-2,.12,18.77,18.77,0,0,0-1.81.53c.62.08,1.23.08,1.81.12a3.88,3.88,0,0,1,1.58.24,2.6,2.6,0,0,1,1.65,2A3.42,3.42,0,0,0,551.1,500a3.85,3.85,0,0,0,2,0c.59-.18,1.16-.31,1.82-.54a6.7,6.7,0,0,0-1.84-.19ZM511,457.67a3.67,3.67,0,0,1-1.54-.28,2.55,2.55,0,0,1-1.58-2,3.45,3.45,0,0,0-2.78-2.78,3.74,3.74,0,0,0-2,.1c-.58.18-1.19.31-1.82.52.61.11,1.22.09,1.82.14a3.42,3.42,0,0,1,1.55.25,2.54,2.54,0,0,1,1.65,1.95,3.52,3.52,0,0,0,2.67,2.87,4.06,4.06,0,0,0,2,0c.58-.18,1.16-.31,1.82-.53a10.17,10.17,0,0,0-1.82-.22ZM574.6,352.73a3.86,3.86,0,0,0,3.83,1l.94-.28a45.44,45.44,0,0,0-4.77-.74Zm24.86,158.46a3.44,3.44,0,0,1-1.55-.34,2.54,2.54,0,0,1-1.59-2,3.46,3.46,0,0,0-2.78-2.78,4.24,4.24,0,0,0-2,.1c-.57.18-1.16.31-1.81.55a9.89,9.89,0,0,1,1.81.11,3.93,3.93,0,0,1,1.56.25,2.53,2.53,0,0,1,1.65,2,3.71,3.71,0,0,0,4.32,2.93,2.09,2.09,0,0,0,.36-.08c.59-.17,1.19-.31,1.82-.53a9.77,9.77,0,0,0-1.79-.16Zm-38.1-101a3.75,3.75,0,0,1-1.55-.29,2.6,2.6,0,0,1-1.58-2,3.44,3.44,0,0,0-2.77-2.79,4,4,0,0,0-2,.12c-.58.18-1.18.31-1.81.53.63.09,1.23.09,1.81.12a4.08,4.08,0,0,1,1.56.24,2.59,2.59,0,0,1,1.65,2,3.41,3.41,0,0,0,2.67,2.85,3.85,3.85,0,0,0,2,0c.57-.18,1.16-.31,1.8-.54a11.85,11.85,0,0,0-1.88-.18Z" transform="translate(-245.09 -76.95)"/><path class="cls-7" d="M582.89,390.54c1.13,11.83,2,23.66,2.83,35.49s1.49,23.69,2.23,35.48,1.23,23.69,1.71,35.56l.65,17.78c.15,5.93.37,11.86.42,17.79-.59-5.91-1.05-11.83-1.55-17.74l-1.3-17.75c-.83-11.85-1.47-23.68-2.21-35.51s-1.23-23.7-1.7-35.56S583,402.4,582.89,390.54Z" transform="translate(-245.09 -76.95)"/><path class="cls-7" d="M594.52,426.44a2.3,2.3,0,0,1-2.22,2.38h0a2.4,2.4,0,0,1-2.6-2,2.29,2.29,0,0,1,2.21-2.37h0A2.35,2.35,0,0,1,594.52,426.44Z" transform="translate(-245.09 -76.95)"/><path class="cls-7" d="M595.24,449.38a2.28,2.28,0,0,1-2.21,2.37h0a2.4,2.4,0,0,1-2.62-2,2.31,2.31,0,0,1,2.25-2.38h0a2.37,2.37,0,0,1,2.59,2.07Z" transform="translate(-245.09 -76.95)"/><path class="cls-7" d="M596.1,472.25a2.31,2.31,0,0,1-2.22,2.38h0a2.38,2.38,0,0,1-2.6-2,2.29,2.29,0,0,1,2.21-2.37h0A2.37,2.37,0,0,1,596.1,472.25Z" transform="translate(-245.09 -76.95)"/><path class="cls-7" d="M596.77,495.16a2.3,2.3,0,0,1-2.21,2.37h0a2.39,2.39,0,0,1-2.61-2.08,2.3,2.3,0,0,1,2.23-2.36h0a2.38,2.38,0,0,1,2.59,2Z" transform="translate(-245.09 -76.95)"/><path class="cls-7" d="M597.53,518.06a2.3,2.3,0,0,1-2.23,2.37h0a2.38,2.38,0,0,1-2.6-2A2.3,2.3,0,0,1,594.9,516h0a2.35,2.35,0,0,1,2.6,2Z" transform="translate(-245.09 -76.95)"/><path class="cls-6" d="M552.16,388.47c-14.52,26.95-65.44,84.74-84.46,97.06-11.56,7.47-47.17,5.84-47.56-15.27S525.87,364.37,543.06,357.08C561.28,349.29,567.94,359,552.16,388.47Z" transform="translate(-245.09 -76.95)"/><path class="cls-7" d="M482.87,472.85l14.18-15.72c4.73-5.24,9.49-10.45,14.13-15.73s9.35-10.54,14-15.84c2.32-2.65,4.64-5.31,6.91-8s4.54-5.37,6.88-8c-4,5.73-8.26,11.31-12.7,16.78s-9.08,10.8-13.72,16.11S503,452.88,498,458,488.13,468,482.87,472.85Z" transform="translate(-245.09 -76.95)"/><path class="cls-7" d="M525.87,425.8a58.57,58.57,0,0,1,10.54-9.26,52.86,52.86,0,0,1-10.54,9.26Z" transform="translate(-245.09 -76.95)"/><path class="cls-10" d="M439.16,444.06a3.21,3.21,0,0,1-1.3.78,3,3,0,0,1-1.33.12l-1,1.13a3.84,3.84,0,0,0,2.84-.29,3.22,3.22,0,0,0,1.38-1.33c.27-.51.59-1,.82-1.52C440.07,443.32,439.62,443.7,439.16,444.06Zm49.21-9.65a3.54,3.54,0,0,1-1.31.8,3.11,3.11,0,0,1-2.71-.44,3.86,3.86,0,0,0-5.08.66,2.18,2.18,0,0,0-.35.54c-.27.51-.59,1-.84,1.5.48-.34.95-.71,1.39-1.09a3.67,3.67,0,0,1,1.3-.85,3,3,0,0,1,2.69.33,3.92,3.92,0,0,0,4.1.31,3.41,3.41,0,0,0,1.39-1.35c.27-.51.59-1,.83-1.5C489.26,433.65,488.84,434.05,488.37,434.41Zm42.27-48.22a3.41,3.41,0,0,1-1.31.8,3,3,0,0,1-2.7-.43,3.92,3.92,0,0,0-4.12-.16,3.48,3.48,0,0,0-1.34,1.35c-.28.52-.58,1-.82,1.51.51-.33.93-.73,1.4-1.1a3.58,3.58,0,0,1,1.29-.83,3,3,0,0,1,2.7.33,3.92,3.92,0,0,0,4.08.29,3.54,3.54,0,0,0,1.4-1.34c.25-.5.58-1,.82-1.51C531.52,385.46,531.1,385.83,530.64,386.19Zm-77.23,95.55c-.19-.53-.34-1.07-.57-1.66a6.66,6.66,0,0,1-.14,1.66,2.93,2.93,0,0,1-.27,1.42,2.67,2.67,0,0,1-2.15,1.51,3.67,3.67,0,0,0-3.14,2.43,3.07,3.07,0,0,0,0,1.85l.17.49h.54v-.63a2.88,2.88,0,0,1,.31-1.41,2.83,2.83,0,0,1,2.25-1.44,3.37,3.37,0,0,0,3.15-3.62s0-.08,0-.12a2.88,2.88,0,0,0-.17-.64Zm2.69-56.34a7.66,7.66,0,0,0,.37,1q.09-.71.12-1.41Zm4.29-3.94a3.48,3.48,0,0,0,1.49-1.4c-.51.51-1.05,1-1.5,1.43Zm50.92-11.3c-.2-.53-.34-1.08-.6-1.65-.09.56,0,1.11-.13,1.65a2.72,2.72,0,0,1-.27,1.43,2.8,2.8,0,0,1-2.16,1.51,3.55,3.55,0,0,0-3.13,2.43,2.9,2.9,0,0,0,0,1.84c.2.53.34,1.06.58,1.66a6.63,6.63,0,0,1,.15-1.66,2.67,2.67,0,0,1,.3-1.41,2.81,2.81,0,0,1,2.24-1.44,3.49,3.49,0,0,0,3-2.54,3.1,3.1,0,0,0,0-1.76Zm38.39-48c-.2-.53-.34-1.08-.6-1.66a7.07,7.07,0,0,1-.13,1.66,2.73,2.73,0,0,1-.27,1.43,2.77,2.77,0,0,1-2.15,1.5,3.55,3.55,0,0,0-3.14,2.44,2.9,2.9,0,0,0,0,1.84c.2.53.34,1.06.58,1.66.09-.57.09-1.11.13-1.66a2.82,2.82,0,0,1,.32-1.42,2.79,2.79,0,0,1,2.24-1.43,3.49,3.49,0,0,0,3-2.54,3.14,3.14,0,0,0,0-1.77ZM421.14,471.1a3.16,3.16,0,0,1-.92-.08,6.61,6.61,0,0,0,0,.89,4.27,4.27,0,0,0,.94-.14c.58-.2,1.18-.33,1.82-.54a9.07,9.07,0,0,0-1.87-.14Zm41.05-8.46a3.51,3.51,0,0,1-1.53-.29,2.57,2.57,0,0,1-1.58-2,3.44,3.44,0,0,0-2.78-2.78,3.92,3.92,0,0,0-2,.1c-.58.18-1.16.32-1.82.53a8.54,8.54,0,0,1,1.82.13,4,4,0,0,1,1.56.23,2.57,2.57,0,0,1,1.65,2,3.43,3.43,0,0,0,2.67,2.86,3.85,3.85,0,0,0,2,0c.59-.19,1.17-.32,1.82-.53a7.4,7.4,0,0,0-1.82-.25Zm22.38-59.55a3.52,3.52,0,0,1-1.54-.29,2.46,2.46,0,0,1-.72-.46l-1,.83a3.48,3.48,0,0,0,1.31.64,4,4,0,0,0,2,0c.58-.19,1.16-.33,1.81-.55a7.17,7.17,0,0,0-1.9-.23Zm16.83,50.16H502l.34-.38Z" transform="translate(-245.09 -76.95)"/><path class="cls-19" d="M584.71,388.26c-9.71,1.55-25.09-13.48-30.85-25.28-.4-.81,1.41-8.91,3.14-18.87,1-6.06,2-12.81,2.42-19,0-1.28,40.1,12.08,40.1,12.08a95.61,95.61,0,0,0-5.6,23.66,14.62,14.62,0,0,0,.1,2.56v.43C594.57,368.76,594.06,386.7,584.71,388.26Z" transform="translate(-245.09 -76.95)"/><path class="cls-7" d="M562,325.46c1.16,10.64,6.22,36.45,27.92,38.35a24.31,24.31,0,0,0,4.18,0,3.08,3.08,0,0,0,0-.43,12.68,12.68,0,0,1-.1-2.54,95.78,95.78,0,0,1,5.61-23.68S570.7,327.56,562,325.46Z" transform="translate(-245.09 -76.95)"/><path class="cls-19" d="M567.07,274.28c-8.42,12-13.24,52.58-6.1,64,10.37,16.57,33.38,24.54,49.57,11.27,15.67-12.86,21-65.71,12.46-76.69C610.41,256.65,579.53,256.49,567.07,274.28Z" transform="translate(-245.09 -76.95)"/><path class="cls-7" d="M598.86,309.11c0-.12-.24.11-.26.21-.13,2.75-.77,5.87-3.43,6.63-.08,0-.08.17,0,.15C598.37,315.87,599.16,311.72,598.86,309.11Z" transform="translate(-245.09 -76.95)"/><path class="cls-7" d="M596.53,306c-4.55-.68-5.66,8.09-1.43,8.75S600.36,306.63,596.53,306Z" transform="translate(-245.09 -76.95)"/><path class="cls-7" d="M614.75,311c0-.12.2.15.19.27-.42,2.7-.44,5.88,2,7.07v.16C613.83,317.74,613.9,313.53,614.75,311Z" transform="translate(-245.09 -76.95)"/><path class="cls-7" d="M617.65,308.47c4.61.19,3.87,9-.41,8.84S613.79,308.31,617.65,308.47Z" transform="translate(-245.09 -76.95)"/><path class="cls-14" d="M593.17,298.61a32.11,32.11,0,0,0,3.8-.15,6.58,6.58,0,0,0,3.84-.86,1.85,1.85,0,0,0,.39-2.28,5,5,0,0,0-4.52-1.82,7.39,7.39,0,0,0-4.82,1.66,1.9,1.9,0,0,0-.11,2.76l.11.1A2.35,2.35,0,0,0,593.17,298.61Z" transform="translate(-245.09 -76.95)"/><path class="cls-14" d="M622.66,302.53c-1.2-.38-2.38-.83-3.53-1.32a6.25,6.25,0,0,1-3.33-2,1.83,1.83,0,0,1,.4-2.27,5.06,5.06,0,0,1,4.9-.31,7.16,7.16,0,0,1,4,3.09,1.89,1.89,0,0,1-.82,2.6l-.13.06A2.38,2.38,0,0,1,622.66,302.53Z" transform="translate(-245.09 -76.95)"/><path class="cls-7" d="M590.93,333.87c.59.72,1.16,1.66,2.17,1.88a7.94,7.94,0,0,0,3.14-.33.09.09,0,0,1,0,.11l0,0h0a3.93,3.93,0,0,1-3.79,1.06,2.91,2.91,0,0,1-1.92-2.67A.3.3,0,0,1,590.93,333.87Z" transform="translate(-245.09 -76.95)"/><path class="cls-7" d="M594.94,326a9.65,9.65,0,0,0,5.93,5,13.1,13.1,0,0,0,3.47.55,3.75,3.75,0,0,0,.67,0h.63a.67.67,0,0,0,.65-.55h0a1.31,1.31,0,0,0,0-.28h0v-.25c.34-2.09.51-5.3.51-5.3.77.47,4.61,2.7,4.69,1.66.57-9.15,1.21-19.3-.22-28.53a.29.29,0,0,0-.34-.17.27.27,0,0,0-.19.17c-.93,8.77-.22,17.64-1,26.51a17.7,17.7,0,0,0-4.39-1.85c-.33,0-.25,6.21-.47,7.14v.1c-3.74,0-6.37-1.36-9.65-4.12C595,325.67,594.79,325.82,594.94,326Z" transform="translate(-245.09 -76.95)"/><path class="cls-7" d="M603.18,330.26a11.64,11.64,0,0,1-5,2.88A5.34,5.34,0,0,1,595,333c-2.19-.85-2-2.85-1.38-4.51A12.54,12.54,0,0,1,595,326,15.32,15.32,0,0,0,603.18,330.26Z" transform="translate(-245.09 -76.95)"/><path class="cls-15" d="M598.15,333.16A5.34,5.34,0,0,1,595,333c-2.19-.85-2-2.85-1.38-4.51A5.15,5.15,0,0,1,598.15,333.16Z" transform="translate(-245.09 -76.95)"/><g class="cls-20"><path d="M607.8,289.77a36.86,36.86,0,0,0,4.55.86c1.56.14,3.14,0,4.71.17a27,27,0,0,1,8.36,2.73c.24.1.19.26,0,.15a23.4,23.4,0,0,0-8.94-2.25,30.57,30.57,0,0,1-7.62-.81c-5.66-1.48-11.43-2.27-17.13-.44h0A29.94,29.94,0,0,1,607.8,289.77Z" transform="translate(-245.09 -76.95)"/><path d="M608.28,286a36.5,36.5,0,0,0,4.29.83c1.49.13,3,0,4.47.14a25.19,25.19,0,0,1,7.89,2.61c.24.09.17.22,0,.13a22.47,22.47,0,0,0-8.46-2.09,27.63,27.63,0,0,1-7.25-.76c-5.35-1.41-10.88-2.15-16.23-.43h0A29,29,0,0,1,608.28,286Z" transform="translate(-245.09 -76.95)"/></g><path class="cls-14" d="M627.79,289C611.07,295.55,594,277.92,594,277.92a17.11,17.11,0,0,1-18.25,6.27s-7.89,22.24-14.52,21c-10-1.91-6.27-33.46-1.81-39s13.42-5.5,13.42-5.5,1.67-4.61,8.8-7.79c7.89-3.51,30.06,7.25,30.06,7.25a21.74,21.74,0,0,1,7.7-6.33,6.62,6.62,0,0,1,8.59,2.12c.06.09.1.17.16.27a13.45,13.45,0,0,0-3.63,5.14c-2.64,6.45,3.31,7.52,4.59,1.5a8.84,8.84,0,0,0-.94-6.63c3.8-3.41,8.88-3.82,11.34-1.16C643.87,259.81,641.73,283.64,627.79,289Z" transform="translate(-245.09 -76.95)"/><path class="cls-8" d="M589.3,322.86c-6.77-1.71-10.74-8.09-8.87-14.26s8.87-9.8,15.62-8.09A11.78,11.78,0,0,1,605.37,312h0c-.18,6.4-6,11.47-13,11.31A14.85,14.85,0,0,1,589.3,322.86Zm6.36-20.76a11.13,11.13,0,0,0-13.52,7,9.93,9.93,0,0,0,7.22,12.25l.4.1a11.15,11.15,0,0,0,13.52-7,8.94,8.94,0,0,0,.4-2.41,10.07,10.07,0,0,0-8-9.94Z" transform="translate(-245.09 -76.95)"/><path class="cls-8" d="M618.05,326.84c-4.68-1.2-7.57-6.64-6.55-12.61a13.33,13.33,0,0,1,4-7.62,8.41,8.41,0,0,1,11.14-.84,7.15,7.15,0,0,1,2.21,2.76,12.87,12.87,0,0,1,1.27,8.37c-1,6.31-6.15,10.83-11.28,10.11Zm5.1-21-.62-.11a7.05,7.05,0,0,0-5.81,2,12,12,0,0,0-3.62,6.76c-.92,5.47,1.81,10.4,5.95,11s8.37-3.31,9.34-8.79a11.26,11.26,0,0,0-1-7.45A6.88,6.88,0,0,0,623.15,305.82Z" transform="translate(-245.09 -76.95)"/><path class="cls-8" d="M604.73,313.24l-.88-1.34c2.16-1.17,6.87-2.49,9.4.93l-1.42.86C609.59,310.62,605,313.14,604.73,313.24Z" transform="translate(-245.09 -76.95)"/><path class="cls-8" d="M548.44,308.18l-1.36-.91c.47-.58,4.68-5.68,8.51-5.7s25.69,5.12,26.61,5.34l-.42,1.5c-6.27-1.47-23.42-5.31-26.19-5.3S549.58,306.77,548.44,308.18Z" transform="translate(-245.09 -76.95)"/><path class="cls-19" d="M565.75,308s-5.45-14.91-12.26-13.42-5.29,21.54.92,25.8a7.56,7.56,0,0,0,10-.52,6.55,6.55,0,0,0,.49-.56Z" transform="translate(-245.09 -76.95)"/><path class="cls-7" d="M554.06,300.33c-.1,0-.17.1,0,.16,4.32,3.2,5.6,8.29,6.08,13.25-.93-2.11-2.63-3.59-5.44-2.58-.17,0,0,.27,0,.29a4.52,4.52,0,0,1,4.35,2.73,20.31,20.31,0,0,1,1.2,4.33c.1.47.94.46.92,0v-.13C562.93,312.32,560.55,302.71,554.06,300.33Z" transform="translate(-245.09 -76.95)"/><path class="cls-6" d="M594,363.23l-12,22-26.75-31.77L545.82,362s24.32,48.83,24.71,46.78l11.91-18.86L595.24,405l2.42-34.65Z" transform="translate(-245.09 -76.95)"/><path class="cls-19" d="M463,327.17c8.18-15.79,21.24-37.41,29.37-40.33,8.53-3.11,39-13,46.88-13.25s35.34,8.58,40.1,13.25c3.82,3.81-3.63,12.13-19.46,10.11-14.78-1.87-18.13-3-22.52-2.57s-17.64,9.18-16.86,14.91c.47,3.43,8.78,9.67,15.53,8.92s11.14-6.53,19.63-9.62,20.2.93,20,4S571,316,561.41,324.23c-6.14,5.3-10.88,16.17-23.58,24.65-6.39,4.26-19.28,16.8-19.28,16.8Z" transform="translate(-245.09 -76.95)"/><path class="cls-19" d="M492.41,286.84c8.58-6.62,28.41-17.19,44.74-18.2,11-.64,39.72,24.16,36.73,29.82s-8.82,4-17.08.59c-3-1.24-17.68-11.43-21.57-9.05-5.61,3.32-16.09,17.46-16.09,17.46Z" transform="translate(-245.09 -76.95)"/><path class="cls-7" d="M573.82,295.94c-2-7.54-10.05-13.56-18.29-18.86-.12-.08-.27.1-.14.19,2.09,1.34,14.85,11.9,18.3,18.73C573.73,296.09,573.84,296,573.82,295.94Z" transform="translate(-245.09 -76.95)"/><path class="cls-19" d="M492.41,286.84c8.58-6.62,28.41-17.19,44.74-18.2,11-.64,31.21,26.36,28.22,32s-11.5,3.71-19.7-1.84c-2.66-1.81-10.46-11.07-14.3-8.72-5.63,3.32-19.38,11.85-19.38,11.85Z" transform="translate(-245.09 -76.95)"/><path class="cls-7" d="M520.06,296.62c1.38-1,1.82-1.41,3.25-2.42s2.79-2,4.24-2.92a14.23,14.23,0,0,1,4.05-2,7.6,7.6,0,0,1,4.32.43c3.13,1.19,5.34,3.86,7.56,6.07s7.86,6.81,12.82,7.72a10.83,10.83,0,0,0,4.09.15,6.87,6.87,0,0,0,2.85-1c3.13-2.64,1.82-7.08.09-10.42a59.26,59.26,0,0,0-14.2-16.45c-1.35-1.18-2.71-2.31-4.09-3.45a14.94,14.94,0,0,0-5.29-3.18c-3.32-1-9.86.54-11.87,1-.15,0-.18-.18,0-.21,2.45-.58,8.84-2.92,14.14-1.13a18.33,18.33,0,0,1,5,3.31c1.61,1.28,3.18,2.61,4.71,4a75.88,75.88,0,0,1,8.36,8.46,30.23,30.23,0,0,1,5.9,9.65,8.39,8.39,0,0,1-2.43,8.93,9.24,9.24,0,0,1-7.05,1.21,18.17,18.17,0,0,1-4.18-1.25A74.23,74.23,0,0,1,544,298c-2.56-1.91-4.55-4.44-7.25-6.14a6.29,6.29,0,0,0-4.45-1,16.45,16.45,0,0,0-4.18,1.78,48.1,48.1,0,0,0-7.46,4.32C519.9,297.36,519.49,297.13,520.06,296.62Z" transform="translate(-245.09 -76.95)"/><path class="cls-19" d="M485.66,292.8c3.47-3.31,12.54-18.45,17.71-22.43S530,253.81,537,256.56c8.85,3.56-5.89,15.88-12.82,20.73s-9.74,15.6-9.74,15.6Z" transform="translate(-245.09 -76.95)"/><path class="cls-7" d="M534.41,269c-2.37,1.49-4.64,3.32-6.84,5a55.53,55.53,0,0,0-6.27,5,23.43,23.43,0,0,0-4.18,6.36c-.51,1.16-1,2.3-1.36,3.45s-.76,2.61-1.23,3.86c0,.13.16.21.22,0a53.42,53.42,0,0,1,3.36-6.62,31.24,31.24,0,0,1,4.69-6.25c3.62-3.76,8.11-6.77,11.8-10.5C534.83,269,534.6,268.8,534.41,269Z" transform="translate(-245.09 -76.95)"/><path class="cls-7" d="M532.73,318.17a12.87,12.87,0,0,0,8.6-2.2c2.27-1.4,4.46-2.93,6.74-4.31a29.62,29.62,0,0,1,7.32-3.47,36.28,36.28,0,0,1,9.06-.94,19.38,19.38,0,0,1,8.64,1.66c2.18,1.07,4.37,3.32,3,5.7a10.34,10.34,0,0,1-2.66,2.78,27,27,0,0,1-3.23,2.14c-2.27,1.34-4.66,2.5-6.78,4a40.28,40.28,0,0,0-7,7.56c-.79,1-5.94,7.63-7.89,9.94a41.31,41.31,0,0,1-5.44,5.3,63.76,63.76,0,0,1-6.1,4,36.92,36.92,0,0,0-6.38,4.69s-.22,0-.16-.13c2.55-3.74,6.86-6.11,10.78-8.48,5.08-3,16.9-19.6,19-21.82,3.5-3.7,8.56-5.3,12.54-8.48.89-.73,2.27-1.77,2.32-3a3.47,3.47,0,0,0-2.09-2.7,16.33,16.33,0,0,0-8.48-1.33,42.87,42.87,0,0,0-8.75.89,29.79,29.79,0,0,0-7.1,3c-2.54,1.42-5,2.92-7.62,4.17a13,13,0,0,1-8.36,1.3C532.6,318.33,532.6,318.15,532.73,318.17Z" transform="translate(-245.09 -76.95)"/><path class="cls-7" d="M574.87,284.67c-1.92-1-3.81-2-5.74-2.95h0c2.33,1,4.71,1.79,7,2.73a7.34,7.34,0,0,1,4.41,3.65,4.7,4.7,0,0,1-1.4,4.87,15.16,15.16,0,0,1-5.33,2.95m0-.15c2.92-1.36,7.51-4.19,5.44-7.75a9.91,9.91,0,0,0-4.41-3.35Z" transform="translate(-245.09 -76.95)"/><path class="cls-7" d="M564.34,301.54a13.24,13.24,0,0,0,6.74-.75,4.78,4.78,0,0,0,2.09-1.81,4.22,4.22,0,0,0,.52-1.37,2.1,2.1,0,0,0-.13-1.48c-.09-.11.13-.19.15,0a6.38,6.38,0,0,0,.33.82,3.4,3.4,0,0,1,.12.71,3,3,0,0,1-.22,1.42,4.6,4.6,0,0,1-2.09,2.41,9.17,9.17,0,0,1-7.55.28C564.21,301.67,564.21,301.54,564.34,301.54Z" transform="translate(-245.09 -76.95)"/><path class="cls-19" d="M518.4,365.88c-5.79,15.82-47.76,99.68-58.79,111.21s-36.14,13-41.87-9.18,36.72-124.78,45.35-140.78C467.85,318.28,520.5,360.09,518.4,365.88Z" transform="translate(-245.09 -76.95)"/><path class="cls-6" d="M525.87,377.08,455.4,335.14s-36.67,95.89-39,125.91c-1.65,21.54,25.72,39,49.76,10.94S525.87,377.08,525.87,377.08Z" transform="translate(-245.09 -76.95)"/><path class="cls-10" d="M439.16,444.06a3.21,3.21,0,0,1-1.3.78,3,3,0,0,1-2.71-.41,3.92,3.92,0,0,0-4.18-.18,3.46,3.46,0,0,0-1.34,1.37c-.27.5-.58,1-.81,1.5.5-.34.92-.73,1.39-1.09a3.3,3.3,0,0,1,1.3-.83,3,3,0,0,1,2.69.31,3.92,3.92,0,0,0,4.09.29,3.34,3.34,0,0,0,1.38-1.33c.27-.51.57-1,.81-1.52C440.07,443.32,439.62,443.7,439.16,444.06ZM485,357.27a3.22,3.22,0,0,1-1.29.78,3,3,0,0,1-2.71-.42,3.94,3.94,0,0,0-4.12-.18,3.5,3.5,0,0,0-1.33,1.37c-.27.5-.57,1-.81,1.5.49-.33.93-.73,1.38-1.09a3.25,3.25,0,0,1,1.31-.84,3,3,0,0,1,2.69.31,3.92,3.92,0,0,0,4.1.3,3.42,3.42,0,0,0,1.38-1.34c.27-.5.58-1,.81-1.51a15.05,15.05,0,0,0-1.41,1.12Zm-24.89,26.86a3.61,3.61,0,0,1-1.3.79,3.07,3.07,0,0,1-2.71-.43,3.92,3.92,0,0,0-4.12-.18,3.41,3.41,0,0,0-1.31,1.38c-.28.49-.61,1-.84,1.5.5-.35.92-.74,1.4-1.11a3.58,3.58,0,0,1,1.29-.83,2.93,2.93,0,0,1,2.69.34,3.94,3.94,0,0,0,4.09.28,3.31,3.31,0,0,0,1.4-1.35c.27-.49.57-1,.82-1.49C461,383.36,460.61,383.76,460.13,384.13Zm28.23,50.28a3.54,3.54,0,0,1-1.31.8,3.11,3.11,0,0,1-2.71-.44,3.86,3.86,0,0,0-5.08.66,2.18,2.18,0,0,0-.35.54c-.27.51-.59,1-.84,1.5.48-.34.95-.71,1.39-1.09a3.67,3.67,0,0,1,1.3-.85,3,3,0,0,1,2.69.33,3.92,3.92,0,0,0,4.1.31,3.44,3.44,0,0,0,1.4-1.35c.27-.51.59-1,.83-1.5-.52.33-.94.73-1.41,1.09Zm11.88-62.21c-.19-.54-.34-1.06-.58-1.66a7.7,7.7,0,0,1-.13,1.66,3.27,3.27,0,0,1-.27,1.44,2.77,2.77,0,0,1-2.15,1.5,3.42,3.42,0,0,0-3.22,3.61v.05a3.25,3.25,0,0,0,.13.62c.2.54.35,1.06.6,1.66a6.57,6.57,0,0,1,.13-1.66,2.88,2.88,0,0,1,.31-1.41,2.79,2.79,0,0,1,2.24-1.42,3.3,3.3,0,0,0,3.13-3.48,3.1,3.1,0,0,0-.2-.89ZM453.41,481.74c-.19-.53-.34-1.07-.57-1.66a6.66,6.66,0,0,1-.14,1.66,2.93,2.93,0,0,1-.27,1.42h0l1.2-.63A2.45,2.45,0,0,0,453.41,481.74Zm8.68-64.2c-.2-.53-.35-1.07-.59-1.66a6.22,6.22,0,0,1-.14,1.66,3,3,0,0,1-.25,1.42,2.74,2.74,0,0,1-2.17,1.51,3.51,3.51,0,0,0-3.13,2.59,2.9,2.9,0,0,0,0,1.84c.2.52.34,1.07.57,1.65.12-.56,0-1.11.15-1.65a2.93,2.93,0,0,1,.31-1.4,2.85,2.85,0,0,1,2.25-1.46,3.38,3.38,0,0,0,3.09-3.68v-.07a3.1,3.1,0,0,0-.15-.6Zm-41,53.58a3.4,3.4,0,0,1-1.52-.28,2.58,2.58,0,0,1-1.58-2,3.29,3.29,0,0,0-1.35-2.14,24.49,24.49,0,0,0,1.16,4.53h0a3.43,3.43,0,0,0,1.35.64,3.81,3.81,0,0,0,2,0c.58-.18,1.18-.32,1.82-.53a6.77,6.77,0,0,0-1.9-.22Zm41.05-8.46a3.48,3.48,0,0,1-1.53-.29,2.57,2.57,0,0,1-1.58-2,3.46,3.46,0,0,0-2.78-2.78,3.92,3.92,0,0,0-2,.1c-.58.18-1.16.32-1.82.53a8.54,8.54,0,0,1,1.82.13,4,4,0,0,1,1.56.23,2.57,2.57,0,0,1,1.65,2,3.41,3.41,0,0,0,2.67,2.86,3.85,3.85,0,0,0,2,0c.59-.19,1.17-.32,1.82-.53a7.4,7.4,0,0,0-1.82-.25ZM448.43,361.42a3.6,3.6,0,0,1-1.52-.28,3.27,3.27,0,0,1-.88-.6c-.15.42-.3.81-.45,1.23a3.15,3.15,0,0,0,.92.36,3.85,3.85,0,0,0,2,0c.59-.18,1.18-.31,1.82-.52a8.21,8.21,0,0,0-1.91-.26Zm-12,45.74a3.38,3.38,0,0,1-1.54-.28,2.62,2.62,0,0,1-1.58-2,3.3,3.3,0,0,0-1.69-2.37c-.12.44-.27.86-.4,1.3a2.25,2.25,0,0,1,.62,1.26,3.4,3.4,0,0,0,2.64,2.88,3.75,3.75,0,0,0,2.1,0c.57-.18,1.16-.31,1.8-.53a13.66,13.66,0,0,0-1.95-.23ZM484.62,403a3.82,3.82,0,0,1-1.53-.29,2.62,2.62,0,0,1-1.58-2,3.6,3.6,0,0,0-4.06-2.88,3.71,3.71,0,0,0-.66.15c-.58.18-1.19.32-1.81.53a9.18,9.18,0,0,1,1.81.12,4.14,4.14,0,0,1,1.56.24,2.55,2.55,0,0,1,1.64,2,3.51,3.51,0,0,0,2.68,2.85,3.81,3.81,0,0,0,2,0c.58-.18,1.16-.31,1.82-.54a12.21,12.21,0,0,0-1.91-.16Z" transform="translate(-245.09 -76.95)"/><path class="cls-7" d="M515.25,388.44c-10.68-5.94-53.41-31.67-62.36-37.74-.59-.44-.45-.88.24-.52,32.53,17,52.2,31.47,62.38,37.85C515.76,388.26,515.52,388.58,515.25,388.44Z" transform="translate(-245.09 -76.95)"/><path class="cls-7" d="M489.06,439c8.43-12.8,16.56-25.75,24-39.07,2.09-3.72,4.09-7.45,6.09-11.22s3.86-7.24,5.6-10.93c-1.47-1-7.91-5.36-8.6-6a.27.27,0,0,1,.07-.38h0a.36.36,0,0,1,.25,0c.87.35,8.37,4.82,10,6.07.21.17-3.53,7.34-5.23,10.77S517.78,395,516,398.44c-3.62,6.72-7.31,13.35-11.23,19.88q-6.36,10.6-13.25,20.86C487.48,445,478.17,455.45,489.06,439Z" transform="translate(-245.09 -76.95)"/></g><g id="freepik--Device--inject-46"><rect class="cls-13" x="421.87" y="459.3" width="147.84" height="6.59"/><polygon class="cls-7" points="569.72 459.3 569.72 465.89 469.21 465.89 474.29 459.3 569.72 459.3"/><polygon class="cls-13" points="480.65 465.89 624.75 465.89 636.75 368.43 492.65 368.43 480.65 465.89"/><path class="cls-10" d="M795,494.12a8.57,8.57,0,0,0,8.36,8.73h.22a8.93,8.93,0,0,0,8.93-8.73,8.58,8.58,0,0,0-8.36-8.75H804A9,9,0,0,0,795,494.12Z" transform="translate(-245.09 -76.95)"/></g><g id="freepik--Cloud--inject-46"><polygon class="cls-21" points="732.83 401.36 658.29 420.78 633.25 325.48 688.62 311.05 707.82 306.07 712.57 324.23 732.83 401.36"/><polygon class="cls-22" points="706.12 326.16 645.4 341.96 644.75 339.51 705.48 323.7 706.12 326.16"/><polygon class="cls-22" points="707.74 332.35 647.01 348.16 646.37 345.71 707.09 329.9 707.74 332.35"/><polygon class="cls-22" points="708.92 336.27 648.03 351.9 647.4 349.43 708.28 333.81 708.92 336.27"/><polygon class="cls-22" points="710.98 344.69 650.25 360.49 649.6 358.05 710.33 342.23 710.98 344.69"/><polygon class="cls-22" points="712.6 350.86 651.88 366.67 651.23 364.21 711.96 348.41 712.6 350.86"/><polygon class="cls-22" points="714.23 357.04 653.5 372.85 652.86 370.39 713.59 354.59 714.23 357.04"/><polygon class="cls-22" points="715.47 360.88 654.58 376.5 653.95 374.04 714.83 358.42 715.47 360.88"/><polygon class="cls-22" points="717.47 369.41 656.75 385.21 656.1 382.76 716.83 366.95 717.47 369.41"/><polygon class="cls-22" points="718.74 373.2 657.86 388.83 657.22 386.38 718.1 370.74 718.74 373.2"/><polygon class="cls-22" points="720.71 381.75 659.99 397.57 659.34 395.12 720.07 379.31 720.71 381.75"/><polygon class="cls-22" points="722 385.51 661.12 401.15 660.49 398.68 721.37 383.06 722 385.51"/><polygon class="cls-22" points="723.64 391.65 662.77 407.28 662.13 404.82 723.01 389.2 723.64 391.65"/><polygon class="cls-21" points="752.63 428.87 675.69 433.13 670.17 334.79 727.29 331.62 748.15 349.24 752.63 428.87"/><polygon class="cls-22" points="727.29 331.62 748.15 349.24 728.35 350.35 727.29 331.62"/><polygon class="cls-22" points="721.54 350.99 678.77 353.37 678.63 350.84 721.4 348.45 721.54 350.99"/><polygon class="cls-22" points="721.9 357.36 679.13 359.74 678.99 357.21 721.75 354.83 721.9 357.36"/><polygon class="cls-22" points="722.25 363.75 679.48 366.13 679.35 363.61 722.12 361.22 722.25 363.75"/><polygon class="cls-22" points="742.51 369 679.84 372.49 679.7 369.96 742.36 366.47 742.51 369"/><polygon class="cls-22" points="742.85 375.39 680.18 378.88 680.04 376.35 742.71 372.86 742.85 375.39"/><polygon class="cls-22" points="743.22 381.76 680.56 385.25 680.41 382.73 743.09 379.24 743.22 381.76"/><polygon class="cls-22" points="743.57 388.12 680.9 391.61 680.76 389.08 743.42 385.6 743.57 388.12"/><polygon class="cls-22" points="743.94 394.5 681.27 397.99 681.13 395.45 743.8 391.97 743.94 394.5"/><polygon class="cls-22" points="744.29 400.89 681.61 404.38 681.48 401.85 744.14 398.36 744.29 400.89"/><polygon class="cls-22" points="744.66 407.26 681.99 410.75 681.86 408.22 744.52 404.74 744.66 407.26"/><polygon class="cls-22" points="745.02 413.62 682.35 417.11 682.21 414.58 744.87 411.09 745.02 413.62"/><polygon class="cls-22" points="745.37 420 682.71 423.49 682.57 420.96 745.24 417.47 745.37 420"/><path class="cls-23" d="M900.25,567.74a25.46,25.46,0,0,0,23.61,25.34H1068.3a29.86,29.86,0,1,0,2.82-59.65,50.53,50.53,0,0,0-97.87-15.73A30,30,0,0,0,933,531a29.67,29.67,0,0,0-3.14,11.6,25.54,25.54,0,0,0-29.69,25.06Z" transform="translate(-245.09 -76.95)"/><path class="cls-24" d="M900.25,567.74a25.46,25.46,0,0,0,23.61,25.34H1068.3a29.86,29.86,0,1,0,2.82-59.65,50.53,50.53,0,0,0-97.87-15.73A30,30,0,0,0,933,531a29.67,29.67,0,0,0-3.14,11.6,25.54,25.54,0,0,0-29.69,25.06Z" transform="translate(-245.09 -76.95)"/><path class="cls-23" d="M891.3,567.74a25.46,25.46,0,0,0,23.64,25.34h144.44a29.86,29.86,0,1,0,2.83-59.65,50.55,50.55,0,0,0-97.9-15.73,29.93,29.93,0,0,0-43.25,24.85,25.63,25.63,0,0,0-29.79,24.94Z" transform="translate(-245.09 -76.95)"/><rect class="cls-5" x="733.2" y="472.76" width="26.07" height="22.28"/><polygon class="cls-5" points="724.25 472.76 768.22 472.76 746.23 450.92 724.25 472.76"/><rect class="cls-25" x="538.58" y="474.35" width="1.66" height="3.32"/><rect class="cls-25" x="538.58" y="483.09" width="1.66" height="7.22"/><polygon class="cls-25" points="542.74 499.87 538.58 499.87 538.58 495.73 540.25 495.73 540.25 498.21 542.74 498.21 542.74 499.87"/><path class="cls-25" d="M866.55,576.82H860v-1.66h6.44Zm-11.25,0h-6.44v-1.66h6.44Zm-11.25,0h-6.44v-1.66h6.44Zm-11.24,0h-6.44v-1.66h6.47Zm-11.24,0h-6.44v-1.66h6.44Zm-11.25,0H803.9v-1.66h6.42Zm-11.24,0h-6.43v-1.66h6.43Z" transform="translate(-245.09 -76.95)"/><rect class="cls-25" x="626.27" y="498.21" width="3.32" height="1.66"/><ellipse class="cls-25" cx="539.42" cy="474.53" rx="3.13" ry="3.11"/><ellipse class="cls-25" cx="629.45" cy="499.04" rx="3.13" ry="3.11"/><rect class="cls-25" x="859.33" y="462.53" width="3.32" height="1.66"/><path class="cls-25" d="M1197,541.13h-6.38v-1.66H1197Zm-11.16,0h-6.38v-1.66h6.38Zm-11.16,0h-6.36v-1.66h6.33Zm-11.14,0h-6.38v-1.66h6.38Zm-11.16,0H1146v-1.66h6.37Zm-11.14,0h-6.38v-1.66h6.35Zm-11.17,0h-6.37v-1.66h6.37Zm-11.14,0h-6.37v-1.66h6.37Z" transform="translate(-245.09 -76.95)"/><polygon class="cls-25" points="960.82 466.67 959.16 466.67 959.16 464.18 956.66 464.18 956.66 462.54 960.82 462.54 960.82 466.67"/><rect class="cls-25" x="959.16" y="470.93" width="1.66" height="5.68"/><rect class="cls-25" x="959.16" y="480.89" width="1.66" height="3.32"/><path class="cls-25" d="M1104.6,543.41a3.12,3.12,0,1,1,3.14-3.2v.08a3.09,3.09,0,0,1-3,3.12Z" transform="translate(-245.09 -76.95)"/><ellipse class="cls-25" cx="959.99" cy="484.05" rx="3.13" ry="3.11"/><polygon class="cls-21" points="825.27 392.46 899.08 446.56 935.36 397.38 861.54 343.26 825.27 392.46"/><polygon class="cls-5" points="830.6 391.65 898.27 441.25 930.03 398.18 862.34 348.58 830.6 391.65"/><path class="cls-22" d="M1103.67,443.46a9.14,9.14,0,0,0,14.53,11.08l.21-.28a9.14,9.14,0,0,0-14.53-11.08Z" transform="translate(-245.09 -76.95)"/><polygon class="cls-22" points="851.56 407.13 898.18 441.29 898.13 392.74 851.56 407.13"/><polygon class="cls-21" points="833.28 393.75 871.78 421.95 867.67 387.37 833.28 393.75"/><polygon class="cls-21" points="772.14 408.93 856.82 443.81 880.18 387.37 795.48 352.5 772.14 408.93"/><polygon class="cls-5" points="777.12 406.88 854.76 438.84 875.2 389.44 797.54 357.46 777.12 406.88"/><path class="cls-22" d="M1043.3,452.72a9.14,9.14,0,0,0,16.84,7.13l.09-.22a9.1,9.1,0,0,0-5-11.89,9.19,9.19,0,0,0-11.86,4.75l-.09.22Z" transform="translate(-245.09 -76.95)"/><polygon class="cls-22" points="801.19 416.87 854.69 438.91 842.93 391.78 801.19 416.87"/><polygon class="cls-21" points="780.21 408.25 824.38 426.44 812.05 393.85 780.21 408.25"/><ellipse class="cls-26" cx="673.12" cy="535.97" rx="35.43" ry="35.28"/><polygon class="cls-5" points="645.77 530.05 692.7 518.01 700.37 547.64 653.45 559.7 645.77 530.05"/><path class="cls-22" d="M937.76,592c-1.41,2.28-2.9,4.51-4.32,6.78s-2.94,4.47-4.43,6.62-3.13,4.61-4.65,6.91l-.16.22L920,618.63l-.21.28-.32-.14-6.65-3.32-.23-.12c-2.49-1.22-5-2.48-7.47-3.76s-4.76-2.44-7.14-3.66-4.74-2.5-7.1-3.81c2.41,1,4.81,2.12,7.2,3.2s4.82,2.19,7.22,3.31c2.66,1.23,5.34,2.51,8,3.8h0l6,2.88c1.27-1.83,2.53-3.65,3.82-5.44h0c1.66-2.41,3.41-4.82,5.13-7.2s3.14-4.27,4.64-6.39S936.15,594.13,937.76,592Z" transform="translate(-245.09 -76.95)"/><path class="cls-22" d="M913.66,615.19h0l-.58.81q-1.38,1.93-2.85,3.79c-1.19,1.53-2.43,3-3.67,4.48s-2.53,2.91-3.87,4.34-2.64,2.81-4.05,4.14a51.58,51.58,0,0,1,3.46-4.66c1.19-1.51,2.44-3,3.68-4.49s2.54-2.91,3.85-4.32c1-1.15,2.09-2.27,3.23-3.31l.79-.75Z" transform="translate(-245.09 -76.95)"/><path class="cls-22" d="M945.17,620.71a56.13,56.13,0,0,1-5.59-1.66c-1.83-.64-3.68-1.24-5.49-1.89s-3.63-1.37-5.42-2.12c-1.46-.6-2.9-1.22-4.33-1.9l-.92-.44h.08l1,.29c1.49.4,3,.87,4.45,1.32,1.85.6,3.66,1.24,5.49,1.91s3.63,1.38,5.41,2.13S943.43,619.85,945.17,620.71Z" transform="translate(-245.09 -76.95)"/><path class="cls-23" d="M940.2,591.43a7.81,7.81,0,0,1-15.07,4.09s0-.1,0-.16a7.81,7.81,0,0,1,15.08-4Z" transform="translate(-245.09 -76.95)"/><path class="cls-5" d="M932.24,595.34l-1.66-6.06a.85.85,0,0,1,.61-1,.86.86,0,0,1,1,.6l1.66,6.13a.83.83,0,0,1-.58,1h0a.89.89,0,0,1-1.07-.65Zm1.8,3.43a.85.85,0,0,1-1-.58v0l-.08-.32a.86.86,0,0,1,.62-1,.84.84,0,0,1,1,.58v0h0v.31a.85.85,0,0,1-.51.93Z" transform="translate(-245.09 -76.95)"/></g><g id="freepik--Sheets--inject-46"><rect class="cls-27" x="224.11" y="410.38" width="92.66" height="88.69"/><rect class="cls-12" x="316.76" y="410.38" width="35.21" height="88.69"/><polygon class="cls-12" points="224.11 454.71 316.77 454.71 244.4 457 224.11 454.71"/><polygon class="cls-12" points="316.77 488.34 224.11 488.34 296.47 490.61 316.77 488.34"/><polygon class="cls-12" points="224.11 429.93 282.8 429.93 230.63 431.78 224.11 429.93"/><polygon class="cls-12" points="316.77 475.28 258.08 475.28 310.25 477.14 316.77 475.28"/><polygon class="cls-12" points="246.33 420.05 312.53 420.05 301.49 421.16 246.33 420.05"/><polygon class="cls-12" points="233.11 464.22 299.31 464.22 288.27 465.33 233.11 464.22"/><polygon class="cls-27" points="273.81 438.36 316.77 438.36 324.43 441.34 273.81 438.36"/><polygon class="cls-27" points="212.28 438.36 255.22 438.36 262.89 441.34 212.28 438.36"/><polygon class="cls-27" points="267.37 478.22 224.42 478.22 216.75 481.2 267.37 478.22"/><polygon class="cls-12" points="316.77 468.1 351.25 468.1 358.92 471.08 316.77 468.1"/><polygon class="cls-12" points="328.79 454.71 355.54 454.71 351.99 452.27 328.79 454.71"/></g><g id="freepik--Drink--inject-46"><polygon class="cls-6" points="372.57 457.35 367.04 526.49 328.84 526.49 323.31 457.35 372.57 457.35"/><rect class="cls-13" x="319.7" y="451.1" width="56.14" height="10.09"/><polygon class="cls-9" points="372.01 451.1 323.56 451.1 326.38 439.77 369.17 439.77 372.01 451.1"/><path class="cls-10" d="M606.28,569.48c0,9-5.94,16.26-13.3,16.26s-13.31-7.28-13.31-16.26,5.94-16.27,13.31-16.27S606.28,560.6,606.28,569.48Z" transform="translate(-245.09 -76.95)"/></g><path class="cls-10" d="M-170.6,902.32" transform="translate(-245.09 -76.95)"/><rect class="cls-1" x="222.55" y="832.97" width="150.71" height="19.44"/><rect class="cls-23" x="0.38" y="59.77" width="150.71" height="19.44"/><rect class="cls-23" x="982.84" y="946.35" width="150.71" height="29.16"/><rect class="cls-1" x="1028.61" y="0.38" width="150.71" height="29.16"/></g></svg>