<svg xmlns="http://www.w3.org/2000/svg" viewBox="0 0 1920 1080"><defs><style>.cls-1,.cls-6{fill:#fff;}.cls-2{fill:#d0b6ff;}.cls-2,.cls-21,.cls-22,.cls-23,.cls-24,.cls-25,.cls-26,.cls-3,.cls-4,.cls-5,.cls-6{stroke:#000;stroke-miterlimit:10;stroke-width:0.75px;}.cls-3,.cls-4{fill:#ccc;}.cls-16,.cls-17,.cls-18,.cls-24,.cls-4{isolation:isolate;}.cls-4{opacity:0.5;}.cls-5{fill:#e6e6e6;}.cls-23,.cls-7{fill:#ffc727;}.cls-25,.cls-8{fill:#263238;}.cls-21,.cls-9{fill:#ebebeb;}.cls-10{fill:#37474f;}.cls-11{fill:#f7a9a0;}.cls-12{fill:#c7c7c7;}.cls-13,.cls-26{fill:#455a64;}.cls-14{fill:#a6a6a6;}.cls-15{fill:#ff98b9;}.cls-16{fill:#050400;}.cls-16,.cls-17,.cls-24{opacity:0.1;}.cls-18,.cls-22,.cls-27{fill:#dbdbdb;}.cls-18{opacity:0.6;}.cls-19{fill:#ffc4c0;}.cls-20{opacity:0.2;}</style></defs><g id="Layer_2" data-name="Layer 2"><rect class="cls-1" width="1920" height="1080"/></g><g id="Layer_1" data-name="Layer 1"><g id="freepik--background-complete--inject-46"><path class="cls-2" d="M1840,560.69H1639.69V305.53H1840Zm-194.32-6.11H1834V311.65H1645.63Z" transform="translate(-3)"/><rect class="cls-2" x="1733.85" y="313.25" width="5.94" height="244.38"/><rect class="cls-2" x="1631.31" y="317.91" width="211.04" height="8.52"/><rect class="cls-2" x="1631.31" y="327.49" width="211.04" height="8.52"/><rect class="cls-2" x="1631.31" y="337.08" width="211.04" height="8.52"/><rect class="cls-2" x="1631.31" y="346.65" width="211.04" height="8.52"/><rect class="cls-2" x="1631.31" y="356.24" width="211.04" height="8.52"/><rect class="cls-2" x="1631.31" y="365.82" width="211.04" height="8.52"/><rect class="cls-2" x="1631.31" y="375.41" width="211.04" height="8.52"/><rect class="cls-2" x="1631.31" y="384.99" width="211.04" height="8.52"/><rect class="cls-2" x="1631.31" y="394.58" width="211.04" height="8.52"/><rect class="cls-2" x="1823.2" y="316.17" width="1.48" height="133"/><polygon class="cls-2" points="1826.58 456.29 1821.31 456.29 1822.63 448.49 1825.27 448.49 1826.58 456.29"/><rect class="cls-2" x="1828.55" y="316.17" width="1.48" height="174.83"/><polygon class="cls-2" points="1831.94 496.74 1826.65 496.74 1827.98 488.94 1830.62 488.94 1831.94 496.74"/><rect class="cls-2" x="1622.08" y="304.34" width="229.47" height="17.83"/><ellipse class="cls-3" cx="900.52" cy="215.73" rx="56.95" ry="58.63"/><ellipse class="cls-3" cx="903.12" cy="217.05" rx="54.34" ry="55.94"/><ellipse class="cls-3" cx="903.12" cy="217.05" rx="50.91" ry="52.42"/><path class="cls-4" d="M955.89,205.92c-23.19,14.47-61.29,38.18-82.59,51.19a52.3,52.3,0,0,1-13.91-19.25l70.43-67.19A52.4,52.4,0,0,1,955.89,205.92Z" transform="translate(-3)"/><path class="cls-4" d="M957,218.88a53,53,0,0,1-3.37,17l-63.49,30.92a49.72,49.72,0,0,1-8-3.56C901.3,251.87,936.34,231.11,957,218.88Z" transform="translate(-3)"/><rect class="cls-3" x="902.63" y="168.43" width="0.99" height="7.95"/><polygon class="cls-3" points="879.09 175.19 879.94 174.68 883.8 181.56 882.94 182.07 879.09 175.19"/><polygon class="cls-3" points="862.38 192.66 862.88 191.78 869.59 195.75 869.1 196.64 862.38 192.66"/><rect class="cls-3" x="855.91" y="216.54" width="7.72" height="1.02"/><polygon class="cls-3" points="861.99 240.92 868.68 236.94 869.17 237.82 862.49 241.8 861.99 240.92"/><polygon class="cls-3" points="879.77 258.44 883.63 251.52 884.49 252.03 880.63 258.94 879.77 258.44"/><rect class="cls-3" x="902.63" y="257.72" width="0.99" height="7.95"/><polygon class="cls-3" points="922.46 252.52 923.32 252.01 927.17 258.9 926.32 259.41 922.46 252.52"/><polygon class="cls-3" points="937.08 237.8 937.58 236.92 944.26 240.9 943.77 241.78 937.08 237.8"/><rect class="cls-3" x="942.62" y="216.54" width="7.72" height="1.02"/><polygon class="cls-3" points="937.08 196.28 943.77 192.31 944.26 193.19 937.58 197.16 937.08 196.28"/><polygon class="cls-3" points="922.44 181.56 926.3 174.67 927.15 175.18 923.3 182.06 922.44 181.56"/><polygon class="cls-3" points="903.87 172.03 905.54 220.59 900.72 220.52 902.56 172.01 903.87 172.03"/><polygon class="cls-3" points="933.23 200.12 901.51 220.96 899.2 216.59 932.61 198.92 933.23 200.12"/><path class="cls-3" d="M907.77,217.05a1.59,1.59,0,1,1-1.59-1.64A1.61,1.61,0,0,1,907.77,217.05Z" transform="translate(-3)"/><rect class="cls-2" x="1292.92" y="239.23" width="191.18" height="11.68"/><rect class="cls-2" x="1458.23" y="250.92" width="11.36" height="38.66"/><rect class="cls-2" x="1458.23" y="250.92" width="11.36" height="11.95"/><rect class="cls-2" x="1307.43" y="250.92" width="11.36" height="38.66"/><rect class="cls-2" x="1307.43" y="250.92" width="11.36" height="11.95"/><rect class="cls-2" x="1417.55" y="164.74" width="18.22" height="74.49"/><rect class="cls-2" x="1417.55" y="160.76" width="18.22" height="8.18"/><rect class="cls-2" x="1417.55" y="179.44" width="18.22" height="3.03"/><rect class="cls-2" x="1415.31" y="221.29" width="20.48" height="8.19"/><rect class="cls-2" x="1404.82" y="152.33" width="12.73" height="86.9"/><rect class="cls-2" x="1407.43" y="160.51" width="7.64" height="33.41"/><polygon class="cls-2" points="1383.24 178.2 1323.22 239.29 1314.27 229.97 1374.29 168.88 1383.24 178.2"/><polygon class="cls-2" points="1358.56 199.56 1335.48 223.05 1330.11 217.46 1353.19 193.97 1358.56 199.56"/><rect class="cls-2" x="1383.21" y="173.24" width="21.63" height="66.01"/><rect class="cls-2" x="1383.21" y="226.11" width="21.63" height="6.15"/><rect class="cls-2" x="1383.21" y="219.68" width="21.63" height="2.39"/><rect class="cls-2" x="1435.79" y="177.23" width="14.93" height="62.02"/><rect class="cls-2" x="1435.79" y="226.89" width="14.93" height="5.78"/><rect class="cls-2" x="1435.79" y="190.01" width="14.93" height="5.78"/><rect class="cls-2" x="1435.77" y="199.74" width="14.93" height="2.24"/><path class="cls-2" d="M1846.05,613.64l-20.88.46-10.6.18c-3.55.08-7.12,0-10.67.1h-.7v-.74l-.09-18.39v-.82h.79l21.08.1c7,0,14,.18,21.07.27h.44v.45c0,3.12-.12,6.21-.2,9.28Zm0,0-.23-9.26c-.08-3-.17-6.06-.2-9.08l.43.46c-7,.08-14,.26-21.07.26l-21.08.1.8-.82v18.34l-.72-.72c3.47,0,6.94,0,10.43.08l10.36.28Z" transform="translate(-3)"/><path class="cls-2" d="M1822.54,636.76l-20.88.46-10.62.18c-3.53,0-7.09,0-10.64.1h-.7V617.61h.79l21.07.11c7,0,14.06.18,21.08.26h.44v.45c0,3.11-.13,6.21-.21,9.27Zm0,0-.22-9.26c-.08-3-.18-6.06-.21-9.07l.43.45c-7,.09-14,.27-21.07.27l-21.07.09.79-.81v18.33l-.71-.72c3.47,0,6.94,0,10.42.08l10.46.2Z" transform="translate(-3)"/><path class="cls-2" d="M1869.55,636.76l-20.88.46-10.6.18c-3.55,0-7.11,0-10.66.1h-.7v-.74l-.1-18.33v-.82h.8l21.07.11c7,0,14.06.18,21.07.26h.45v.45c0,3.11-.14,6.21-.21,9.27Zm0,0-.22-9.26c0-3-.17-6.06-.21-9.07l.43.45c-7,.09-14,.27-21.07.27l-21.07.09.8-.81v18.33l-.72-.72c3.49,0,6.94,0,10.42.08l10.48.2Z" transform="translate(-3)"/><path class="cls-2" d="M1245.12,379.06l-20.89.46-10.6.18h-11.36V379l-.09-18.33v-.82h.79l21.07.1c7,0,14.06.18,21.08.26h.44v.44c0,3.11-.14,6.2-.22,9.26Zm0,0-.23-9.27c0-3.05-.17-6.07-.2-9.06l.43.44c-7,0-14,.26-21.08.26l-21.07.12.8-.82-.08,18.33-.72-.73c3.47,0,6.94,0,10.43.09l10.47.18Z" transform="translate(-3)"/><path class="cls-2" d="M1221.58,402.18l-20.88.46-10.62.18c-3.53,0-7.1,0-10.65.09h-.7v-.74l-.12-18.31V383h.79l21.07.1c7,0,14.06.18,21.07.27h.45v.45c0,3.12-.13,6.2-.21,9.26Zm0,0-.23-9.27c-.08-3.05-.17-6.06-.2-9.06l.43.44c-7,.08-14.06.26-21.08.26l-21.07.12.8-.82,0,18.33-.72-.73c3.47,0,6.94,0,10.43.1l10.45.18Z" transform="translate(-3)"/><path class="cls-2" d="M1268.62,402.18l-20.88.46-10.6.18c-3.55,0-7.1,0-10.66.09h-.7v-.74l-.1-18.31V383h.8l21.07.1c7,0,14,.18,21.07.27h.45v.45c0,3.12-.15,6.2-.21,9.26Zm0,0-.22-9.27c0-3.05-.18-6.06-.21-9.06l.43.44c-7,.08-14,.26-21.07.26l-21.07.12.79-.82-.08,18.33-.71-.73c3.48,0,6.94,0,10.42.1l10.48.18Z" transform="translate(-3)"/><path class="cls-2" d="M901.49,457.6l-20.88.46-10.62.18H858.71V438.45h.79l21.07.1c7,0,14.06.19,21.08.28h.44v.44c0,3.11-.13,6.21-.21,9.26Zm0,0-.23-9.25c0-3.07-.17-6.08-.2-9.08l.43.44c-7,0-14.06.26-21.07.28l-21.08.1.8-.82-.08,18.33-.72-.73c3.47,0,6.94,0,10.43.1l10.45.18Z" transform="translate(-3)"/><path class="cls-2" d="M1600.14,379.05l-20.88.46-10.6.18c-3.55.08-7.12,0-10.66.08h-.7V379l-.1-18.34v-.82h.8l21.07.1c7,0,14,.2,21.07.28h.44v.44c0,3.12-.12,6.21-.2,9.26Zm0,0-.22-9.26c-.08-3.07-.18-6.08-.21-9.08l.43.44c-7,.08-14,.26-21.07.28l-21.07.1.79-.82-.08,18.34-.71-.74c3.46,0,6.93,0,10.42.1l10.47.18Z" transform="translate(-3)"/><path class="cls-2" d="M1843.61,201l-20.88.46-10.61.18c-3.54,0-7.1,0-10.65.1h-.7V181.8h.79l21.08.1c7,0,14,.19,21.07.27h.44v.45c0,3.11-.12,6.21-.2,9.26Zm0,0-.22-9.25c-.08-3.07-.18-6.08-.21-9.08l.43.44c-7,0-14,.26-21.07.28l-21.07.1.79-.82-.08,18.33-.71-.73c3.47,0,6.94,0,10.42.09l10.46.19Z" transform="translate(-3)"/><path class="cls-2" d="M1867.12,224.08l-20.88.45-10.6.18c-3.55.09-7.12,0-10.66.1h-.7v-.73l-.1-18.34v-.82h.8l21.07.1c7,0,14,.19,21.07.28h.44v.44c0,3.11-.14,6.21-.22,9.26Zm0,0-.22-9.26c0-3.07-.18-6.08-.21-9.08l.43.44c-7,.08-14,.26-21.07.28l-21.07.1.79-.82v18.34l-.71-.74c3.46,0,6.93,0,10.42.1l10.47.18Z" transform="translate(-3)"/><path class="cls-3" d="M854.47,201l-20.89.46-10.6.18c-3.54,0-7.1,0-10.65.1h-.72v-19.9h.81l21.08.12c7,0,14,.18,21.07.26H855v.44c0,3.12-.14,6.21-.21,9.28Zm0,0-.24-9.26c0-3.05-.17-6.08-.2-9.08l.44.45c-7,.09-14.05.26-21.07.27l-21.07.1.8-.82L813,201l-.7-.64h10.41l10.47.18Z" transform="translate(-3)"/><rect class="cls-2" x="1052.69" y="157.1" width="158.66" height="182.25"/><rect class="cls-2" x="1063.15" y="167.87" width="137.75" height="160.82"/><rect class="cls-5" x="1075.59" y="196.3" width="48.56" height="59.24"/><path class="cls-2" d="M1104.63,200.33a1.75,1.75,0,1,1-3.5,0h0a1.75,1.75,0,1,1,3.5,0Z" transform="translate(-3)"/><path class="cls-2" d="M1087.89,208.16c4.92-.39,9.82-.41,14.72-.47s9.82.08,14.74.47c-4.92.4-9.82.41-14.74.48S1092.76,208.52,1087.89,208.16Z" transform="translate(-3)"/><path class="cls-2" d="M1087.89,212.85a68,68,0,0,1,16,0A70.26,70.26,0,0,1,1087.89,212.85Z" transform="translate(-3)"/><path class="cls-2" d="M1087.89,217.52c3.4-.36,6.83-.44,10.23-.46a94.75,94.75,0,0,1,10.23.46,111,111,0,0,1-20.46,0Z" transform="translate(-3)"/><path class="cls-2" d="M1087.89,222.21c4.26-.36,8.53-.44,12.73-.48s8.55.12,12.81.48c-4.26.37-8.54.46-12.81.47S1092.11,222.58,1087.89,222.21Z" transform="translate(-3)"/><path class="cls-2" d="M1087.89,226.89c3.71-.37,7.41-.45,11.14-.47a106.54,106.54,0,0,1,11.14.47c-3.69.36-7.4.46-11.14.48A108.25,108.25,0,0,1,1087.89,226.89Z" transform="translate(-3)"/><path class="cls-2" d="M1087.89,231.58c4.77-.39,9.55-.43,14.23-.47a132.51,132.51,0,0,1,14.32.47c-4.77.38-9.55.41-14.32.46S1092.66,232,1087.89,231.58Z" transform="translate(-3)"/><path class="cls-2" d="M1087.89,236.25a92.53,92.53,0,0,1,18.38,0A89.61,89.61,0,0,1,1087.89,236.25Z" transform="translate(-3)"/><path class="cls-2" d="M1087.89,240.94c4.92-.4,9.82-.41,14.72-.48s9.82.08,14.74.48c-4.92.39-9.82.41-14.74.47S1092.76,241.3,1087.89,240.94Z" transform="translate(-3)"/><path class="cls-2" d="M1087.89,245.62c4.92-.39,9.82-.42,14.72-.47s9.82.08,14.74.47c-4.92.4-9.82.41-14.74.46S1092.76,246,1087.89,245.62Z" transform="translate(-3)"/><rect class="cls-6" x="1131.55" y="233.24" width="57.45" height="70.1"/><path class="cls-2" d="M1165,242.69a1.75,1.75,0,1,1-1.75-1.8h0a1.75,1.75,0,0,1,1.73,1.78Z" transform="translate(-3)"/><path class="cls-2" d="M1142.59,250.72a43.11,43.11,0,0,1,12.73,0A43.11,43.11,0,0,1,1142.59,250.72Z" transform="translate(-3)"/><path class="cls-2" d="M1142.59,256.05a71.14,71.14,0,0,1,16.5,0A74.61,74.61,0,0,1,1142.59,256.05Z" transform="translate(-3)"/><path class="cls-2" d="M1142.59,261.29a64,64,0,0,1,15.28,0A62,62,0,0,1,1142.59,261.29Z" transform="translate(-3)"/><path class="cls-2" d="M1142.59,266.58a62,62,0,0,1,15.28,0A63,63,0,0,1,1142.59,266.58Z" transform="translate(-3)"/><path class="cls-2" d="M1142.59,271.86a48.34,48.34,0,0,1,13.27,0A46.82,46.82,0,0,1,1142.59,271.86Z" transform="translate(-3)"/><path class="cls-2" d="M1142.59,277.15a76.69,76.69,0,0,1,17,0,71.12,71.12,0,0,1-8.5.48A75.41,75.41,0,0,1,1142.59,277.15Z" transform="translate(-3)"/><path class="cls-2" d="M1142.59,282.43a53.93,53.93,0,0,1,14,0A52.24,52.24,0,0,1,1142.59,282.43Z" transform="translate(-3)"/><path class="cls-2" d="M1142.59,287.72a73.69,73.69,0,0,1,8.78-.47,72.13,72.13,0,0,1,8.81.47,76.37,76.37,0,0,1-8.81.48A80.58,80.58,0,0,1,1142.59,287.72Z" transform="translate(-3)"/><path class="cls-2" d="M1142.59,293a84.77,84.77,0,0,1,17.59,0,82.09,82.09,0,0,1-17.59,0Z" transform="translate(-3)"/><path class="cls-2" d="M1167.69,250.72a73.93,73.93,0,0,1,16.69,0A73.93,73.93,0,0,1,1167.69,250.72Z" transform="translate(-3)"/><path class="cls-2" d="M1167.69,256.05a31.64,31.64,0,0,1,11,0A33.17,33.17,0,0,1,1167.69,256.05Z" transform="translate(-3)"/><path class="cls-2" d="M1167.69,261.29a67.66,67.66,0,0,1,15.71,0A65.53,65.53,0,0,1,1167.69,261.29Z" transform="translate(-3)"/><path class="cls-2" d="M1167.69,266.58a62.08,62.08,0,0,1,15.29,0A64.1,64.1,0,0,1,1167.69,266.58Z" transform="translate(-3)"/><path class="cls-2" d="M1167.69,271.86a76.34,76.34,0,0,1,16.69,0A73.93,73.93,0,0,1,1167.69,271.86Z" transform="translate(-3)"/><path class="cls-2" d="M1167.69,277.15a47,47,0,0,1,13.29,0,43.44,43.44,0,0,1-6.64.48A46.17,46.17,0,0,1,1167.69,277.15Z" transform="translate(-3)"/><path class="cls-2" d="M1167.69,282.43a67.66,67.66,0,0,1,15.71,0A65.53,65.53,0,0,1,1167.69,282.43Z" transform="translate(-3)"/><path class="cls-2" d="M1167.69,287.72a37.17,37.17,0,0,1,6.14-.54,34.39,34.39,0,0,1,6.08.48,36.38,36.38,0,0,1-6.08.47A38.24,38.24,0,0,1,1167.69,287.72Z" transform="translate(-3)"/><path class="cls-2" d="M1167.69,293a37.38,37.38,0,0,1,11.66,0A36.2,36.2,0,0,1,1167.69,293Z" transform="translate(-3)"/><rect class="cls-7" x="1119.69" y="180.01" width="29.22" height="30.09"/><path class="cls-2" d="M1139,183.06a1.75,1.75,0,1,1-1.77-1.79h0A1.78,1.78,0,0,1,1139,183.06Z" transform="translate(-3)"/><rect class="cls-2" x="1196.84" y="167.87" width="3.95" height="161"/></g><g id="freepik--Floor--inject-46"><polygon class="cls-8" points="1035.45 717.25 1136.23 716.84 1237.02 716.71 1438.61 716.43 1640.17 716.7 1740.97 716.85 1841.76 717.25 1740.97 717.65 1640.17 717.79 1438.61 718.06 1237.02 717.79 1136.23 717.65 1035.45 717.25"/></g><g id="freepik--Desk--inject-46"><polygon class="cls-8" points="784.57 492.85 844.41 492.46 904.23 492.31 1023.92 492.03 1143.58 492.31 1203.42 492.46 1263.25 492.85 1203.42 493.26 1143.58 493.39 1023.92 493.67 904.23 493.39 844.41 493.26 784.57 492.85"/></g><g id="freepik--Shadow--inject-46"><ellipse class="cls-9" cx="1373.71" cy="769.76" rx="460.09" ry="52.29"/></g><g id="freepik--Lamp--inject-46"><rect class="cls-10" x="1505.6" y="711.34" width="70.97" height="8.31"/><rect class="cls-10" x="1536.89" y="384.76" width="8.41" height="326.56"/><rect class="cls-8" x="1536.89" y="384.76" width="8.41" height="43.88"/><polygon class="cls-7" points="1585.61 410.18 1496.58 410.18 1503.04 388.27 1503.26 387.5 1522.1 323.79 1560.07 323.79 1578.92 387.52 1578.92 387.54 1579.13 388.26 1585.61 410.18"/><path class="cls-1" d="M1528.25,338.51a.6.6,0,0,1-.59.62h0a.59.59,0,0,1-.6-.58v0a.6.6,0,0,1,.6-.61h0a.6.6,0,0,1,.59.61Zm10.36-.61a.6.6,0,0,0-.6.61.61.61,0,0,0,.6.62.59.59,0,0,0,.6-.58v0A.6.6,0,0,0,1538.61,337.9Zm11,0a.6.6,0,0,0-.6.61.6.6,0,1,0,1.2,0,.6.6,0,0,0-.6-.61Zm11,0a.6.6,0,0,0-.6.61.59.59,0,0,0,.56.62h0a.61.61,0,0,0,.6-.62.6.6,0,0,0-.6-.61h0ZM1533.2,330a.61.61,0,0,0-.6.62h0a.6.6,0,1,0,1.2,0,.61.61,0,0,0-.6-.62Zm11,0a.61.61,0,0,0-.6.62.59.59,0,0,0,.57.61h0a.6.6,0,0,0,.6-.61.61.61,0,0,0-.59-.62h0Zm10.95,0a.6.6,0,0,0-.59.62.6.6,0,0,0,1.19,0v0a.6.6,0,0,0-.59-.62h0Zm-38.36,24.33a.61.61,0,0,0-.6.62h0a.6.6,0,0,0,.6.61.62.62,0,0,0,0-1.23h0Zm11,0a.59.59,0,0,0-.6.58v0a.6.6,0,0,0,.6.61h0a.6.6,0,0,0,.59-.61h0a.6.6,0,0,0-.59-.62h0Zm11,0a.61.61,0,0,0-.6.62.6.6,0,0,0,.6.61.62.62,0,0,0,0-1.24h0Zm11,0a.61.61,0,0,0-.6.62.6.6,0,0,0,.6.61.62.62,0,0,0,0-1.23h0Zm11,0a.59.59,0,0,0-.6.58v0a.6.6,0,0,0,.6.61.6.6,0,0,0,.59-.61.6.6,0,0,0-.58-.63h0Zm11,0a.61.61,0,0,0-.6.62.6.6,0,1,0,.64-.63h0Zm-49.34-7.9a.6.6,0,0,0-.6.61h0a.61.61,0,0,0,.6.62h0a.61.61,0,0,0,.6-.62h0a.59.59,0,0,0-.56-.62h0Zm11,0a.6.6,0,0,0-.6.61h0a.6.6,0,1,0,1.2,0,.6.6,0,0,0-.6-.61Zm11,0a.59.59,0,0,0-.6.58v0a.6.6,0,1,0,.61-.62h0Zm10.95,0a.6.6,0,0,0-.59.61.6.6,0,0,0,.59.62.61.61,0,0,0,.6-.62.59.59,0,0,0-.56-.62h0Zm11,0a.6.6,0,0,0-.59.61.6.6,0,0,0,.59.62.61.61,0,0,0,.6-.62.6.6,0,0,0-.59-.62h0Zm-49.33,24.31a.6.6,0,0,0-.6.61h0a.61.61,0,0,0,.6.62.6.6,0,0,0,.59-.62.61.61,0,0,0-.59-.62h0Zm11,0a.6.6,0,0,0-.6.61h0a.59.59,0,0,0,.56.62h0a.6.6,0,0,0,.59-.62h0a.61.61,0,0,0-.59-.62h0Zm11,0a.6.6,0,0,0-.6.61.61.61,0,0,0,.6.62.58.58,0,0,0,.59-.58,0,0,0,0,0,0,0,.6.6,0,0,0-.59-.62h0Zm11,0a.6.6,0,0,0-.6.61.61.61,0,0,0,.6.62.62.62,0,0,0,0-1.24h0Zm11,0a.6.6,0,0,0-.6.61.59.59,0,0,0,.56.62h0a.63.63,0,0,0,0-1.25l-.13,0Zm11,0a.6.6,0,0,0-.6.61.61.61,0,0,0,.6.62.59.59,0,0,0,.6-.58v0a.62.62,0,0,0-.6-.62h0Zm-49.34-7.91a.61.61,0,0,0-.6.62h0a.6.6,0,0,0,.6.61h0a.59.59,0,0,0,.6-.58v0a.6.6,0,0,0-.59-.62h0Zm11,0a.61.61,0,0,0-.6.62h0a.6.6,0,1,0,1.2,0,.61.61,0,0,0-.6-.62Zm11,0a.61.61,0,0,0-.6.62.59.59,0,0,0,.57.61h0a.6.6,0,0,0,.6-.61.61.61,0,0,0-.6-.62h0Zm10.95,0a.6.6,0,0,0-.59.62.6.6,0,0,0,1.19,0v0a.6.6,0,0,0-.59-.62h0Zm11,0a.6.6,0,0,0-.59.62.6.6,0,0,0,.59.61.62.62,0,0,0,0-1.23h0Zm-59.71,24.68-.22.77a.6.6,0,0,0,.29-.52.47.47,0,0,0-.19-.25Zm10.43-.35a.61.61,0,0,0-.6.62.6.6,0,0,0,.6.61.6.6,0,0,0,.59-.61.6.6,0,0,0-.58-.63h0Zm11,0a.61.61,0,0,0-.6.62.6.6,0,1,0,.6-.62Zm11,0a.61.61,0,0,0-.6.62.6.6,0,1,0,.6-.62Zm11,0a.62.62,0,0,0,0,1.23.6.6,0,0,0,.6-.61h0a.62.62,0,0,0-.59-.63h0Zm11,0a.61.61,0,0,0-.6.62.6.6,0,1,0,.6-.62Zm10.95,0a.62.62,0,0,0,0,1.23.62.62,0,0,0,0-1.23Zm10.42.39a.74.74,0,0,0,0,.21.64.64,0,0,0,.26.51Zm-70.71-8.29a.59.59,0,0,0-.6.58v0a.61.61,0,0,0,.6.62h0a.61.61,0,0,0,.6-.62h0a.62.62,0,0,0-.59-.63l-.13,0Zm11,0a.6.6,0,0,0-.59.61h0a.6.6,0,0,0,.59.62h0a.61.61,0,0,0,.6-.62h0a.59.59,0,0,0-.55-.63.52.52,0,0,0-.17,0Zm11,0a.6.6,0,0,0-.59.61h0a.6.6,0,0,0,.59.62.61.61,0,0,0,.6-.62.62.62,0,0,0-.6-.62h0Zm11,0a.58.58,0,0,0-.59.58,0,0,0,0,0,0,0,.6.6,0,0,0,.59.62.63.63,0,0,0,0-1.25l-.13,0Zm11,0a.6.6,0,0,0-.59.61.6.6,0,0,0,.59.62.61.61,0,0,0,.6-.62.59.59,0,0,0-.54-.63.47.47,0,0,0-.17,0Zm11,0a.6.6,0,0,0-.59.61.6.6,0,0,0,.59.62.61.61,0,0,0,.6-.62.6.6,0,0,0-.58-.63l-.13,0Zm11,0a.58.58,0,0,0-.59.58v0a.6.6,0,0,0,.59.62.61.61,0,0,0,.6-.62.6.6,0,0,0-.58-.63l-.14,0Zm-71.27,24.31a.6.6,0,0,0-.6.61h0a.61.61,0,0,0,.6.62h0a.58.58,0,0,0,.59-.58v0a.6.6,0,0,0-.58-.63l-.13,0Zm11,0a.6.6,0,0,0-.6.61h0a.61.61,0,0,0,.6.62.63.63,0,0,0,0-1.25l-.13,0Zm11,0a.6.6,0,0,0-.6.61h0a.59.59,0,0,0,.56.62h0a.6.6,0,0,0,.59-.62h0a.6.6,0,0,0-.58-.63l-.13,0Zm11,0a.6.6,0,0,0-.6.61.61.61,0,0,0,.6.62.59.59,0,0,0,.6-.58v0a.62.62,0,0,0-.59-.63l-.13,0Zm11,0a.6.6,0,0,0-.6.61.6.6,0,1,0,1.2,0,.62.62,0,0,0-.59-.63l-.13,0Zm11,0a.6.6,0,0,0-.6.61.59.59,0,0,0,.56.62h0a.63.63,0,0,0,0-1.26.63.63,0,0,0-.19,0Zm10.95,0a.6.6,0,0,0-.6.61.61.61,0,0,0,.6.62.59.59,0,0,0,.6-.58v0a.62.62,0,0,0-.59-.63l-.13,0Zm11,0a.6.6,0,0,0-.6.61.6.6,0,1,0,1.2,0,.62.62,0,0,0-.59-.63l-.13,0Zm-71.26-7.91a.61.61,0,0,0-.6.62h0a.59.59,0,0,0,.57.61h0a.6.6,0,0,0,.6-.61h0a.62.62,0,0,0-.59-.63h0Zm11,0a.6.6,0,0,0-.59.62h0a.6.6,0,0,0,.59.61h0a.59.59,0,0,0,.6-.58v0a.61.61,0,0,0-.58-.63h0Zm11,0a.6.6,0,0,0-.59.62h0a.6.6,0,0,0,.59.61.6.6,0,0,0,.6-.61.61.61,0,0,0-.6-.62h0Zm11,0a.61.61,0,0,0-.6.62.6.6,0,0,0,.57.61h0a.6.6,0,0,0,.6-.61.61.61,0,0,0-.59-.63h0Zm11,0a.6.6,0,0,0-.59.62.6.6,0,0,0,1.19,0v0a.6.6,0,0,0-.58-.63h0Zm11,0a.6.6,0,0,0-.59.62.6.6,0,0,0,.59.61.62.62,0,0,0,0-1.24h0Zm11,0a.6.6,0,0,0-.59.62.58.58,0,0,0,.56.61h0a.62.62,0,0,0,0-1.24h0Z" transform="translate(-3)"/></g><g id="freepik--Plant--inject-46"><path class="cls-8" d="M1384.9,608.36a116.27,116.27,0,0,1,2.53-18.3,41.23,41.23,0,0,1,6.37-15.44,19,19,0,0,1,12.44-8,17.14,17.14,0,0,1,13.1,4.79,65.08,65.08,0,0,1,11.22,14.12,174,174,0,0,1,9.69,17.49c.1.19-.19.36-.28.16a110.89,110.89,0,0,0-8.68-14.63,92.18,92.18,0,0,0-10-12.44c-3.35-3.28-7.6-6.55-12.44-6.67a15.19,15.19,0,0,0-12.19,6.46,38.92,38.92,0,0,0-6.13,14.83,113.52,113.52,0,0,0-2.5,17.42c-1,12.06-1.21,24.18-1.48,36.26q-.22,10.27-.3,20.53c0,3.46,0,6.94-.08,10.39a68.57,68.57,0,0,1-.38,10c-.11.67-1.2.61-1.31,0a62.84,62.84,0,0,1-.44-9.5c0-3.28-.08-6.56-.12-9.83,0-6.4-.07-12.79,0-19.16C1383.91,634,1384.06,621.16,1384.9,608.36Z" transform="translate(-3)"/><path class="cls-7" d="M1401.63,599.29a28.2,28.2,0,0,1,3.63-10.49c3.39-4.75,7-2.69,3.66,2.57a32,32,0,0,0-4.78,13s5.7,8.39,12.57,12.52a57.46,57.46,0,0,1-.55-13c1.32-10.35,7.4-9.83,5.89-1.54a71.84,71.84,0,0,0-1.37,16.62,34.38,34.38,0,0,0,7.33,3.72c-.38-1.21-.81-2.66-1.27-4.39-2.43-9.28,3.58-12.18,3.77-6.95a75.66,75.66,0,0,0,2.33,13.11c3.31,1.15,6,1.92,7.72,2.52a28.1,28.1,0,0,1,11.26,7.93,36.27,36.27,0,0,0,7.69-10.14,127.16,127.16,0,0,0-10-8c-8.64-6.29-5.63-14.22,1.23-9.29,5,3.55,8.77,10.16,10.52,13.53a56.77,56.77,0,0,0,3.85-18.55c-6.79-6.55-23.57-15.69-18.51-15.69,4.55,0,14.74,6.86,18.48,9.52-.11-1.86-.3-3.66-.57-5.39-6.37-4.31-27.17-11-23.88-12.95,3.63-2.13,18.13,4.78,22.51,7a27.42,27.42,0,0,0-3.84-8.19c-8.83-12.17-24.76-16.39-31.72-14.06-4.91,1.64-3.47,14.5-4.53,14.06C1403.35,568.54,1394.37,574.33,1401.63,599.29Zm48.43-1.41c1.4-1.74,7.88,3.39,6,6.19S1448.24,600.17,1450.06,597.88Zm-33.89-11c1.71,1.11-.81,7.6-3.43,5.64C1410.49,590.9,1414.45,585.8,1416.17,586.93Z" transform="translate(-3)"/><path class="cls-8" d="M1418.77,588.91c.89-1.82,1.81-3.62,2.83-5.36a31.7,31.7,0,0,1,3.26-4.91c-.28-.36-.55-.72-.84-1.07s.08-.34.21-.19.65.78,1,1.18a.28.28,0,0,1,.14.16c1.21,1.51,2.36,3,3.45,4.64a52.31,52.31,0,0,1,5.75,1.64c1.94.67,3.85,1.36,5.75,2.18.19.09.09.42-.1.34-1.88-.85-3.77-1.64-5.7-2.36s-3.69-1.11-5.54-1.64c.59.87,1.2,1.75,1.75,2.66a66.36,66.36,0,0,1,10.16,4.26c3.42,1.64,6.73,3.62,10,5.58.19.1,0,.4-.18.28a110.27,110.27,0,0,0-10-5.29c-3.18-1.54-6.46-2.8-9.66-4.26,8,13,12.91,27.86,19.37,41.77.09.21-.21.38-.3.16-2-4.91-4.25-9.58-6.37-14.35-1.92-4.29-3.8-8.6-5.74-12.9-.56-1.24-1.15-2.51-1.74-3.75.35,6.91.21,14,1.31,20.81a.16.16,0,0,1-.16.16.16.16,0,0,1-.16-.16c-.48-7.41-1.74-14.75-1.69-22.12v-.1c-1.37-2.82-2.82-5.62-4.39-8.32-2.68,6.47-5.49,13.11-6.73,20,0,.22-.39.12-.32-.09,1.81-7,3.5-14,6.76-20.41a79.82,79.82,0,0,0-5.68-8.44c-.89,1.64-2,3.28-3.07,4.92s-2,3.28-2.88,4.92a68.61,68.61,0,0,0-5,11c-.08.21-.41.09-.33-.1C1415.44,596.2,1417,592.5,1418.77,588.91Z" transform="translate(-3)"/><path class="cls-8" d="M1355.17,604.68c5.17-5.36,11.14-12.38,19.19-12.36,7.72,0,13.4,6.42,16.68,13.11,3.41,6.9,4.63,14.75,5.61,22.34q1.69,13.65,2,27.44c.15,5.1.13,10.21,0,15.31a101,101,0,0,1-1.13,15.44c-.14.81-1.43.85-1.48,0-.22-4.3,0-8.61,0-12.92s0-8.45-.19-12.68c-.32-8.55-.92-17.09-1.89-25.6-.85-7.42-1.59-15.06-3.69-22.23-2-6.56-5.59-13.87-12-16.72-8.7-3.87-17.19,3.28-22.88,9.19C1355.27,605.09,1355,604.82,1355.17,604.68Z" transform="translate(-3)"/><path class="cls-7" d="M1328.77,616.56h0c0,1.09.09,2.18.17,3.27a18.52,18.52,0,0,1,8.48-3.6c7.34-.82,6.88,4.92,2,5.18a27.07,27.07,0,0,0-10.07,2.08c1.19,10,3.87,18,4.26,18.12a135.25,135.25,0,0,0,19.42-2.52c-1.83-4-6-9.33-3.87-9.83s4.44,4.31,5.62,9.4a91.52,91.52,0,0,0,14.12-4c-3.19-2.88-8.23-6.55-6.37-8s5.87,3.52,8.25,7.19a29.5,29.5,0,0,0,6.11-3.51c-4.36-6.55-15-7.93-13.59-12.68s11.31,1.84,15.77,10.65c5.23-5.59,6.78-13.5,6.22-20.25-4.57-.56-13.34.44-12.73-2.93s7-2.74,12.16-.77a19.11,19.11,0,0,0-3-7.43c-4.78-6.36-19.48,1.72-19.48,1.72s1.59-15.17-4-17.79c-3.18-1.51-8.91-1.49-14.61,2,3.18.28,7.07,1.31,8.63,3.61,2,2.91-1.15,4.5-3.19,3.16-1.4-1-4-4-8.75-4.36a29.34,29.34,0,0,0-5.3,6c-.54.79-1.05,1.64-1.59,2.51a19.64,19.64,0,0,1,17.17.33c6.37,3.27,2.8,10-2.67,7.4s-10.68-5.24-16.48-3.73a43.75,43.75,0,0,0-2.8,16.93A28.63,28.63,0,0,1,1338,610c6.36-1.63,8.24,2.2,1.28,2.92A27,27,0,0,0,1328.77,616.56Zm7.68-10.46c-.43-2.11,4-2.72,4.78-1,.63,1.53-4.35,3.26-4.78,1.07Zm38.36,11.69c.43-1.17,3.42.14,3.18,1.63-.44,1.94-3.63-.42-3.18-1.57Zm-21.14,7.45c2.2-.9,5.61,4.71,3.19,6S1351.84,626,1353.67,625.24Z" transform="translate(-3)"/><path class="cls-8" d="M1334.43,640.48c3.3-5.67,6.56-11.37,10-16.94q2.41-3.88,5-7.62l-.78-.2-1.31-.26c-1.06-.18-2.08-.32-3.05-.44s-1.93-.15-2.9-.17a13.91,13.91,0,0,0-3.09.17.09.09,0,1,1,0-.17c1,0,2.09-.1,3.19-.11a29.06,29.06,0,0,1,3,.08c.94,0,1.88.15,2.82.29l1.59.28a3.79,3.79,0,0,1,.92.2c1.78-2.52,3.64-5,5.55-7.42a64.73,64.73,0,0,0-18-5.94c-.11,0,0-.18,0-.16a60.12,60.12,0,0,1,18.31,5.72l3.18-4c1.19-1.48,2.47-2.92,3.53-4.48,0-.11.22,0,.14.1-1.48,1.68-2.87,3.44-4.18,5.26h0a64.37,64.37,0,0,1,6.7,5.54q3.3,3,6.37,6.2a.09.09,0,0,1-.12.13c-2-2.11-4.18-4.12-6.36-6s-4.57-3.65-6.81-5.54h0l-1.6,2.07c-.27.34-.52.7-.78,1h0c-.84,1.16-1.7,2.31-2.54,3.46a28.67,28.67,0,0,1,2.54,4.73c.74,1.64,1.37,3.28,2,4.92a74.7,74.7,0,0,1,2.74,10.63c0,.1-.15.15-.16,0a64,64,0,0,0-3-10.42c-.65-1.74-1.36-3.42-2.13-5.11s-1.51-3-2.15-4.56c-.73,1-1.48,2-2.19,3.05l-.62.9v.15h0c-2.26,3.28-4.41,6.55-6.51,10a2.76,2.76,0,0,1,.28.74q.21.61.39,1.23.35,1.25.57,2.52c.14.8.25,1.64.33,2.43a22.63,22.63,0,0,0,.19,2.73c0,.13-.17.15-.16,0a8.76,8.76,0,0,0-.19-2.55c-.11-.87-.27-1.76-.46-2.61s-.38-1.55-.6-2.32c-.13-.38-.24-.78-.37-1.15s-.16-.41-.22-.62q-1.48,2.38-2.91,4.76l-5.67,9.54C1334.58,640.78,1334.34,640.65,1334.43,640.48Z" transform="translate(-3)"/><path class="cls-8" d="M1385.25,684c.08-3.28.57-6.46.91-9.65s.7-6.43,1-9.64a148.68,148.68,0,0,1,2.4-18.58,27.39,27.39,0,0,1,7.36-13.9,11.72,11.72,0,0,1,7.19-3.54,12.2,12.2,0,0,1,7.66,2.43,27.33,27.33,0,0,1,6.36,7,67.65,67.65,0,0,1,5,8.39c0,.1-.12.16-.18,0A42.53,42.53,0,0,0,1412.15,634a12.57,12.57,0,0,0-6.83-2.93,9.15,9.15,0,0,0-6.64,2.72,25.86,25.86,0,0,0-7,12.76,132.75,132.75,0,0,0-2.71,17.17c-.44,3.4-.86,6.81-1.3,10.21s-.7,6.85-1.4,10.18a.54.54,0,0,1-.71.29A.55.55,0,0,1,1385.25,684Z" transform="translate(-3)"/><path class="cls-7" d="M1400.59,659.16a18.1,18.1,0,0,0,3.41,3.58c-.51-3.15-1.13-8.72.4-11.69,2.38-4.6,5.22-2.31,3.78,1.64a34,34,0,0,0-2.29,11.37,47.16,47.16,0,0,0,10.38,5,18.07,18.07,0,0,1-.35-5.49c.48-4.91,4.14-4.83,3.18.28a32.94,32.94,0,0,0-.49,6,105.37,105.37,0,0,0,16.23,3.72,48.9,48.9,0,0,0,6.7-12.27c-3.9-1-11.77-1.23-11.62-4.1.23-3.85,7.87-.88,12.34,1.92a31.61,31.61,0,0,0,1.35-10.37,48.4,48.4,0,0,0-10.74-1.84c-8-.72-7.62-5.39-1.82-5.29,4.29.08,9.71,2.78,12.29,4.19-1.69-11.22-10-18.43-16.68-18.69-11.14-.48-7.18,13.89-7.18,13.89s-7.59-5.5-14.77-5.36S1392.94,648.09,1400.59,659.16Zm30-20.78c-.25-1.63,4.78-2,5,0,.31,2.31-4.75,1.56-5-.08Zm8,16.87c-.11-1.07,2.06-1.25,2.55.08.32.78-2.47.87-2.55-.17Zm-26.92,1c1.68.25,2.64,6.47-.28,6.34-2.21-.13-1.16-6.68.28-6.42Z" transform="translate(-3)"/><path class="cls-8" d="M1414,663.06c.26-.78.51-1.57.76-2.36-.22.81-.41,1.64-.56,2.41C1414.15,663.28,1414,663.21,1414,663.06Z" transform="translate(-3)"/><path class="cls-8" d="M1417,653.05c.52-1.64,1.11-3.16,1.7-4.74.33-.83.67-1.63,1-2.49a10,10,0,0,1,1-2.08,14.55,14.55,0,0,1-.91-2m.1,0a24.09,24.09,0,0,1,2.19,3.49l.91,1.64a13.35,13.35,0,0,1,1.88.29c.68.13,1.35.26,2,.43l2,.47a18,18,0,0,0,2,.49c.16,0,.09.28,0,.22a13,13,0,0,0-2.1-.56c-.65-.15-1.29-.26-1.94-.36s-1.31-.18-2-.25l-1.48-.11c.25.47.54.95.79,1.44a2.41,2.41,0,0,0,.13.23,6.54,6.54,0,0,1,1.59.2l1.74.36c1.17.26,2.33.55,3.48.88,2.42.69,4.78,1.49,7.23,2.3.13,0,0,.26-.1.21A67.22,67.22,0,0,0,1431,651l-3.45-.77-1.72-.39a10.15,10.15,0,0,1-1.35-.3q1.86,3.51,3.47,7.16c2.32,5.31,4.28,10.77,6.28,16.19,0,.15-.16.23-.2.1a149.79,149.79,0,0,0-6.69-15.83c-.44-.95-.91-1.88-1.35-2.82a4,4,0,0,1-.13.58l-.33,1.93c-.21,1.28-.42,2.57-.61,3.87a47,47,0,0,0-.9,8c0,.16-.24.14-.21,0,.19-1.3.19-2.63.27-3.92s.17-2.7.33-4.05.31-2.59.51-3.88l.34-1.94a4,4,0,0,1,.35-1.39c-.66-1.36-1.31-2.72-2-4.06s-1.25-2.54-1.89-3.8l-.84-1.64a16.74,16.74,0,0,1-.75,1.93c-.29.74-.57,1.46-.88,2.2-.63,1.64-1.24,3.27-1.83,4.91-.84,2.31-1.78,4.67-2.48,7.08.65-2.42,1.23-4.83,2-7.16Z" transform="translate(-3)"/><path class="cls-8" d="M1414.79,660.7a1.64,1.64,0,0,1,.16-.55A5.7,5.7,0,0,0,1414.79,660.7Z" transform="translate(-3)"/><polygon class="cls-10" points="1363.49 677.79 1364.28 694.98 1366.3 739.28 1410.71 739.28 1412.74 694.98 1413.52 677.79 1363.49 677.79"/><polygon class="cls-8" points="1363.49 677.79 1364.28 694.98 1412.74 694.98 1413.52 677.79 1363.49 677.79"/><rect class="cls-10" x="1360.33" y="670.85" width="56.34" height="13.9"/><rect class="cls-10" x="1399.31" y="739.28" width="7.8" height="7.28"/><rect class="cls-8" x="1399.31" y="739.28" width="7.8" height="3.64"/><rect class="cls-10" x="1369.9" y="739.28" width="7.78" height="7.28"/><rect class="cls-8" x="1369.9" y="739.28" width="7.78" height="3.64"/></g><g id="freepik--character-2--inject-46"><path class="cls-8" d="M1706.17,440.71c-12.45,20.91-.7,41.46-4.12,55.86-2.09,8.82-14,21.31-14.17,30.74-.3,15.46,12.73,16.65,12.53,25.06-.27,11.91-14.46,15.71-11.48,34.07s27.57,30.76,73.58,21,65.25-34.59,62.07-50-19.4-15.42-23.88-26.22c-2.86-6.86,4.78-14.84,1.07-28.05s-17.32-13.34-22.57-23.84-8-39.33-28.12-47.82S1712.29,430.4,1706.17,440.71Z" transform="translate(-3)"/><path class="cls-8" d="M1708.28,440.45a40.2,40.2,0,0,0-7.16,17.37,88.26,88.26,0,0,0-.71,20.09,53.29,53.29,0,0,1-.08,11.91,29.52,29.52,0,0,1-3.58,9.57c-3.41,6.08-8.07,11.39-10.81,17.85-2.6,6.13-3.77,13.55-.11,19.5,2,3.27,5.15,5.37,7.61,8.19s4,6.39,2.27,9.83c-1.59,3-4.44,5-6.37,7.69a30.47,30.47,0,0,0-4.45,8.63,24.12,24.12,0,0,0,1.43,19c7.07,13.36,22.58,17.14,36.14,18.26,1.9.15,3.79.29,5.69.41.3,0,.39-.43.09-.46-13.75-1.54-29.73-3.41-38.69-15.7a22.54,22.54,0,0,1-3.69-19.06,28.21,28.21,0,0,1,4.19-9c1.84-2.64,4.28-4.69,6.19-7.25a9,9,0,0,0,1.41-8.78,21.37,21.37,0,0,0-6.16-8,17.76,17.76,0,0,1-5.84-8.63,20.35,20.35,0,0,1,.65-10.33c2-6.7,6.37-12.12,10.13-17.89s6.17-11.95,6-19c-.11-3.58-.59-7.13-.83-10.69a94,94,0,0,1-.19-9.93,46.45,46.45,0,0,1,4.4-19.06,27.17,27.17,0,0,1,2.7-4.32C1708.59,440.5,1708.4,440.3,1708.28,440.45Z" transform="translate(-3)"/><path class="cls-8" d="M1823.18,545.91a18,18,0,0,0-5.16-5.63c-2.18-1.49-4.58-2.58-6.88-3.87a13.3,13.3,0,0,1-5.57-4.92c-1.49-2.73-1.17-5.93-.63-8.89a67.93,67.93,0,0,0,1.48-9.3,31.29,31.29,0,0,0-1-9.09,30.79,30.79,0,0,0-9.8-15.52c-2.33-2.06-4.78-3.92-7.12-5.95a38.6,38.6,0,0,1-6.73-7.58c-4.15-6.22-6.87-13.34-10.69-19.78A113.23,113.23,0,0,0,1757.35,437c-.13-.15-.3.08-.17.21a101,101,0,0,1,12.19,16.65c3.32,5.65,5.82,11.72,8.81,17.55a42,42,0,0,0,11.3,14.54c4.59,4,9.25,8,12,13.68a30.3,30.3,0,0,1,2.51,18c-.91,5.32-2.61,11.47,1.1,16.07,3.18,3.93,8.16,5.24,12.11,8.06a19.12,19.12,0,0,1,7.54,13.46c1.6,13.6-8.84,24.1-20.32,28.62a.32.32,0,0,0-.1.43.3.3,0,0,0,.31.15c10.1-3.49,19.7-11.77,21.39-23.12A24,24,0,0,0,1823.18,545.91Z" transform="translate(-3)"/><path class="cls-11" d="M1791.89,835.89c-1.42-4.8-78.26-115.64-83.78-118-2.09-.9-6.16-4.24-25.55,9.11l-40.82-36.89-23.2,78.09,101.19,44.37s47.84,28.89,54.11,30.78S1793.32,840.7,1791.89,835.89Z" transform="translate(-3)"/><path class="cls-11" d="M1791.89,835.89c-1.42-4.8-78.26-115.64-83.78-118-2.09-.9-6.16-4.24-25.55,9.11l-40.82-36.89-23.2,78.09,101.19,44.37s47.84,28.89,54.11,30.78S1793.32,840.7,1791.89,835.89Z" transform="translate(-3)"/><path class="cls-12" d="M1678.44,794.52l41.19,18s47.86,28.88,54.11,30.76,19.52-2.67,18.08-7.45-78.25-115.65-83.76-118c-2.1-.9-6.16-4.24-25.54,9.11l-4.17-3.9Z" transform="translate(-3)"/><path class="cls-8" d="M1687.48,794.81a25.87,25.87,0,0,0-3.64-4.24,24,24,0,0,0-4.39-3.41,25.64,25.64,0,0,0,3.67,4.24A24.19,24.19,0,0,0,1687.48,794.81Z" transform="translate(-3)"/><path class="cls-8" d="M1687.58,787.41a26.5,26.5,0,0,0-3.65-4.25,25,25,0,0,0-4.39-3.41,23.55,23.55,0,0,0,3.65,4.25A24.6,24.6,0,0,0,1687.58,787.41Z" transform="translate(-3)"/><path class="cls-8" d="M1687.66,780a27.67,27.67,0,0,0-8-7.66,26,26,0,0,0,3.65,4.25A25,25,0,0,0,1687.66,780Z" transform="translate(-3)"/><path class="cls-8" d="M1687.75,772.61a27.71,27.71,0,0,0-8-7.65,24.19,24.19,0,0,0,3.64,4.24A24.77,24.77,0,0,0,1687.75,772.61Z" transform="translate(-3)"/><path class="cls-8" d="M1687.9,765.22a28.05,28.05,0,0,0-8-7.67,25.46,25.46,0,0,0,3.64,4.24A24.67,24.67,0,0,0,1687.9,765.22Z" transform="translate(-3)"/><path class="cls-8" d="M1687.9,757.81a25.52,25.52,0,0,0-3.65-4.24,24,24,0,0,0-4.39-3.41,27.65,27.65,0,0,0,8,7.65Z" transform="translate(-3)"/><path class="cls-8" d="M1688,750.4a27.78,27.78,0,0,0-8.07-7.66,27.64,27.64,0,0,0,8,7.65Z" transform="translate(-3)"/><path class="cls-8" d="M1688.1,743a25.87,25.87,0,0,0-3.64-4.24,24,24,0,0,0-4.39-3.41,24.26,24.26,0,0,0,3.64,4.25A24.8,24.8,0,0,0,1688.1,743Z" transform="translate(-3)"/><path class="cls-8" d="M1688.18,735.61a24.26,24.26,0,0,0-3.64-4.25,25.33,25.33,0,0,0-4.39-3.41,27.62,27.62,0,0,0,7.95,7.66Z" transform="translate(-3)"/><path class="cls-13" d="M1483.56,683.1c12.41,35.12,184.71,116.14,184.71,116.14L1697.45,706l-79.1-34.73,167.6-25.3-85.53-32.87s-16.23,7.08-28.2,3.51c-5.32-1.64-118.24-17.68-140.18-12C1483.54,616.93,1472.16,650.87,1483.56,683.1Z" transform="translate(-3)"/><path class="cls-8" d="M1578.91,649.94a83.76,83.76,0,0,1,9.74,4.91c3.36,1.74,6.75,3.43,10.1,5.18h.12l-2.26-1.88c-2.6-2.12-5-4.44-7.77-6.31a.17.17,0,0,1,0-.23.14.14,0,0,1,.16,0c2.82,1.81,5.81,3.39,8.47,5.47,1.26,1,2.47,2,3.66,3.05.65.57,1.32,1.14,1.94,1.75a8.22,8.22,0,0,1,.88.89c1.59.81,3,1.63,4.55,2.52,3.34,1.93,6.53,4.14,9.88,6,.18.11,0,.37-.17.27-3.3-1.72-6.75-3.11-10.06-4.8s-6.67-3.54-10-5.4-6.37-3.71-9.55-5.54a87.13,87.13,0,0,1-9.79-5.72C1578.72,650.07,1578.78,649.89,1578.91,649.94Z" transform="translate(-3)"/><path class="cls-8" d="M1658.79,776.85c.73-2.65,1.49-5.31,2.26-7.94,1.59-5.28,3.07-10.57,4.63-15.85,3.18-10.49,6.25-21,9.55-31.4,1.89-5.88,3.79-11.81,5.92-17.61a.27.27,0,1,1,.52.16c-2.61,10.7-5.84,21.3-9.05,31.77s-6.5,20.9-9.82,31.32c-.94,2.93-1.86,5.85-2.84,8.75s-2.11,5.9-3.08,8.87c0,.14-.27.08-.23,0C1657.45,782.2,1658.06,779.51,1658.79,776.85Z" transform="translate(-3)"/><path class="cls-11" d="M1750.28,530.59c-15.91,32.09-41.71,68.83-50,73.74-10.55,6.18-70.49,6.92-73.37,6.56-7.11-1.08-8.39-56.13-.73-55.31,11.66,1.26,53.11,9.62,56.2,7.67s26-20,49.94-40.67C1748.82,508.16,1760.18,510.7,1750.28,530.59Z" transform="translate(-3)"/><path class="cls-11" d="M1633.12,609.46c-.94.21-14.17,3.28-22,3.51-5.81.21-22.55.34-23.41-6.23-.59-4.47,9.25-5.75,16.19-6.8,3.66-.56,8.61-3.06,8.16-5.51-.76-4.27-10.22-2.63-16.63-.75-12.41,3.66-29.7,11.47-34.92,4.18-2-2.79,1.9-5.92,7.07-8.64-8,2.66-16.22,4.4-18.53,1.4-1.33-1.72-1-3.51.43-5.3a4.91,4.91,0,0,1-5.11-2.22c-1.59-3,.32-6.28,3.68-9.3a2.82,2.82,0,0,1-1.7-1.9c-2.92-8.68,26.07-23.87,34.77-23.74,25.59.38,50.77,8.11,50.77,8.11C1639.5,566.54,1633.13,609.45,1633.12,609.46Z" transform="translate(-3)"/><path class="cls-8" d="M1603.23,577.33a41,41,0,0,0-17.69,2.18c-7.14,2.57-12.39,6.37-18.74,9.94a.16.16,0,0,0,0,.23.15.15,0,0,0,.15.05c3-1.64,15.31-7.81,18.43-9.13a39.08,39.08,0,0,1,17.84-3.17C1603.29,577.43,1603.29,577.33,1603.23,577.33Z" transform="translate(-3)"/><path class="cls-8" d="M1601.32,565.59a97.6,97.6,0,0,0-20.39,1.81c-7.27,1.64-13.67,5.91-19.94,9.93q-5.64,3.6-11.14,7.49c-.16.09,0,.37.14.26q9.55-6.24,19.5-11.92a52.2,52.2,0,0,1,19.81-6.55c4-.48,8-.64,12-.8C1601.38,565.76,1601.4,565.59,1601.32,565.59Z" transform="translate(-3)"/><path class="cls-8" d="M1596.8,554.61c-6.48-.31-12.15-.59-18.43,1.4-8.34,2.62-17.19,8.39-20.3,10.44-3.43,2.26-6.79,4.65-10.1,7.09-.14.1,0,.35.16.25a208.37,208.37,0,0,1,23.58-14.29,41.38,41.38,0,0,1,12.26-4.31,75.05,75.05,0,0,1,12.89-.54S1596.83,554.61,1596.8,554.61Z" transform="translate(-3)"/><path class="cls-7" d="M1727.27,577.56l-18.83-41.15a284.35,284.35,0,0,1,27.68-20.26c16.28-10.5,24.24-4.76,14.53,20A170.91,170.91,0,0,1,1727.27,577.56Z" transform="translate(-3)"/><path class="cls-8" d="M1714.28,533.57c1.74,2.89,3.06,6.07,4.54,9.08s2.85,5.77,4.19,8.7q4.14,9.14,8,18.41c0,.11-.12.19-.17.09-3-5.91-5.81-11.84-8.6-17.84-1.38-3-2.69-6-4-9s-2.93-6.14-4-9.34a.09.09,0,0,1,.09-.1Z" transform="translate(-3)"/><path class="cls-7" d="M1820.42,662.62c-4,1.64-122.21-27.07-122.21-27.07l11.71-42.36s-7.45-13-4.91-26.07c3.35-17.44,32.91-47.33,35.25-49.16,9.44-7.16,18-8.56,26.31-4.56C1801.15,530.12,1820.42,662.62,1820.42,662.62Z" transform="translate(-3)"/><path class="cls-8" d="M1725,533.82c-2.82,3.75-5.87,7.34-8.8,11,1.32-2.69,2.63-5.41,4-8,0,0,0-.12-.08,0a60.22,60.22,0,0,0-5.42,10,78.91,78.91,0,0,0-6,8.79,38.54,38.54,0,0,0-4.78,11.88,32.56,32.56,0,0,0,.28,12.86,83.22,83.22,0,0,0,4.63,14.14c.25.61,1.08.18.89-.42-2.6-8-5.49-16.39-4.16-25s6.08-15.85,10.72-22.78a118,118,0,0,1,8.89-12.13C1725.41,533.85,1725.14,533.66,1725,533.82Z" transform="translate(-3)"/><rect class="cls-12" x="1530.93" y="607.05" width="129.26" height="5.96"/><polygon class="cls-14" points="1530.93 607.05 1530.93 613.02 1618.8 613.02 1614.38 607.05 1530.93 607.05"/><polygon class="cls-12" points="1608.79 613.02 1482.8 613.02 1472.32 524.92 1598.32 524.92 1608.79 613.02"/><path class="cls-1" d="M1551.23,569a7.63,7.63,0,0,1-7.35,7.89h-.19a7.94,7.94,0,0,1-7.8-7.89,7.63,7.63,0,0,1,7.35-7.9h.18A8,8,0,0,1,1551.23,569Z" transform="translate(-3)"/><path class="cls-11" d="M1781.8,530.08c13.81,23.68,41.74,104.11,25.46,115.38s-90.24-21-110.13-35.46c-5.92-4.31,25.54-41.34,33.29-41,6.37.31,34.78,20.43,36,18.68s-1.81-18.39-4.77-48.64C1758.35,504.21,1773.84,516.47,1781.8,530.08Z" transform="translate(-3)"/><path class="cls-11" d="M1700.63,550c-15.3-5.05-20-3.92-30.69-15.23-7-7.42-14.65-6-11.66,4.35,4.88,16.91,23.28,27.67,30.71,29.49Z" transform="translate(-3)"/><path class="cls-11" d="M1739.64,572.92s-15.92-13.21-31.71-20.24c-10.91-4.91-35.81-12.7-64.5,8.82-6.81,5.11-13,17.35,1.07,13.11,10-3,15.45-8,21.56-8.61,0,0-6.06,16.54-.84,23.35a159.11,159.11,0,0,0,14.91,16.83,32.89,32.89,0,0,0,3.31-2.6s5.48,5.9,17.51,6.85Z" transform="translate(-3)"/><path class="cls-11" d="M1696.79,549.76c-5.93,2-18.44,6.31-27.48,13.54-10,8.05-27.27,26.3-21.42,33.87,4.28,5.56,11.45-.83,11.45-.83s-5.58,9.09-.65,13.24c4.49,3.77,9.76-1.51,9.76-1.51s-2.47,6.11,2.54,8.9c6,3.27,10.19-10,19.1-12.08C1692.13,604.43,1696.79,549.76,1696.79,549.76Z" transform="translate(-3)"/><path class="cls-8" d="M1679.32,572.8c-5.29,2.79-15.73,12.28-20,23.27-.1.25,0,.46.17.25a127,127,0,0,1,19.93-23.42S1679.38,572.77,1679.32,572.8Z" transform="translate(-3)"/><path class="cls-8" d="M1686.91,583.47c-4.33,2.89-14.67,13.11-18.65,24.45,0,.26,0,.46.19.25A136.27,136.27,0,0,1,1687,583.59S1687,583.44,1686.91,583.47Z" transform="translate(-3)"/><path class="cls-8" d="M1666.08,566c-5.38.64-9.14,2.64-14,4.92a67.09,67.09,0,0,1-7.31,3.11c-2.27.81-5.63,2-7.54-.21a4.47,4.47,0,0,1-.22-4.46,21.54,21.54,0,0,1,3.82-5.49s0-.16-.11-.09a31.24,31.24,0,0,0-4,4.76,7.27,7.27,0,0,0-1.14,4c.25,3,3.51,4,6,3.62a22.94,22.94,0,0,0,4.36-1.28c1.37-.53,2.7-1.1,4-1.64,2.71-1.26,5.35-2.67,8-4a70.6,70.6,0,0,1,8-3.08C1666.22,566.12,1666.17,566,1666.08,566Z" transform="translate(-3)"/><path class="cls-8" d="M1652.26,582.55a168.64,168.64,0,0,1,13.9-16.38s0-.18-.1-.12c-4.63,3.18-12.73,12.36-14.8,15.41s-4.43,6.88-5,10.52c-.92,5.49,2.44,7.16,3.69,7.67a7,7,0,0,0,4.68,0,14.37,14.37,0,0,0,4.78-3.28s0-.18-.1-.12c-2.21,1.84-5.65,3.43-8.48,2.51a5,5,0,0,1-3-2.42,6.8,6.8,0,0,1-.12-4.58A31.73,31.73,0,0,1,1652.26,582.55Z" transform="translate(-3)"/><path class="cls-7" d="M1804.67,573.07l-43.79-6a304.16,304.16,0,0,1-1.59-34.94c.23-19.78,9.23-23.56,24.16-1.78A170.79,170.79,0,0,1,1804.67,573.07Z" transform="translate(-3)"/><path class="cls-8" d="M1761.73,560.53a93.93,93.93,0,0,1,9.87,1c3.27.34,6.25.65,9.35,1.08,6.48.9,12.89,1.93,19.32,3.11.12,0,.1.22,0,.22q-9.63-1-19.22-2.23c-3.18-.41-6.37-.9-9.55-1.4s-6.61-.78-9.82-1.55a.11.11,0,0,1-.07-.13A.1.1,0,0,1,1761.73,560.53Z" transform="translate(-3)"/><path class="cls-8" d="M1759.87,562.48c-.18-1.64-.31-3.28-.4-4.92v-1c-.53-2-1-4-1.39-6.06,0,0,.1-.1.11,0a45.39,45.39,0,0,1,1.2,4.62c-.13-2.54-.21-5.08-.1-7.61m.13,0c.4,3.28.59,6.56.89,9.93.14,1.64.67,9.51.75,9.52s3.64.61,3.87.74.11.31,0,.31l-4.54-.6s-.38-3.46-.52-4.92Z" transform="translate(-3)"/><path class="cls-11" d="M1330.47,783.7c4.15,2.61,133.1,32.89,138.73,30.84,2.14-.77,7.34-1,13.21-24.28,1.26-5,83.54-45.53,83.54-45.53l-85.35-39.32-81.17,46.31s-54.4,11.14-60.33,14.07S1326.32,781.08,1330.47,783.7Z" transform="translate(-3)"/><path class="cls-12" d="M1330.47,783.7c4.17,2.62,133.1,32.91,138.73,30.86,2.14-.75,7.36-1,13.2-24.29.36-1.37,7.35-5.24,17.33-10.12l-84.61-37.41-15.63,8.93s-54.39,11.16-60.33,14.06S1326.32,781.08,1330.47,783.7Z" transform="translate(-3)"/><path class="cls-8" d="M1493.57,780.16a24.84,24.84,0,0,0-5.16,2,24.18,24.18,0,0,0-4.68,3,26.9,26.9,0,0,0,9.84-4.92Z" transform="translate(-3)"/><path class="cls-8" d="M1486.9,777.39a24.84,24.84,0,0,0-5.16,2,24.33,24.33,0,0,0-4.67,3,24,24,0,0,0,5.15-2A23.68,23.68,0,0,0,1486.9,777.39Z" transform="translate(-3)"/><path class="cls-8" d="M1480.25,774.64a26.56,26.56,0,0,0-9.85,4.92,23.49,23.49,0,0,0,5.15-2A24.72,24.72,0,0,0,1480.25,774.64Z" transform="translate(-3)"/><path class="cls-8" d="M1473.58,771.87a26.63,26.63,0,0,0-9.85,4.92,23.45,23.45,0,0,0,5.17-2A24.57,24.57,0,0,0,1473.58,771.87Z" transform="translate(-3)"/><path class="cls-8" d="M1466.91,769.1a26.78,26.78,0,0,0-9.85,4.92,23.9,23.9,0,0,0,5.17-1.95A25.17,25.17,0,0,0,1466.91,769.1Z" transform="translate(-3)"/><path class="cls-8" d="M1460.31,766.33a23.38,23.38,0,0,0-5.16,2,23.78,23.78,0,0,0-4.77,3,27,27,0,0,0,9.85-4.92Z" transform="translate(-3)"/><path class="cls-8" d="M1453.57,763.56a27.65,27.65,0,0,0-9.83,4.92,24.22,24.22,0,0,0,5.16-2A23.81,23.81,0,0,0,1453.57,763.56Z" transform="translate(-3)"/><path class="cls-8" d="M1446.91,760.76a24.41,24.41,0,0,0-5.16,2,23.05,23.05,0,0,0-4.68,2.95,24.62,24.62,0,0,0,5.16-2A23.62,23.62,0,0,0,1446.91,760.76Z" transform="translate(-3)"/><path class="cls-8" d="M1440.24,758a26.9,26.9,0,0,0-9.84,4.92,23.38,23.38,0,0,0,5.16-2A24.57,24.57,0,0,0,1440.24,758Z" transform="translate(-3)"/><path class="cls-8" d="M1433.57,755.27a26.94,26.94,0,0,0-9.84,4.93,22.86,22.86,0,0,0,5.16-2A24.67,24.67,0,0,0,1433.57,755.27Z" transform="translate(-3)"/><path class="cls-8" d="M1426.88,752.57a23.94,23.94,0,0,0-5.15,1.95,24.4,24.4,0,0,0-4.68,3,23.32,23.32,0,0,0,5.16-2A24.33,24.33,0,0,0,1426.88,752.57Z" transform="translate(-3)"/><path class="cls-8" d="M1420.25,749.73a23.45,23.45,0,0,0-5.17,2,24.36,24.36,0,0,0-4.68,3,27.11,27.11,0,0,0,9.85-4.94Z" transform="translate(-3)"/><path class="cls-8" d="M1413.58,747a24.71,24.71,0,0,0-5.17,2,24.1,24.1,0,0,0-4.68,3,25.24,25.24,0,0,0,5.17-2A24.28,24.28,0,0,0,1413.58,747Z" transform="translate(-3)"/><path class="cls-13" d="M1421,736.18l87,43,142.9-72.7s32.76,26.13,67.93,32.93c23.87,4.62,74,4.42,93.42-24.21,16.35-24.09,6.69-52.44,6.69-52.44L1791.51,650s-64.49-47.52-104.85-51.82C1625.08,591.45,1421,736.18,1421,736.18Z" transform="translate(-3)"/><path class="cls-8" d="M1767.47,633.44c3.92,2.4,7.72,5,11.57,7.48s7.71,4.71,11.35,7.41,7.23,5.72,10.74,8.72c1.69,1.44,3.38,2.9,5,4.39a42.51,42.51,0,0,1,4.77,4.72c.13.16-.09.38-.25.3a49.79,49.79,0,0,1-5.27-3.86c-1.86-1.39-3.68-2.8-5.52-4.21-3.55-2.7-7.16-5.32-10.7-8s-6.81-5.68-10.31-8.42-7.64-5.62-11.51-8.37C1767.3,633.52,1767.35,633.39,1767.47,633.44Z" transform="translate(-3)"/><path class="cls-8" d="M1651,706.52a201.69,201.69,0,0,0,23,15.18L1710.18,675Z" transform="translate(-3)"/><path class="cls-8" d="M1441.88,728.09c2.85,1.14,5.65,2.52,8.45,3.81s5.52,2.56,8.27,3.87c5.62,2.67,11.14,5.44,16.79,8.19,11.15,5.54,36.26,20,42.48,23.26.11,0,0,.26-.09.21-11.24-5.14-46.43-23.3-57.55-29l-9.22-4.92c-3-1.64-6.25-3.28-9.26-5.14C1441.62,728.27,1441.72,728,1441.88,728.09Z" transform="translate(-3)"/><path class="cls-8" d="M1487.94,691.18c2.37-2,52.9-33.3,63.77-39.65s21.82-12.47,32.93-18.31,22.28-11.39,33.77-16.38,22.79-9.72,34.54-13.56c1.49-.49,3-1,4.48-1.5.15,0,.2.18,0,.23-6,2.09-11.74,4.63-17.5,7.07s-11.41,4.92-17.06,7.51q-16.95,7.81-33.43,16.58c-11,5.82-21.83,11.93-32.57,18.24s-21.52,12.83-32.19,19.42c-5.33,3.28-35,20.24-36.39,20.88C1488,691.76,1487.68,691.41,1487.94,691.18Z" transform="translate(-3)"/><path class="cls-8" d="M1567.24,748.47c5.33-3,10.76-5.83,16.16-8.72s10.83-5.67,16.28-8.44q16.18-8.19,32.51-16.24c6.15-3,12.32-6.09,18.64-8.71.13,0,.24.13.11.19-5.24,3.17-10.68,6-16.09,8.82s-10.87,5.6-16.31,8.39c-10.79,5.52-21.57,11.08-32.49,16.29-6.19,3-12.35,6-18.6,8.8C1567.21,749,1566.94,748.6,1567.24,748.47Z" transform="translate(-3)"/><path class="cls-11" d="M1761.62,515.65c0,2.23-6.83,18.27-16.33,20-3.09.57-6.81-16.7-6.81-16.7l-.56-1.2-7.78-16.94,19.94-20.65S1761.6,514.71,1761.62,515.65Z" transform="translate(-3)"/><path class="cls-8" d="M1730.14,500.8l7.78,16.93A37.83,37.83,0,0,0,1754,492c-2-6-3.63-11-3.86-11.72h0l-2.57,2.46Z" transform="translate(-3)"/><path class="cls-11" d="M1698.11,481.79c4.48,32.56,23.88,33.48,30.74,32.48,6.19-.92,27.15-4.82,26-37.69s-17.28-41-31.54-39.7S1693.64,449.21,1698.11,481.79Z" transform="translate(-3)"/><path class="cls-8" d="M1702,478.27a20.61,20.61,0,0,0,2-.94,3.44,3.44,0,0,0,1.88-1.34,1.19,1.19,0,0,0-.29-1.39,2.73,2.73,0,0,0-2.86,0,4.14,4.14,0,0,0-2.23,2,1.26,1.26,0,0,0,.7,1.61A1.16,1.16,0,0,0,1702,478.27Z" transform="translate(-3)"/><path class="cls-8" d="M1723.26,473.89a20.18,20.18,0,0,1-2.2,0,3.57,3.57,0,0,1-2.26-.44,1.21,1.21,0,0,1-.28-1.39,2.79,2.79,0,0,1,2.58-1.26,4.08,4.08,0,0,1,2.84.91,1.27,1.27,0,0,1,.12,1.76A1.19,1.19,0,0,1,1723.26,473.89Z" transform="translate(-3)"/><path class="cls-8" d="M1719.12,479.61c0-.1.18,0,.19.17.34,2.21,1.09,4.68,3.19,5v.13C1720.05,485.05,1719.09,481.76,1719.12,479.61Z" transform="translate(-3)"/><path class="cls-8" d="M1720.6,476.94c3.39-.93,5,6.1,1.83,7S1717.77,477.73,1720.6,476.94Z" transform="translate(-3)"/><path class="cls-8" d="M1722,477c.69.26,1.44.82,2.17.72s1.32-1,1.7-1.83c0-.09.11,0,.13,0a2.67,2.67,0,0,1-1.23,3.39c-1.24.49-2.43-.49-3-1.77C1721.62,477.27,1721.75,476.89,1722,477Z" transform="translate(-3)"/><path class="cls-8" d="M1707.36,481.84s-.14.13-.11.23c.57,2.16.87,4.74-.88,5.93m0,.12c2.3-.92,1.87-4.3,1-6.28Z" transform="translate(-3)"/><path class="cls-8" d="M1704.94,480c-3.45.58-2.1,7.65,1.12,7.13S1707.85,479.55,1704.94,480Z" transform="translate(-3)"/><path class="cls-8" d="M1703.6,480.78c-.47.49-.87,1.27-1.59,1.45s-1.44-.44-2.07-1.08c0,0-.11,0-.09.1.22,1.36.94,2.69,2.24,2.69s1.83-1.33,1.88-2.75C1704.05,480.92,1703.81,480.55,1703.6,480.78Z" transform="translate(-3)"/><path class="cls-8" d="M1723.87,498.67c-.35.64-.67,1.47-1.42,1.77a5.73,5.73,0,0,1-2.4.1m0,.13a2.84,2.84,0,0,0,3,.41,2.39,2.39,0,0,0,1.13-2.38.16.16,0,0,0-.28,0Z" transform="translate(-3)"/><path class="cls-8" d="M1713,492.57s.25,3.38.58,4.92c0,.15.4.13.93,0h0a7.26,7.26,0,0,0,6.36-4.28c0-.18-.14-.29-.27-.16a10.92,10.92,0,0,1-6.08,3.38c-.2-.41-.25-5.79-.49-5.76a13.13,13.13,0,0,0-3.18,1.64c-.72-7-.35-14.06-1.18-21,0-.24-.38-.24-.4,0-.91,7.38-.24,15.44.32,22.68C1709.62,494.82,1712.45,493,1713,492.57Z" transform="translate(-3)"/><path class="cls-8" d="M1715.24,496.8a8,8,0,0,0,3.71,1.92,3.48,3.48,0,0,0,2.24-.3c1.59-.75,1.26-2.26.73-3.49a9.12,9.12,0,0,0-1.09-1.83A10.54,10.54,0,0,1,1715.24,496.8Z" transform="translate(-3)"/><path class="cls-15" d="M1719,498.72a3.48,3.48,0,0,0,2.24-.3c1.59-.75,1.26-2.26.73-3.49A3.91,3.91,0,0,0,1719,498.72Z" transform="translate(-3)"/><path class="cls-8" d="M1754.74,476.63c-5,1.87-9.18-8.88-9.18-8.88s-10.44,3-18-11.47a24.74,24.74,0,0,0,8,11.47s-19,3.28-31-10.42c0,0,5.26,7.19,8.93,9.24,0,0-8.32,0-13.81-5.41,0,0-.77,10.08-2.56,13.31,0,0-8.15-33.38,22.64-38.35,0,0,19.1-4,29.83,9.29S1754.74,476.63,1754.74,476.63Z" transform="translate(-3)"/><path class="cls-7" d="M1756,474.32c.14,4.64,4.12-18.29,3.18-21.3s-10.84-16.72-25.16-19.62c-12-2.39-24.08,5.11-26.16,6.46a19.59,19.59,0,0,0-5.88,5.8s15.73-9.83,31.4-9.64C1740.93,436.15,1755.49,457,1756,474.32Z" transform="translate(-3)"/><path class="cls-7" d="M1739.05,430.47s-5.81-8.29-14.42-8.65c0,0,.94,8.7,4.15,11.35,1.59,1.33,8.34,1.43,9,.21A15.21,15.21,0,0,0,1739.05,430.47Z" transform="translate(-3)"/><path class="cls-16" d="M1739.05,430.47a16.6,16.6,0,0,1-1.23,2.91.26.26,0,0,1-.11.14.52.52,0,0,1-.19.14l-.16.09a9.44,9.44,0,0,1-3.69.47,20.93,20.93,0,0,1,.65-3.85,5.66,5.66,0,0,1,2.39-2.59A22.23,22.23,0,0,1,1739.05,430.47Z" transform="translate(-3)"/><path class="cls-7" d="M1741.23,431.5s11.78-2.79,17.7-.56c0,0-2.68,6.64-8.53,8.66-2.63.91-10.79-3.49-10.48-4.92A12.47,12.47,0,0,1,1741.23,431.5Z" transform="translate(-3)"/><path class="cls-16" d="M1743.92,431a7.64,7.64,0,0,1,0,4.08,6.42,6.42,0,0,1-1.42,2.13c-1.59-1-2.75-2-2.64-2.56a12.52,12.52,0,0,1,1.31-3.11S1742.28,431.24,1743.92,431Z" transform="translate(-3)"/><path class="cls-7" d="M1742.66,434.19a3.89,3.89,0,0,1-5.16,2.12,4.09,4.09,0,0,1-2.07-5.31,3.9,3.9,0,0,1,5.17-2.13h0a4.07,4.07,0,0,1,2.06,5.29Z" transform="translate(-3)"/><path class="cls-11" d="M1750.14,479.83s4.55-11.62,9.55-10.16,3.18,17.15-1.59,20.36a5.28,5.28,0,0,1-7.56-1,2.43,2.43,0,0,1-.14-.2Z" transform="translate(-3)"/><path class="cls-8" d="M1759,474.16s.13.08,0,.13c-3.29,2.37-4.42,6.29-5,10.21a3,3,0,0,1,3.74-2l.43.17c.11,0,0,.22,0,.22a3.33,3.33,0,0,0-3.3,2,17.36,17.36,0,0,0-1,3.38c-.1.38-.73.33-.69,0v-.1C1752.05,483.33,1754.15,475.81,1759,474.16Z" transform="translate(-3)"/></g><g id="freepik--Dog--inject-46"><path class="cls-7" d="M1202.83,753.67c0,1.85,7.19,7.81,15.83,8.52s22.67-2.81,25.66-2.46,2.63,8.77,5.6,10.55,9.77-3.18,11.14-5.6-1.35-11.34-3.71-12.49-17.73-8-19.89-15.34S1202.84,750.77,1202.83,753.67Z" transform="translate(-3)"/><path class="cls-17" d="M1202.83,753.67c0,1.85,7.19,7.81,15.83,8.52s22.67-2.81,25.66-2.46,2.63,8.77,5.6,10.55,9.77-3.18,11.14-5.6-1.35-11.34-3.71-12.49-17.73-8-19.89-15.34S1202.84,750.77,1202.83,753.67Z" transform="translate(-3)"/><path class="cls-7" d="M1112,758.55c-.86,4.65,6,15.8,8.9,17.53s10.9,4,12.4,5.39,2.54,4.71,4.63,6,10,1.16,11,0,0-5.36-1.59-6.1a15.53,15.53,0,0,1-4.13-1.92c-.9-.91-4.22-19.92-8.89-24.48S1112.83,754.21,1112,758.55Z" transform="translate(-3)"/><path class="cls-17" d="M1112,758.55c-.86,4.65,6,15.8,8.9,17.53s10.9,4,12.4,5.39,2.54,4.71,4.63,6,10,1.16,11,0,0-5.36-1.59-6.1a15.53,15.53,0,0,1-4.13-1.92c-.9-.91-4.22-19.92-8.89-24.48S1112.83,754.21,1112,758.55Z" transform="translate(-3)"/><path class="cls-7" d="M1284.24,698.18c-8.14,10.21-26.17,14.17-30.75,16.65s-12.64,17.17-17.24,22.83-27,22.25-40.06,24.58-38-4.13-43-4-23.67,3.39-24.41,3.75-9,9.5-11.14,11.91-9.38,8.75-10.13,9.44a2.21,2.21,0,0,0,.43,3l.08.06c1,.73,3,4.5,1.13,5.58s-7.6,1.82-9.72.66-3.61-4.79-4.68-6.65,5.84-15,7.15-19-6.67-21-4.54-27.12,22-26.95,32.07-26.64h6.94c9.88,0,26.78-.26,42.49-1.25,13.53-.82,26.14-2.18,32.5-4.27,16.06-5.28,22.28-27.58,31.23-30s17.58,1,21.44.15c5.6-1.23,19.84-11.62,22.42-10.15C1290.28,670.16,1289.6,691.48,1284.24,698.18Z" transform="translate(-3)"/><path class="cls-8" d="M1127.33,762.81a7.12,7.12,0,0,0,1.76-2.47c.45-1,.86-1.92,1.23-2.91.73-1.95,1.21-4,1.83-5.94a.11.11,0,0,1,.14-.07.16.16,0,0,1,.07.07,27.18,27.18,0,0,1-.72,4.91,4.77,4.77,0,0,0,1-1.64.14.14,0,0,1,.17-.09.15.15,0,0,1,.09.18h0a4.93,4.93,0,0,1-1.42,2.06c-.1.33-.19.67-.3,1a9.87,9.87,0,0,1-1.44,2.77,19.12,19.12,0,0,1-2.21,2.29A.13.13,0,1,1,1127.33,762.81Z" transform="translate(-3)"/><path class="cls-7" d="M1129.35,713.24c-5.88-.43-14.49-.18-19.88,3.42s-15.79,21.19-23.87,25.14-21.65,1.77-21.74,2.59,12.84,3.85,22,1,21-23.63,29.81-24.86A23.29,23.29,0,0,0,1129.35,713.24Z" transform="translate(-3)"/><path class="cls-8" d="M1251.05,688.66c3-3,8.28,3.1,5.46,5.87S1248.51,691.1,1251.05,688.66Z" transform="translate(-3)"/><path class="cls-8" d="M1287.94,678.27c2-.77,2.74-9,.94-11.68s-13.84,5.44-13.72,8.19S1285.72,679.09,1287.94,678.27Z" transform="translate(-3)"/><path class="cls-8" d="M1238.45,680.32c.36-1.21-6.56,2.26-12.18,7.68a35.83,35.83,0,0,0-6.78,10c-1.06,3.18,3.33,23.58,9.9,26.56,4.49,2,10.44-13,10.79-16.55S1235.38,690.69,1238.45,680.32Z" transform="translate(-3)"/><path class="cls-8" d="M1170.11,731.05c-3,1.76-6.37,2-9.78,2.54a54.18,54.18,0,0,0-13.51,4c-5.7,2.41-12.13,3.52-15.21-3.38s-.18-14.75,4.68-20.83c9.88,0,26.78-.26,42.49-1.24C1179.59,719.22,1175.79,727.77,1170.11,731.05Z" transform="translate(-3)"/><path class="cls-8" d="M1197.26,729.2c-3.58,2.54-10.3,1.85-12.16-2.74-1-2.62,1-4.6,2.61-6.35a17.09,17.09,0,0,1,1.59-1.48,13.34,13.34,0,0,1,3.39-2.74,4.38,4.38,0,0,1,6,.79C1202,720.15,1201,726.51,1197.26,729.2Z" transform="translate(-3)"/><path class="cls-13" d="M1217,705.05c.11,2,3.3,26.66,22.82,27.67,1.2,0-.08,4.15-2.26,4.12s-23.87-3.56-24-30.71C1213.62,704.41,1216.8,703.41,1217,705.05Z" transform="translate(-3)"/><path class="cls-7" d="M1197.7,745.64c-3.42,2.86-10.93,22.94-9.88,26.58s7.16,10.48,7.69,11.29.24,1.82,1.94,2.67,10.9.37,12-.81a5.85,5.85,0,0,0-.39-6.29c-1.39-1.24-4.78-1.26-5.46-2.08s-2.23-5.33-1.59-6.7,14.32-10.08,15.91-16.88S1203.05,741.1,1197.7,745.64Z" transform="translate(-3)"/><path class="cls-8" d="M1190.94,757.39c.32-1,.7-2,1.08-3v-.09c.14-1.14.27-2.29.45-3.42a16.75,16.75,0,0,1,.71-3.36c0-.1.19-.08.18,0-.13,1.1-.42,2.2-.61,3.28s-.25,1.75-.33,2.64l.3-.79a99.18,99.18,0,0,1,4.44-9.09h.11c-1.32,3.12-2.51,6.32-3.74,9.5-.59,1.56-1.17,3.15-1.81,4.69s-1.4,3.27-1.91,4.91c0,.2-.37.12-.3-.08C1190.05,760.88,1190.4,759.12,1190.94,757.39Z" transform="translate(-3)"/></g><g id="freepik--Mug--inject-46"><path class="cls-18" d="M1777.28,739.92s-26-12.3-26-28.92S1785,683.78,1785,670.83s-14.74-20.55-14.74-20.55,23.27,8.19,23.27,24.59-22.26,27.47-24.39,37.89C1766.21,727.2,1777.28,739.92,1777.28,739.92Z" transform="translate(-3)"/><path class="cls-18" d="M1776,739.92s26-9.72,26-22.73-33.78-21.42-33.78-31.62S1783,669.41,1783,669.41s-23.27,6.43-23.27,19.32,25.59,21.73,27.4,32.18S1776,739.92,1776,739.92Z" transform="translate(-3)"/><rect class="cls-7" x="1761.62" y="781.56" width="24.77" height="3.99"/><rect class="cls-8" x="1761.62" y="781.56" width="24.77" height="2.63"/><path class="cls-7" d="M1818.8,770.85a13.83,13.83,0,0,1-14,6.15,14.47,14.47,0,0,1-2.51-.74,16.77,16.77,0,0,1-3.41-1.9l3.14-4.81a10.79,10.79,0,0,0,1.86,1.09,8.11,8.11,0,0,0,10.37-3.13c3.41-4.92,4.61-16.14,1.18-20.44-.24-.34-1.23-.83-5.22,0-.74.17-1.57.36-2.51.63a9.82,9.82,0,0,1-2.27.51l-.1-2.88-.28-2.88,1.18-.32a35.31,35.31,0,0,1,5.65-1.21c2.93-.32,6,0,7.9,2.44C1825.32,750.44,1823.05,764.7,1818.8,770.85Z" transform="translate(-3)"/><path class="cls-8" d="M1802,769.55a11.6,11.6,0,0,0,1.86,1.09l-1.5,5.62a16.77,16.77,0,0,1-3.41-1.9Z" transform="translate(-3)"/><path class="cls-8" d="M1811.84,741l-1.7,6.15c-.74.18-1.57.37-2.51.63a8.89,8.89,0,0,1-2.27.51l-.1-2.88-.28-2.88,1.18-.32A35.67,35.67,0,0,1,1811.84,741Z" transform="translate(-3)"/><path class="cls-7" d="M1744.06,733.43s3,26,8.11,36.89,12.3,12.16,16.75,12.16h16.19c4.45,0,11.62-1.21,16.75-12.16s8.11-36.89,8.11-36.89Z" transform="translate(-3)"/><path class="cls-1" d="M1802.12,737.84a3,3,0,1,1-2.92,3v0A3,3,0,0,1,1802.12,737.84Zm-28.73,2.39a2.94,2.94,0,1,0,2.93-3h0a3,3,0,0,0-2.92,3Zm0,37.84a2.94,2.94,0,1,0,2.93-3h0a3,3,0,0,0-2.92,3v0ZM1752.17,761a2.94,2.94,0,1,0,2.95-3h0a3,3,0,0,0-2.93,3Zm32.51,8.91a2.94,2.94,0,1,0,2.94-3h0A3,3,0,0,0,1784.68,769.9Zm-34.36-29.67a2.94,2.94,0,1,0,3-3,3,3,0,0,0-3,3v0Zm23.43,20.34a2.94,2.94,0,1,0,3-3h0A3,3,0,0,0,1773.75,760.57Zm22.18.48a2.93,2.93,0,1,0,3-3h0a3,3,0,0,0-2.93,3ZM1761.81,751a2.93,2.93,0,1,0,3-3h0a3,3,0,0,0-3,2.9v0Zm.8,19.48a2.94,2.94,0,1,0,2.93-3h0a3,3,0,0,0-3,2.9.17.17,0,0,1,0,.07ZM1786.17,751a2.94,2.94,0,1,0,2.95-3h0a3,3,0,0,0-3,2.93v0Z" transform="translate(-3)"/></g><g id="freepik--character-1--inject-46"><path class="cls-19" d="M935.31,332.92c9.29,46.88,30.27,103.48,39.92,112.9,12.15,11.93,94.81,36.05,98.94,36.71,10.28,1.38,34-68,23.07-69.89-16.63-2.93-77.33-8.41-80.83-12.08s-28-35.41-52.87-71C946.3,305,929.55,303.81,935.31,332.92Z" transform="translate(-3)"/><path class="cls-19" d="M1066,478.42c1.19.63,18.31,9.6,29,13,8,2.53,31.08,9.18,34.89,1.18,2.6-5.45-10.42-10.88-19.69-14.91-4.84-2.13-10.69-7.22-9.11-10.14,2.76-5.13,15.2.6,23.33,5.49,15.72,9.45,36.45,26.22,46.66,18.86,3.83-2.77-.25-8.19-6.34-13.7,10,6.46,20.69,11.86,25.1,8.95,2.52-1.64,2.74-4.08,1.49-6.89,3.13,1.1,5.92,1,8-.85,3.47-3.16,2-8.09-1.37-13.21a4,4,0,0,0,3.1-1.76c7.5-9.84-26.55-40.4-38.63-43.59-35.59-9.46-73.51-9.43-73.51-9.43C1074.28,421.55,1066,478.4,1066,478.42Z" transform="translate(-3)"/><path class="cls-8" d="M1120.17,449.25a62.62,62.62,0,0,1,23.59,9.63c8.87,6,14.61,12.9,22,19.88a.21.21,0,0,1-.29.3c-3.47-3.28-18.07-15.87-21.85-18.74a59.62,59.62,0,0,0-23.45-10.91S1120.08,449.23,1120.17,449.25Z" transform="translate(-3)"/><path class="cls-8" d="M1127.5,435.11c9.33,2.8,18.9,5.63,27.49,10.19,9.39,4.91,16.56,12.8,23.62,20.33q6.38,6.78,12.41,13.82c.18.19-.1.49-.29.28q-10.74-11.66-22.22-22.68a77.21,77.21,0,0,0-24.79-16.11c-5.31-2.15-10.79-3.92-16.26-5.67C1127.36,435.24,1127.39,435.07,1127.5,435.11Z" transform="translate(-3)"/><path class="cls-8" d="M1138.14,422.91c9.09,2.13,17,4,24.94,8.92,10.5,6.55,20.43,17.32,23.92,21.12,3.83,4.21,7.53,8.54,11.16,12.93.15.18-.18.43-.33.25A295.12,295.12,0,0,0,1171,438.87a61,61,0,0,0-15.23-10.2,113.28,113.28,0,0,0-17.63-5.69S1138.08,422.9,1138.14,422.91Z" transform="translate(-3)"/><path class="cls-7" d="M1083.2,408.3l-29,75.87s-68.77-21.44-80.92-34.87-32.72-81.2-38.19-113.88,11.82-31.13,26.89-10.14,52.63,72.1,54.8,73.25S1083.2,408.3,1083.2,408.3Z" transform="translate(-3)"/><path class="cls-1" d="M987.54,360.46l-.47-.16a2.59,2.59,0,0,1-1.51-2,3.05,3.05,0,0,0-.28-.87c-.26-.35-.5-.71-.78-1a3.27,3.27,0,0,0-1.59-.84,3.64,3.64,0,0,0-1.91.12c-.56.18-1.11.31-1.74.52a7.81,7.81,0,0,1,1.74.13,3.59,3.59,0,0,1,1.49.23,2.55,2.55,0,0,1,1.58,1.95,3.34,3.34,0,0,0,2.55,2.82,3.09,3.09,0,0,0,1.48,0A5.46,5.46,0,0,0,987.54,360.46Zm-47.25-50.14.39.11a3.3,3.3,0,0,0,1.92,0l.75-.21A7.34,7.34,0,0,0,940.29,310.32Zm51.59,119.07a3.4,3.4,0,0,1-1.48-.28,2.62,2.62,0,0,1-1.51-2,3.35,3.35,0,0,0-2.65-2.75,3.54,3.54,0,0,0-1.91.1c-.56.18-1.13.31-1.74.52a7.76,7.76,0,0,1,1.74.13,3.59,3.59,0,0,1,1.49.23,2.55,2.55,0,0,1,1.58,1.95,3.34,3.34,0,0,0,2.55,2.82,3.52,3.52,0,0,0,1.93,0c.56-.18,1.11-.31,1.74-.52A12.35,12.35,0,0,0,991.88,429.39Zm-11.54-33.06a3.26,3.26,0,0,1-1.23.84,2.8,2.8,0,0,1-2.59-.33,3.62,3.62,0,0,0-4.88.55,5.11,5.11,0,0,0-.33.48c-.24.51-.55,1-.78,1.5a15.55,15.55,0,0,0,1.34-1.09,3.44,3.44,0,0,1,1.25-.78,2.82,2.82,0,0,1,2.58.42,3.63,3.63,0,0,0,3.94.18,3.37,3.37,0,0,0,1.29-1.36c.26-.49.55-1,.78-1.49A10.07,10.07,0,0,0,980.34,396.33Zm18.54,56.59a3.19,3.19,0,0,1-1.24.83,2.79,2.79,0,0,1-2.57-.32,3.75,3.75,0,0,0-3.92-.3,3.44,3.44,0,0,0-1.32,1.33c-.26.51-.55,1-.78,1.49.47-.33.89-.72,1.32-1.08a3.33,3.33,0,0,1,1.25-.79,2.82,2.82,0,0,1,2.59.43,3.65,3.65,0,0,0,3.94.16,3.36,3.36,0,0,0,1.28-1.34c.26-.49.56-1,.78-1.49a17.19,17.19,0,0,0-1.37,1.08ZM967.63,333.16l-.41.08a3.44,3.44,0,0,0-3,2.41,3,3,0,0,0,0,1.82c.19.53.33,1.07.55,1.64.09-.56.09-1.1.14-1.64a3.06,3.06,0,0,1,.3-1.39,2.72,2.72,0,0,1,2.13-1.43,4,4,0,0,0,1-.29ZM956,371.43c-.19-.53-.33-1.07-.56-1.64a6.46,6.46,0,0,1-.14,1.64,3,3,0,0,1-.24,1.41,2.67,2.67,0,0,1-2.07,1.49,3.41,3.41,0,0,0-3,2.41,3,3,0,0,0,0,1.81c.19.53.33,1.07.55,1.64.09-.55.09-1.09.14-1.64a2.82,2.82,0,0,1,.3-1.39,2.71,2.71,0,0,1,2.13-1.42,3.42,3.42,0,0,0,2.92-2.51A3,3,0,0,0,956,371.43Zm-12.93-31a3.61,3.61,0,0,1-1.25.78,2.84,2.84,0,0,1-2.59-.42,3.61,3.61,0,0,0-3.28-.48,6.44,6.44,0,0,0,.22,1.13,2.62,2.62,0,0,1,2.19.43,3.64,3.64,0,0,0,3.92.28,3.19,3.19,0,0,0,1.32-1.33c.26-.49.56-1,.78-1.48a11.3,11.3,0,0,0-1.4,1.09Zm69.15,59.32a3.58,3.58,0,0,1-1.48-.28,2.59,2.59,0,0,1-1.51-2,3.44,3.44,0,0,0-3.92-2.78,3.5,3.5,0,0,0-.64.15,15.12,15.12,0,0,0-1.74.52c.59.08,1.16.08,1.74.12a3.44,3.44,0,0,1,1.49.24,2.52,2.52,0,0,1,1.58,2,3.43,3.43,0,0,0,2.55,2.82,3.72,3.72,0,0,0,1.93,0c.55-.18,1.11-.31,1.73-.54a12,12,0,0,0-1.82-.16Zm28.55,55a3.5,3.5,0,0,1-1.47-.28,2.57,2.57,0,0,1-1.51-2,3.46,3.46,0,0,0-3.93-2.79,3.5,3.5,0,0,0-.64.15,16.47,16.47,0,0,0-1.73.52,17.15,17.15,0,0,0,1.73.12,3.59,3.59,0,0,1,1.49.24,2.51,2.51,0,0,1,1.58,1.95,3.43,3.43,0,0,0,2.55,2.82,3.52,3.52,0,0,0,1.93,0c.56-.18,1.13-.31,1.74-.54a12,12,0,0,0-1.83-.16Zm20.26,9.13c-.19-.53-.33-1.07-.56-1.64a7.46,7.46,0,0,1-.12,1.64,3.27,3.27,0,0,1-.26,1.41,2.67,2.67,0,0,1-2.07,1.49,3.41,3.41,0,0,0-3,2.41,3,3,0,0,0,0,1.81c.19.53.33,1.05.57,1.64a7.55,7.55,0,0,1,.12-1.64,3.06,3.06,0,0,1,.3-1.39,2.69,2.69,0,0,1,2.15-1.42,3.42,3.42,0,0,0,2.92-2.51,3.08,3.08,0,0,0-.16-1.8Zm17.09-56.34c-.07.18-.13.36-.19.54a3,3,0,0,0,0,1.82c.19.54.33,1.06.56,1.64a6.35,6.35,0,0,1,.14-1.64,2.86,2.86,0,0,1,.29-1.38,2.62,2.62,0,0,1,.54-.7Zm-41.36,2.47c-.19-.52-.33-1.06-.57-1.64a7.37,7.37,0,0,1-.12,1.64,3,3,0,0,1-.26,1.41,2.65,2.65,0,0,1-2.07,1.49,3.41,3.41,0,0,0-3,2.41,3,3,0,0,0,0,1.82c.19.53.33,1.05.57,1.64a7.42,7.42,0,0,1,.12-1.64,2.8,2.8,0,0,1,.3-1.39,2.68,2.68,0,0,1,2.15-1.43,3.39,3.39,0,0,0,2.91-2.5A3.28,3.28,0,0,0,1036.8,410.08ZM1020,468.14c-.19-.52-.33-1.05-.55-1.64-.09.56-.09,1.12-.14,1.64a3,3,0,0,1-.24,1.41A2.63,2.63,0,0,1,1017,471a2.94,2.94,0,0,0-.42,0l2,.77A3.18,3.18,0,0,0,1020,468Zm41.89-41.42a3.19,3.19,0,0,1-1.25.78,2.85,2.85,0,0,1-2.59-.42,3.63,3.63,0,0,0-3.94-.18,3.32,3.32,0,0,0-1.27,1.36c-.26.49-.55,1-.78,1.49.47-.35.89-.74,1.34-1.1a3.21,3.21,0,0,1,1.23-.82,2.71,2.71,0,0,1,2.57.33,3.64,3.64,0,0,0,3.92.28,3.19,3.19,0,0,0,1.32-1.33c.26-.49.56-1,.78-1.48C1062.8,426,1062.39,426.35,1061.92,426.72Zm-43.17,7.42a3,3,0,0,1-1.25.77,2.82,2.82,0,0,1-2.59-.41,3.63,3.63,0,0,0-3.94-.18,3.3,3.3,0,0,0-1.26,1.36c-.26.49-.56,1-.78,1.47.46-.32.88-.72,1.31-1.08a3.48,3.48,0,0,1,1.25-.82,2.79,2.79,0,0,1,2.57.31,3.64,3.64,0,0,0,3.93.3,3.19,3.19,0,0,0,1.32-1.33c.26-.49.55-1,.78-1.49-.47.34-.87.74-1.32,1.1Z" transform="translate(-3)"/><path class="cls-8" d="M1049,449.77c3.47-8.95,7.08-17.86,10.24-26.92,1.74-5.16,3.61-10.31,5.36-15.47,0-.2-.27-.33-.36-.13-3.91,8.83-7.79,17.71-11.25,26.72s-6.94,17.92-10.31,26.91q-2.85,7.69-5.21,15.52c0,.1.14.16.19,0C1041.89,467.73,1045.45,458.77,1049,449.77Z" transform="translate(-3)"/><path class="cls-17" d="M1019.53,472.25l-3-1.14c-5.71-2.17-11.54-4.51-17-6.87-.71-.29-1.4-.59-2.08-.9-1.09-.48-2.2-1-3.26-1.46l-1.58-.74-.58-.26-1.73-.78c-2.17-1.05-4.22-2.1-6.13-3.13l-1.32-.74a47.7,47.7,0,0,1-8.35-5.66c-.24-.21-.47-.44-.67-.65l-.63-.62C961,435.86,940.41,368.1,935,335.42a6.51,6.51,0,0,0-.19-1.13v-.24c-.36-2.48-.64-5.54-.83-8.85h0c-.26-16.17,7.93-18.49,17.62-11C974.4,365.59,1008.91,450.41,1019.53,472.25Z" transform="translate(-3)"/><path class="cls-7" d="M992.64,492l-157.95.42c.12-3.27,22.56-96.76,40.51-131.42,22.93-44.44,34.72-48,41.82-50.42,9-3.07,25.11-1.54,29,.16,4.32,1.9,18.1,24.58,23,41.31C978.88,385.62,994.87,490,992.64,492Z" transform="translate(-3)"/><path class="cls-1" d="M934.1,479.17a3,3,0,0,1-1.25.77,2.82,2.82,0,0,1-2.59-.41,3.63,3.63,0,0,0-3.94-.18,3.32,3.32,0,0,0-1.27,1.36c-.26.49-.55,1-.78,1.49.47-.34.89-.74,1.34-1.1a3.25,3.25,0,0,1,1.23-.82,2.77,2.77,0,0,1,2.57.32,3.64,3.64,0,0,0,3.92.29,3.19,3.19,0,0,0,1.32-1.33c.26-.49.56-1,.78-1.47C935,478.42,934.55,478.81,934.1,479.17Zm22.77-45.75a2.92,2.92,0,0,1-1.25.78,2.85,2.85,0,0,1-2.59-.42,3.6,3.6,0,0,0-4.86.65,2.66,2.66,0,0,0-.34.53c-.26.51-.56,1-.78,1.49.46-.33.88-.72,1.31-1.08a3.67,3.67,0,0,1,1.25-.84,2.79,2.79,0,0,1,2.57.33,3.64,3.64,0,0,0,3.93.29,3.35,3.35,0,0,0,1.32-1.32c.26-.49.55-1,.78-1.49C957.77,432.68,957.32,433,956.87,433.42ZM883.6,448.17a3.12,3.12,0,0,1-1.25.78,2.77,2.77,0,0,1-2.58-.42,3.63,3.63,0,0,0-3.94-.17,3.35,3.35,0,0,0-1.29,1.35c-.26.5-.55,1-.78,1.49.49-.33.89-.72,1.34-1.08a3.64,3.64,0,0,1,1.23-.84,2.81,2.81,0,0,1,2.59.33,3.63,3.63,0,0,0,3.9.29,3.34,3.34,0,0,0,1.34-1.32c.24-.5.55-1,.78-1.5-.49.4-.9.77-1.34,1.13Zm23.52-61.91a3.12,3.12,0,0,1-1.25.78,2.77,2.77,0,0,1-2.58-.42,3.63,3.63,0,0,0-3.94-.17,3.35,3.35,0,0,0-1.29,1.35c-.26.5-.55,1-.78,1.49.49-.33.89-.72,1.34-1.08a3.64,3.64,0,0,1,1.23-.84,2.84,2.84,0,0,1,2.59.33,3.63,3.63,0,0,0,3.9.29,3.34,3.34,0,0,0,1.34-1.32c.24-.5.55-1,.78-1.5a16.42,16.42,0,0,0-1.34,1.14Zm-10.24-43.81a3,3,0,0,1-1.25.79,2.77,2.77,0,0,1-2.58-.43,3.65,3.65,0,0,0-3.94-.16,3.39,3.39,0,0,0-1.29,1.34c-.26.51-.55,1-.78,1.5.49-.33.89-.73,1.34-1.09a3.48,3.48,0,0,1,1.23-.83,2.81,2.81,0,0,1,2.59.33,3.63,3.63,0,0,0,3.9.29,3.49,3.49,0,0,0,1.34-1.33c.24-.49.55-1,.78-1.49-.49.4-.9.77-1.34,1.13Zm46.14-2a3.52,3.52,0,0,1-1.25.78,2.85,2.85,0,0,1-2.59-.42,3.63,3.63,0,0,0-3.94-.18A3.35,3.35,0,0,0,934,342c-.26.49-.56,1-.78,1.49.48-.35.88-.74,1.33-1.1a3.28,3.28,0,0,1,1.24-.82,2.75,2.75,0,0,1,2.56.33,3.66,3.66,0,0,0,3.93.28,3.19,3.19,0,0,0,1.32-1.33c.26-.49.55-.95.78-1.48L943,340.46ZM895.58,476c-.19-.52-.33-1.06-.56-1.64a6.9,6.9,0,0,1-.13,1.64,3,3,0,0,1-.25,1.41,2.67,2.67,0,0,1-2.06,1.49,3.43,3.43,0,0,0-3,2.41,3,3,0,0,0,0,1.82c.19.53.33,1.05.56,1.64.08-.56.08-1.1.14-1.64a2.92,2.92,0,0,1,.29-1.39,2.74,2.74,0,0,1,2.15-1.43,3.41,3.41,0,0,0,2.92-2.5,3.1,3.1,0,0,0-.07-1.76Zm-17.2-109.79c-.19-.52-.33-1.06-.57-1.64-.09.56,0,1.1-.13,1.64a2.75,2.75,0,0,1-.26,1.41,2.63,2.63,0,0,1-2.06,1.49,3.44,3.44,0,0,0-3,2.41,3,3,0,0,0,0,1.82c.19.52.33,1.05.56,1.64a6.42,6.42,0,0,1,.14-1.64,2.66,2.66,0,0,1,2.43-2.82,3.38,3.38,0,0,0,2.91-2.51,3.17,3.17,0,0,0,0-1.78Zm77.66,5.2c-.19-.53-.33-1.07-.56-1.64a6.46,6.46,0,0,1-.14,1.64,3,3,0,0,1-.24,1.41,2.67,2.67,0,0,1-2.07,1.49,3.41,3.41,0,0,0-3,2.41,3,3,0,0,0,0,1.81c.19.53.33,1.07.55,1.64.09-.55.09-1.09.14-1.64a2.82,2.82,0,0,1,.3-1.39,2.71,2.71,0,0,1,2.13-1.42,3.42,3.42,0,0,0,2.92-2.51A3,3,0,0,0,956,371.43Zm-100.56,56c-.19-.52-.33-1.05-.55-1.64a6.42,6.42,0,0,1-.14,1.64,3.11,3.11,0,0,1-.24,1.41,2.67,2.67,0,0,1-2.07,1.49,3.89,3.89,0,0,0-2.26,1.11l-.78,2.71h0a2.85,2.85,0,0,0,.11.39c.19.53.33,1.07.55,1.64a6.42,6.42,0,0,1,.14-1.64,2.72,2.72,0,0,1,.3-1.37,2.69,2.69,0,0,1,2.13-1.45,3.41,3.41,0,0,0,2.92-2.5A3,3,0,0,0,855.48,427.42Zm135,52.09c-.19-.52-.33-1-.55-1.63a15.46,15.46,0,0,0-.12,1.63,3.33,3.33,0,0,1-.26,1.43,2.67,2.67,0,0,1-2.07,1.49,3.33,3.33,0,0,0-3.07,3.62,3.18,3.18,0,0,0,.14.61c.19.52.33,1,.57,1.64a15.84,15.84,0,0,0,.12-1.64,2.8,2.8,0,0,1,.3-1.39,2.68,2.68,0,0,1,2.15-1.43,3.31,3.31,0,0,0,3-3.7A2.91,2.91,0,0,0,990.47,479.51Zm-80.12-62.07c-.19-.52-.33-1.05-.57-1.64a7.37,7.37,0,0,1-.12,1.64,2.94,2.94,0,0,1-.26,1.43,2.67,2.67,0,0,1-2.07,1.49,3.41,3.41,0,0,0-3,2.39,2.9,2.9,0,0,0,0,1.84c.19.52.33,1,.55,1.63a6.31,6.31,0,0,1,.14-1.63,2.63,2.63,0,0,1,.3-1.4,2.6,2.6,0,0,1,2.13-1.42,3.37,3.37,0,0,0,2.88-4.33Zm4.76-98.63c-.19-.53-.33-1.07-.58-1.64a7.37,7.37,0,0,1-.12,1.64,2.75,2.75,0,0,1-.26,1.41,2.67,2.67,0,0,1-2.06,1.49,3.41,3.41,0,0,0-3,2.41,3,3,0,0,0,0,1.82c.19.52.33,1.05.56,1.64.08-.56.08-1.1.12-1.64a2.74,2.74,0,0,1,.31-1.4,2.65,2.65,0,0,1,2.14-1.42,3.38,3.38,0,0,0,2.91-2.51,3.24,3.24,0,0,0,0-1.8ZM979,397.2a2.82,2.82,0,0,1-2.49-.36,3.61,3.61,0,0,0-4.87.55,2.93,2.93,0,0,0-.33.48c-.25.51-.56,1-.78,1.5a15.41,15.41,0,0,0,1.33-1.09,3.52,3.52,0,0,1,1.25-.78,2.85,2.85,0,0,1,2.59.42,3.72,3.72,0,0,0,3.47.4c0-.38-.12-.74-.17-1.12Zm4.84,27.39a11.83,11.83,0,0,0-1.15.37,10.2,10.2,0,0,0,1.24.1A.74.74,0,0,1,983.81,424.59Zm-44-19.88a3.38,3.38,0,0,1-1.47-.28,2.54,2.54,0,0,1-1.51-2,3.44,3.44,0,0,0-3.92-2.79,3.52,3.52,0,0,0-.66.15c-.56.18-1.11.31-1.74.52a8.35,8.35,0,0,1,1.74.12,3.76,3.76,0,0,1,1.49.24,2.48,2.48,0,0,1,1.58,1.95,3.42,3.42,0,0,0,2.55,2.82,3.55,3.55,0,0,0,1.94,0c.56-.18,1.12-.31,1.74-.54A12.5,12.5,0,0,0,939.82,404.71Zm-81.58,66.45a3.53,3.53,0,0,1-1.47-.28,2.53,2.53,0,0,1-1.51-2,3.43,3.43,0,0,0-3.92-2.79,3.52,3.52,0,0,0-.66.15c-.56.18-1.11.31-1.74.52.59.08,1.18.08,1.74.12a3.59,3.59,0,0,1,1.49.24,2.54,2.54,0,0,1,1.6,2,3.5,3.5,0,0,0,4.47,2.77c.56-.18,1.11-.31,1.74-.54-.59-.08-1.15-.08-1.75-.11Zm60.13-16.83a3.5,3.5,0,0,1-1.47-.28,2.52,2.52,0,0,1-1.51-2,3.39,3.39,0,0,0-2.66-2.76,3.72,3.72,0,0,0-1.93.12,16.47,16.47,0,0,0-1.73.52c.59.08,1.18.08,1.73.12a3.5,3.5,0,0,1,1.51.24,2.55,2.55,0,0,1,1.58,1.95,3.34,3.34,0,0,0,2.55,2.82,3.72,3.72,0,0,0,1.93,0c.56-.18,1.11-.31,1.74-.54A6.24,6.24,0,0,0,918.37,454.33ZM878.1,413.2a3.35,3.35,0,0,1-1.47-.28,2.5,2.5,0,0,1-1.51-2,3.37,3.37,0,0,0-2.66-2.75,3.54,3.54,0,0,0-1.91.1c-.55.18-1.13.31-1.74.52.59.1,1.17.08,1.74.13a3.3,3.3,0,0,1,1.49.25,2.52,2.52,0,0,1,1.58,1.93,3.44,3.44,0,0,0,2.55,2.84,3.72,3.72,0,0,0,1.93,0c.56-.18,1.11-.31,1.74-.53a9.29,9.29,0,0,0-1.74-.21Zm60.84-103.8a3.6,3.6,0,0,0,3.66,1l.9-.28a43.72,43.72,0,0,0-4.56-.73Zm23.78,156.73a3.17,3.17,0,0,1-1.48-.33,2.5,2.5,0,0,1-1.52-2,3.36,3.36,0,0,0-2.66-2.75,3.87,3.87,0,0,0-1.91.1c-.55.18-1.11.31-1.73.54a9,9,0,0,1,1.73.11,3.6,3.6,0,0,1,1.49.25,2.48,2.48,0,0,1,1.58,2,3.57,3.57,0,0,0,4.48,2.82c.56-.17,1.13-.31,1.74-.53a9.74,9.74,0,0,0-1.72-.16Zm-36.45-99.88a3.4,3.4,0,0,1-1.48-.28,2.56,2.56,0,0,1-1.51-2,3.36,3.36,0,0,0-2.65-2.76,3.64,3.64,0,0,0-1.91.12c-.56.18-1.13.31-1.74.52.61.09,1.18.09,1.74.12a3.76,3.76,0,0,1,1.49.24,2.55,2.55,0,0,1,1.58,1.95,3.34,3.34,0,0,0,2.55,2.82,3.52,3.52,0,0,0,1.93,0c.55-.18,1.11-.31,1.73-.54a11.55,11.55,0,0,0-1.8-.18Z" transform="translate(-3)"/><path class="cls-8" d="M946.87,346.8c1.08,11.7,1.91,23.4,2.71,35.1S951,405.33,951.71,417s1.18,23.43,1.64,35.17l.62,17.58c.14,5.87.35,11.73.4,17.6-.56-5.85-1-11.7-1.48-17.55l-1.24-17.55c-.8-11.72-1.41-23.43-2.12-35.13s-1.18-23.44-1.63-35.17S947,358.53,946.87,346.8Z" transform="translate(-3)"/><path class="cls-8" d="M958,382.31a2.24,2.24,0,0,1-2.15,2.35,2.31,2.31,0,0,1-2.49-2,2.23,2.23,0,0,1,2.16-2.34h0A2.27,2.27,0,0,1,958,382.31Z" transform="translate(-3)"/><path class="cls-8" d="M958.69,405a2.23,2.23,0,0,1-2.15,2.34,2.31,2.31,0,0,1-2.5-2,2.25,2.25,0,0,1,2.17-2.35,2.29,2.29,0,0,1,2.48,2.05Z" transform="translate(-3)"/><path class="cls-8" d="M959.51,427.62a2.24,2.24,0,0,1-2.15,2.35,2.3,2.3,0,0,1-2.49-2,2.23,2.23,0,0,1,2.15-2.34h0A2.29,2.29,0,0,1,959.51,427.62Z" transform="translate(-3)"/><path class="cls-8" d="M960.15,450.28a2.23,2.23,0,0,1-2.15,2.34,2.31,2.31,0,0,1-2.5-2.05,2.24,2.24,0,0,1,2.17-2.34,2.3,2.3,0,0,1,2.48,2Z" transform="translate(-3)"/><path class="cls-8" d="M960.88,472.93a2.24,2.24,0,0,1-2.15,2.34,2.28,2.28,0,0,1-2.49-2,2.24,2.24,0,0,1,2.15-2.35,2.28,2.28,0,0,1,2.49,2Z" transform="translate(-3)"/><path class="cls-7" d="M917.47,344.75c-13.89,26.66-62.61,83.82-80.8,96-11.06,7.39-45.13,5.78-45.5-15.1s101.15-104.74,117.6-111.95C926.2,306,932.57,315.63,917.47,344.75Z" transform="translate(-3)"/><path class="cls-8" d="M851.18,428.21l13.57-15.55c4.52-5.18,9.08-10.33,13.52-15.56s8.94-10.42,13.39-15.66c2.22-2.62,4.44-5.25,6.61-7.9s4.34-5.31,6.58-7.93c-3.82,5.67-7.9,11.19-12.15,16.6s-8.68,10.68-13.12,15.93-9.12,10.32-13.89,15.33S856.21,423.45,851.18,428.21Z" transform="translate(-3)"/><path class="cls-8" d="M892.32,381.67a56.69,56.69,0,0,1,10.08-9.15,48.9,48.9,0,0,1-4.74,4.92A47.7,47.7,0,0,1,892.32,381.67Z" transform="translate(-3)"/><path class="cls-1" d="M809.36,399.74a3.13,3.13,0,0,1-1.24.77,2.75,2.75,0,0,1-1.27.12l-1,1.11a3.58,3.58,0,0,0,2.72-.28,3.23,3.23,0,0,0,1.32-1.32c.26-.5.56-1,.78-1.5C810.23,399,809.8,399.38,809.36,399.74Zm47.08-9.55a3.25,3.25,0,0,1-1.25.79,2.88,2.88,0,0,1-2.59-.43,3.6,3.6,0,0,0-4.86.65,2.66,2.66,0,0,0-.34.53c-.26.51-.56,1-.8,1.49.46-.34.91-.7,1.33-1.08a3.45,3.45,0,0,1,1.24-.84,2.82,2.82,0,0,1,2.58.33,3.64,3.64,0,0,0,3.92.3A3.31,3.31,0,0,0,857,390.6c.26-.51.56-1,.79-1.49C857.29,389.44,856.89,389.83,856.44,390.19Zm40.44-47.69a3.25,3.25,0,0,1-1.25.79,2.8,2.8,0,0,1-2.58-.43,3.65,3.65,0,0,0-3.94-.16,3.39,3.39,0,0,0-1.29,1.34c-.26.51-.55,1-.78,1.49.49-.32.89-.72,1.34-1.08a3.48,3.48,0,0,1,1.23-.83,2.81,2.81,0,0,1,2.59.33,3.65,3.65,0,0,0,3.9.29,3.49,3.49,0,0,0,1.34-1.33c.24-.49.55-1,.78-1.49C897.73,341.77,897.32,342.14,896.88,342.5ZM823,437c-.19-.52-.33-1.05-.55-1.64a6.82,6.82,0,0,1-.13,1.64,3,3,0,0,1-.26,1.41,2.56,2.56,0,0,1-2.06,1.49,3.52,3.52,0,0,0-3,2.41,3.17,3.17,0,0,0,0,1.83l.16.48h.52V444a3,3,0,0,1,.29-1.4,2.72,2.72,0,0,1,2.16-1.42,3.31,3.31,0,0,0,3-3.7,2.65,2.65,0,0,0-.16-.63Zm2.57-55.72a8.5,8.5,0,0,0,.35,1c.06-.47.1-.93.12-1.4Zm4.1-3.9A3.38,3.38,0,0,0,831.1,376c-.49.5-1,.95-1.44,1.41Zm48.72-11.17c-.19-.53-.33-1.07-.57-1.64-.09.56,0,1.1-.13,1.64a2.75,2.75,0,0,1-.26,1.41,2.65,2.65,0,0,1-2.06,1.49,3.43,3.43,0,0,0-3,2.41,3,3,0,0,0,0,1.82c.19.52.33,1.05.56,1.64a6.42,6.42,0,0,1,.14-1.64,2.74,2.74,0,0,1,.29-1.4,2.67,2.67,0,0,1,2.14-1.42,3.38,3.38,0,0,0,2.91-2.51,3.25,3.25,0,0,0,0-1.75Zm36.73-47.44c-.19-.53-.33-1.07-.58-1.64a7.37,7.37,0,0,1-.12,1.64,2.75,2.75,0,0,1-.26,1.41,2.67,2.67,0,0,1-2.06,1.49,3.41,3.41,0,0,0-3,2.41,3,3,0,0,0,0,1.82c.19.52.33,1.05.56,1.64.08-.56.08-1.1.12-1.64a2.76,2.76,0,0,1,.31-1.4,2.65,2.65,0,0,1,2.14-1.42,3.38,3.38,0,0,0,2.91-2.51,3.25,3.25,0,0,0,0-1.75Zm-123,107.71a2.92,2.92,0,0,1-.88-.08,6.46,6.46,0,0,0,0,.88,3.84,3.84,0,0,0,.9-.14c.56-.19,1.13-.32,1.74-.53A8,8,0,0,0,792.09,426.47Zm39.28-8.37a3.24,3.24,0,0,1-1.47-.28,2.56,2.56,0,0,1-1.51-2,3.35,3.35,0,0,0-2.66-2.75,3.58,3.58,0,0,0-1.92.1c-.56.18-1.11.31-1.74.52a7.72,7.72,0,0,1,1.74.13,3.59,3.59,0,0,1,1.49.23,2.53,2.53,0,0,1,1.58,2,3.33,3.33,0,0,0,2.55,2.82,3.55,3.55,0,0,0,1.94,0c.56-.18,1.12-.31,1.74-.52a6.9,6.9,0,0,0-1.74-.25Zm21.41-58.9a3.4,3.4,0,0,1-1.48-.28,2.4,2.4,0,0,1-.68-.46l-.93.82a3.21,3.21,0,0,0,1.25.63,3.68,3.68,0,0,0,1.92,0c.56-.18,1.11-.32,1.74-.54a7,7,0,0,0-1.82-.23Zm16.1,49.62h.59l.33-.38Z" transform="translate(-3)"/><path class="cls-19" d="M948.61,344.54c-9.29,1.54-24-13.33-29.51-25-.38-.8,1.35-8.81,3-18.66,1-6,1.9-12.67,2.32-18.83,0-1.26,38.36,11.95,38.36,11.95a97.37,97.37,0,0,0-5.36,23.4,15.38,15.38,0,0,0,.1,2.54v.42C958.05,325.26,957.56,343,948.61,344.54Z" transform="translate(-3)"/><path class="cls-8" d="M926.84,282.43c1.11,10.52,5.95,36.05,26.71,37.93a22.38,22.38,0,0,0,4,0,2.94,2.94,0,0,0,0-.42,13.29,13.29,0,0,1-.1-2.52A97.53,97.53,0,0,1,962.82,294S935.21,284.51,926.84,282.43Z" transform="translate(-3)"/><path class="cls-19" d="M931.74,231.81c-8.06,11.91-12.67,52-5.84,63.25,9.92,16.39,31.94,24.27,47.42,11.15,15-12.72,20.11-65,11.93-75.86C973.2,214.37,943.66,214.21,931.74,231.81Z" transform="translate(-3)"/><path class="cls-8" d="M962.15,266.26c0-.12-.23.11-.25.21-.12,2.72-.74,5.8-3.28,6.55-.08,0-.08.17,0,.15C961.68,272.94,962.44,268.84,962.15,266.26Z" transform="translate(-3)"/><path class="cls-8" d="M959.92,263.22c-4.35-.67-5.41,8-1.37,8.66S963.59,263.8,959.92,263.22Z" transform="translate(-3)"/><path class="cls-8" d="M977.35,268.16c0-.12.19.14.18.26-.4,2.67-.42,5.82,1.92,7v.15C976.47,274.79,976.54,270.63,977.35,268.16Z" transform="translate(-3)"/><path class="cls-8" d="M980.13,265.62c4.41.19,3.7,8.93-.4,8.75S976.43,265.47,980.13,265.62Z" transform="translate(-3)"/><path class="cls-14" d="M956.71,255.87c1.21,0,2.43,0,3.63-.15a6.13,6.13,0,0,0,3.68-.85,1.87,1.87,0,0,0,.37-2.25,4.66,4.66,0,0,0-4.33-1.8,6.91,6.91,0,0,0-4.61,1.64,1.93,1.93,0,0,0,0,2.83A2.25,2.25,0,0,0,956.71,255.87Z" transform="translate(-3)"/><path class="cls-14" d="M984.92,259.75c-1.15-.38-2.28-.82-3.38-1.31a5.94,5.94,0,0,1-3.18-2,1.85,1.85,0,0,1,.38-2.25,4.71,4.71,0,0,1,4.69-.31,6.91,6.91,0,0,1,3.82,3.06,1.9,1.9,0,0,1-.9,2.63A2.2,2.2,0,0,1,984.92,259.75Z" transform="translate(-3)"/><path class="cls-8" d="M954.56,290.75c.57.71,1.11,1.64,2.08,1.86a7.33,7.33,0,0,0,3-.33.08.08,0,0,1,0,.13l0,0a3.67,3.67,0,0,1-3.62,1.05,2.87,2.87,0,0,1-1.84-2.64C954.3,290.69,954.47,290.66,954.56,290.75Z" transform="translate(-3)"/><path class="cls-8" d="M958.4,283a9.32,9.32,0,0,0,5.67,4.92,12.39,12.39,0,0,0,3.32.54,3.42,3.42,0,0,0,.64,0h.61a.65.65,0,0,0,.62-.54h0a1.31,1.31,0,0,0,0-.28h0v-.25c.32-2.06.49-5.24.49-5.24.73.47,4.41,2.67,4.48,1.64.55-9.05,1.16-19.09-.21-28.21a.26.26,0,0,0-.32-.17.24.24,0,0,0-.18.17c-.89,8.67-.21,17.44-1,26.22a16.22,16.22,0,0,0-4.2-1.83c-.31,0-.24,6.14-.45,7.06v.1c-3.58,0-6.09-1.35-9.23-4.08C958.5,282.64,958.26,282.79,958.4,283Z" transform="translate(-3)"/><path class="cls-8" d="M966.28,287.18a11.05,11.05,0,0,1-4.81,2.85,5,5,0,0,1-3-.16c-2.1-.84-1.91-2.82-1.32-4.46a12.14,12.14,0,0,1,1.3-2.47A14.45,14.45,0,0,0,966.28,287.18Z" transform="translate(-3)"/><path class="cls-15" d="M961.47,290.05a5,5,0,0,1-3-.16c-2.1-.84-1.91-2.82-1.32-4.46A5,5,0,0,1,961.47,290.05Z" transform="translate(-3)"/><g class="cls-20"><path d="M970.7,247.13a33.92,33.92,0,0,0,4.36.85c1.49.14,3,0,4.5.17a25.16,25.16,0,0,1,8,2.7c.23.1.18.25,0,.15a21.6,21.6,0,0,0-8.55-2.23,28.31,28.31,0,0,1-7.29-.8c-5.42-1.46-10.94-2.25-16.39-.44h0A27.76,27.76,0,0,1,970.7,247.13Z" transform="translate(-3)"/><path d="M971.16,243.4a33.21,33.21,0,0,0,4.11.82c1.42.13,2.85,0,4.27.14a23.54,23.54,0,0,1,7.55,2.58c.23.09.16.22,0,.13A21,21,0,0,0,979,245a25.7,25.7,0,0,1-6.94-.75c-5.12-1.39-10.41-2.13-15.53-.43h0A26.82,26.82,0,0,1,971.16,243.4Z" transform="translate(-3)"/></g><path class="cls-14" d="M989.83,246.41c-16,6.44-32.37-11-32.37-11A16.08,16.08,0,0,1,940,241.61s-7.55,22-13.89,20.73c-9.56-1.89-6-33.09-1.73-38.54s12.84-5.44,12.84-5.44,1.6-4.56,8.42-7.71c7.55-3.47,28.76,7.17,28.76,7.17a20.87,20.87,0,0,1,7.36-6.26,6.21,6.21,0,0,1,8.22,2.1c.06.09.1.17.15.26a13.37,13.37,0,0,0-3.47,5.09c-2.52,6.38,3.17,7.44,4.39,1.48a9,9,0,0,0-.9-6.56c3.64-3.37,8.5-3.77,10.85-1.14C1005.21,217.5,1003.16,241.07,989.83,246.41Z" transform="translate(-3)"/><path class="cls-9" d="M953,279.86c-6.47-1.69-10.27-8-8.48-14.11s8.48-9.69,14.94-8a11.58,11.58,0,0,1,8.92,11.35h0c-.17,6.33-5.75,11.34-12.46,11.18A13.61,13.61,0,0,1,953,279.86Zm6.09-20.54a10.6,10.6,0,0,0-12.94,6.89,9.86,9.86,0,0,0,7.29,12.21,10.6,10.6,0,0,0,12.94-6.88,9.24,9.24,0,0,0,.38-2.38A9.91,9.91,0,0,0,959.09,259.32Z" transform="translate(-3)"/><path class="cls-9" d="M980.51,283.79c-4.48-1.18-7.24-6.56-6.27-12.47a13.39,13.39,0,0,1,3.86-7.54,7.87,7.87,0,0,1,10.66-.83,7.1,7.1,0,0,1,2.11,2.73,13.14,13.14,0,0,1,1.22,8.28c-1,6.24-5.89,10.71-10.8,10ZM985.39,263l-.59-.11a6.64,6.64,0,0,0-5.56,2,12,12,0,0,0-3.47,6.69c-.88,5.41,1.74,10.29,5.7,10.88s8-3.28,8.93-8.7a11.45,11.45,0,0,0-1-7.36A6.65,6.65,0,0,0,985.39,263Z" transform="translate(-3)"/><path class="cls-9" d="M967.77,270.34l-.85-1.32c2.07-1.16,6.58-2.47,9,.92l-1.36.85C972.42,267.75,968,270.24,967.77,270.34Z" transform="translate(-3)"/><path class="cls-9" d="M913.91,265.34l-1.3-.9c.45-.58,4.48-5.62,8.14-5.64s24.58,5.06,25.46,5.28l-.4,1.49c-6-1.46-22.41-5.26-25.06-5.25S915,263.94,913.91,265.34Z" transform="translate(-3)"/><path class="cls-19" d="M930.47,265.19s-5.21-14.75-11.73-13.27-5.06,21.3.88,25.51a7.06,7.06,0,0,0,9.58-.51,6,6,0,0,0,.47-.55Z" transform="translate(-3)"/><path class="cls-8" d="M919.29,257.57c-.1,0-.16.1,0,.16,4.13,3.17,5.36,8.2,5.82,13.11-.89-2.09-2.52-3.55-5.21-2.55-.16,0,0,.26,0,.28a4.32,4.32,0,0,1,4.16,2.7,20.68,20.68,0,0,1,1.15,4.28c.1.47.9.46.88,0v-.12C927.78,269.43,925.5,259.93,919.29,257.57Z" transform="translate(-3)"/><path class="cls-7" d="M957.49,319.79,946,341.55l-25.59-31.43-9,8.43s23.26,48.3,23.64,46.27l11.39-18.65,12.25,14.95,2.31-34.27Z" transform="translate(-3)"/><text x="-3"/><path class="cls-19" d="M832.21,284.12c7.83-15.62,20.32-37,28.1-39.89,8.16-3.08,37.32-12.83,44.85-13.11s33.81,8.49,38.36,13.11c3.66,3.77-3.47,12-18.61,10-14.14-1.85-17.35-2.94-21.55-2.54s-16.88,9.08-16.13,14.75c.45,3.39,8.4,9.56,14.86,8.82s10.66-6.46,18.78-9.52,19.32.92,19.09,4-4.51,3.28-13.64,11.47c-5.87,5.24-10.41,16-22.56,24.38-6.11,4.22-18.44,16.62-18.44,16.62Z" transform="translate(-3)"/><path class="cls-19" d="M860.31,244.23c8.21-6.55,27.18-17,42.8-18,10.56-.63,38,23.9,35.14,29.49s-8.44,3.95-16.34.59C919,255.08,905,245,901.27,247.36c-5.36,3.28-15.39,17.27-15.39,17.27Z" transform="translate(-3)"/><path class="cls-8" d="M938.19,253.23c-1.91-7.46-9.61-13.41-17.49-18.65-.12-.08-.26.1-.14.18,2,1.33,14.21,11.77,17.51,18.53C938.11,253.38,938.21,253.31,938.19,253.23Z" transform="translate(-3)"/><path class="cls-19" d="M860.31,244.23c8.21-6.55,27.18-17,42.8-18,10.56-.63,29.86,26.07,27,31.64s-11,3.67-18.85-1.82c-2.54-1.79-10-10.95-13.68-8.62-5.38,3.28-18.54,11.72-18.54,11.72Z" transform="translate(-3)"/><path class="cls-8" d="M886.76,253.9c1.32-1,1.74-1.39,3.11-2.39s2.67-2,4.06-2.89a13.5,13.5,0,0,1,3.87-2,7,7,0,0,1,4.13.43c3,1.18,5.11,3.82,7.24,6s7.52,6.74,12.26,7.64a10,10,0,0,0,3.92.15,6.5,6.5,0,0,0,2.72-1c3-2.61,1.74-7,.09-10.31a58.18,58.18,0,0,0-13.59-16.27c-1.29-1.17-2.59-2.28-3.91-3.41a14.35,14.35,0,0,0-5.06-3.15c-3.18-1-9.43.54-11.36,1-.14,0-.17-.18,0-.21,2.35-.57,8.46-2.88,13.53-1.11a17.39,17.39,0,0,1,4.79,3.27c1.54,1.27,3.05,2.58,4.51,3.92a73.28,73.28,0,0,1,8,8.37,29.83,29.83,0,0,1,5.64,9.54,8.48,8.48,0,0,1-2.32,8.83,8.63,8.63,0,0,1-6.75,1.2,16.8,16.8,0,0,1-4-1.24,71,71,0,0,1-8-5.05c-2.45-1.89-4.36-4.39-6.94-6.07a5.87,5.87,0,0,0-4.26-1,15.65,15.65,0,0,0-4,1.76,45.76,45.76,0,0,0-7.13,4.27C886.61,254.64,886.22,254.41,886.76,253.9Z" transform="translate(-3)"/><path class="cls-19" d="M853.85,250.13c3.32-3.28,12-18.25,16.94-22.19s25.47-16.38,32.2-13.66c8.46,3.52-5.64,15.71-12.27,20.5s-9.32,15.43-9.32,15.43Z" transform="translate(-3)"/><path class="cls-8" d="M900.49,226.55c-2.27,1.47-4.44,3.28-6.54,4.92a53.06,53.06,0,0,0-6,4.91,23,23,0,0,0-4,6.29c-.49,1.14-.92,2.27-1.3,3.41s-.73,2.58-1.18,3.82c0,.13.15.21.21,0a53.71,53.71,0,0,1,3.22-6.55,30.73,30.73,0,0,1,4.48-6.18c3.47-3.72,7.76-6.7,11.29-10.39C900.89,226.55,900.67,226.39,900.49,226.55Z" transform="translate(-3)"/><path class="cls-8" d="M898.88,275.22a12,12,0,0,0,8.23-2.18c2.17-1.38,4.27-2.9,6.45-4.26a28,28,0,0,1,7-3.43,33.26,33.26,0,0,1,8.67-.93,18,18,0,0,1,8.27,1.64c2.08,1.06,4.18,3.28,2.9,5.64a10.07,10.07,0,0,1-2.54,2.75,25.5,25.5,0,0,1-3.09,2.11c-2.17,1.33-4.46,2.48-6.49,4a38.75,38.75,0,0,0-6.72,7.48c-.76,1-5.69,7.54-7.55,9.83a40.3,40.3,0,0,1-5.21,5.24,59.15,59.15,0,0,1-5.83,4,35.63,35.63,0,0,0-6.11,4.64s-.21,0-.15-.13c2.44-3.7,6.56-6.05,10.31-8.39,4.86-3,16.17-19.39,18.17-21.58,3.35-3.66,8.19-5.24,12-8.39.85-.72,2.17-1.75,2.22-2.95a3.42,3.42,0,0,0-2-2.67,15.16,15.16,0,0,0-8.11-1.31,39.2,39.2,0,0,0-8.37.88,28,28,0,0,0-6.8,2.95c-2.43,1.41-4.77,2.89-7.29,4.13a12.05,12.05,0,0,1-8,1.28C898.76,275.38,898.76,275.2,898.88,275.22Z" transform="translate(-3)"/><path class="cls-8" d="M939.2,242.08c-1.84-1-3.65-2-5.49-2.91h0c2.23,1,4.5,1.77,6.72,2.7a7.05,7.05,0,0,1,4.22,3.61,4.72,4.72,0,0,1-1.34,4.81,14.24,14.24,0,0,1-5.1,2.92m0-.15c2.8-1.34,7.19-4.14,5.21-7.66a9.56,9.56,0,0,0-4.22-3.32Z" transform="translate(-3)"/><path class="cls-8" d="M929.12,258.77a12.33,12.33,0,0,0,6.45-.74,4.57,4.57,0,0,0,2-1.79,4.36,4.36,0,0,0,.5-1.36,2.16,2.16,0,0,0-.12-1.46c-.09-.11.12-.19.14,0a7.14,7.14,0,0,0,.31.81,3.31,3.31,0,0,1,.12.7,3.09,3.09,0,0,1-.21,1.41,4.58,4.58,0,0,1-2,2.38,8.52,8.52,0,0,1-7.22.28C929,258.9,929,258.77,929.12,258.77Z" transform="translate(-3)"/><path class="cls-19" d="M885.17,322.41c-5.54,15.65-45.69,98.59-56.24,110s-34.58,12.86-40.06-9.08S824,299.91,832.26,284.08C836.81,275.33,887.18,316.68,885.17,322.41Z" transform="translate(-3)"/><path class="cls-7" d="M892.32,333.49,824.9,292s-35.08,94.85-37.27,124.54c-1.58,21.31,24.6,38.56,47.6,10.82S892.32,333.49,892.32,333.49Z" transform="translate(-3)"/><path class="cls-1" d="M809.36,399.74a3.13,3.13,0,0,1-1.24.77,2.76,2.76,0,0,1-2.59-.41,3.66,3.66,0,0,0-4-.18,3.35,3.35,0,0,0-1.28,1.36c-.26.49-.56,1-.78,1.48.48-.33.88-.72,1.33-1.08a3.28,3.28,0,0,1,1.24-.82,2.78,2.78,0,0,1,2.58.31,3.65,3.65,0,0,0,3.91.29,3.23,3.23,0,0,0,1.32-1.32c.26-.5.55-1,.78-1.5C810.23,399,809.8,399.38,809.36,399.74Zm43.88-85.85a3,3,0,0,1-1.24.77,2.79,2.79,0,0,1-2.59-.41,3.65,3.65,0,0,0-3.94-.18,3.39,3.39,0,0,0-1.27,1.36c-.26.49-.55,1-.78,1.48.47-.33.89-.72,1.32-1.08A3.21,3.21,0,0,1,846,315a2.77,2.77,0,0,1,2.57.31,3.64,3.64,0,0,0,3.92.29,3.23,3.23,0,0,0,1.32-1.32c.26-.5.56-1,.78-1.5A15.45,15.45,0,0,0,853.24,313.89Zm-23.81,26.57a3.52,3.52,0,0,1-1.25.78,2.85,2.85,0,0,1-2.59-.42,3.63,3.63,0,0,0-3.94-.18,3.3,3.3,0,0,0-1.26,1.36c-.26.49-.58,1-.8,1.49.48-.35.88-.74,1.34-1.1a3.32,3.32,0,0,1,1.23-.82,2.73,2.73,0,0,1,2.58.33,3.67,3.67,0,0,0,3.91.28,3.24,3.24,0,0,0,1.34-1.33c.26-.49.55-1,.78-1.48C830.28,339.7,829.88,340.09,829.43,340.46Zm27,49.73a3.25,3.25,0,0,1-1.25.79,2.88,2.88,0,0,1-2.59-.43,3.6,3.6,0,0,0-4.86.65,2.66,2.66,0,0,0-.34.53c-.26.51-.56,1-.8,1.49.46-.34.91-.7,1.33-1.08a3.45,3.45,0,0,1,1.24-.84,2.82,2.82,0,0,1,2.58.33,3.64,3.64,0,0,0,3.92.3A3.31,3.31,0,0,0,857,390.6c.26-.51.56-1,.79-1.49C857.29,389.44,856.89,389.83,856.44,390.19Zm11.37-61.53c-.18-.53-.33-1.05-.56-1.64a7.46,7.46,0,0,1-.12,1.64,3.32,3.32,0,0,1-.26,1.42,2.65,2.65,0,0,1-2.06,1.49,3.33,3.33,0,0,0-3.07,3.62,3.15,3.15,0,0,0,.13.61c.19.53.33,1.05.57,1.64a6.86,6.86,0,0,1,.13-1.64,2.9,2.9,0,0,1,.29-1.39A2.69,2.69,0,0,1,865,333a3.22,3.22,0,0,0,2.8-4.32ZM823,437c-.19-.52-.33-1.05-.55-1.64a6.82,6.82,0,0,1-.13,1.64,3,3,0,0,1-.26,1.41h0l1.15-.62A2.72,2.72,0,0,0,823,437Zm8.3-63.5c-.19-.52-.33-1.05-.56-1.64a6.42,6.42,0,0,1-.14,1.64,3,3,0,0,1-.24,1.41,2.61,2.61,0,0,1-2.07,1.49,3.4,3.4,0,0,0-3,2.56,3,3,0,0,0,0,1.82c.19.52.33,1.06.55,1.64.11-.56,0-1.1.14-1.64a3,3,0,0,1,.3-1.38,2.69,2.69,0,0,1,2.15-1.44,3.32,3.32,0,0,0,2.95-3.71,3.1,3.1,0,0,0-.15-.6Zm-39.2,53a3.13,3.13,0,0,1-1.45-.28,2.52,2.52,0,0,1-1.51-2,3.26,3.26,0,0,0-1.29-2.12,24.86,24.86,0,0,0,1.11,4.48h0a3.18,3.18,0,0,0,1.29.63,3.48,3.48,0,0,0,1.92,0c.56-.18,1.13-.31,1.74-.52A6.36,6.36,0,0,0,792.09,426.47Zm39.28-8.37a3.24,3.24,0,0,1-1.47-.28,2.56,2.56,0,0,1-1.51-2,3.35,3.35,0,0,0-2.66-2.75,3.58,3.58,0,0,0-1.92.1c-.56.18-1.11.31-1.74.52a7.72,7.72,0,0,1,1.74.13,3.59,3.59,0,0,1,1.49.23,2.53,2.53,0,0,1,1.58,2,3.33,3.33,0,0,0,2.55,2.82,3.55,3.55,0,0,0,1.94,0c.56-.18,1.12-.31,1.74-.52a6.9,6.9,0,0,0-1.74-.25ZM818.23,318a3.27,3.27,0,0,1-1.45-.28,3,3,0,0,1-.84-.59c-.15.41-.29.8-.43,1.21a2.82,2.82,0,0,0,.88.36,3.52,3.52,0,0,0,1.93,0c.56-.18,1.13-.31,1.74-.52a7.54,7.54,0,0,0-1.83-.25Zm-11.47,45.24a3.22,3.22,0,0,1-1.47-.28,2.54,2.54,0,0,1-1.51-2,3.3,3.3,0,0,0-1.62-2.34c-.12.43-.26.85-.38,1.28a2.28,2.28,0,0,1,.59,1.25A3.32,3.32,0,0,0,804.9,364a3.41,3.41,0,0,0,2,0c.55-.18,1.11-.31,1.73-.52C807.84,363.3,807.25,363.3,806.76,363.25Zm46.1-4.11a3.53,3.53,0,0,1-1.47-.28,2.59,2.59,0,0,1-1.51-2A3.45,3.45,0,0,0,846,354a3.5,3.5,0,0,0-.64.15c-.55.18-1.13.31-1.73.52a8.3,8.3,0,0,1,1.73.12,3.84,3.84,0,0,1,1.5.24,2.52,2.52,0,0,1,1.57,1.95,3.43,3.43,0,0,0,2.56,2.82,3.68,3.68,0,0,0,1.92,0c.56-.18,1.11-.31,1.74-.54a11.91,11.91,0,0,0-1.82-.16Z" transform="translate(-3)"/><path class="cls-8" d="M882.16,344.72c-10.22-5.87-51.1-31.32-59.66-37.33-.57-.43-.43-.87.23-.51,31.12,16.84,49.94,31.13,59.68,37.44C882.65,344.54,882.42,344.86,882.16,344.72Z" transform="translate(-3)"/><path class="cls-8" d="M857.1,394.7c8.07-12.66,15.85-25.47,22.95-38.64,2-3.68,3.92-7.37,5.83-11.1s3.69-7.16,5.36-10.81c-1.41-1-7.57-5.3-8.23-5.94a.27.27,0,0,1,.08-.38.29.29,0,0,1,.24,0c.83.34,8,4.77,9.54,6,.21.17-3.37,7.26-5,10.65s-3.29,6.77-5,10.13c-3.47,6.65-7,13.21-10.75,19.67q-6.08,10.49-12.67,20.63C855.59,400.64,846.68,411,857.1,394.7Z" transform="translate(-3)"/></g><g id="freepik--Device--inject-46"><rect class="cls-13" x="1024.3" y="490.92" width="141.44" height="6.52"/><polygon class="cls-8" points="1165.75 490.92 1165.75 497.44 1069.59 497.44 1074.45 490.92 1165.75 490.92"/><polygon class="cls-13" points="1080.54 497.44 1218.4 497.44 1229.88 401.04 1092.02 401.04 1080.54 497.44"/><path class="cls-1" d="M1149.81,449.25a8.36,8.36,0,0,0,8,8.63h.21a8.67,8.67,0,0,0,8.54-8.63,8.36,8.36,0,0,0-8-8.65,1.2,1.2,0,0,0-.19,0A8.72,8.72,0,0,0,1149.81,449.25Z" transform="translate(-3)"/></g><g id="freepik--Cloud--inject-46"><polygon class="cls-21" points="1321.8 433.61 1250.49 452.82 1226.53 358.56 1279.5 344.29 1297.87 339.36 1302.42 357.32 1321.8 433.61"/><polygon class="cls-22" points="1296.24 359.23 1238.15 374.86 1237.53 372.44 1295.63 356.8 1296.24 359.23"/><polygon class="cls-22" points="1297.79 365.35 1239.69 380.99 1239.08 378.57 1297.17 362.93 1297.79 365.35"/><polygon class="cls-22" points="1298.92 369.23 1240.67 384.69 1240.07 382.25 1298.31 366.8 1298.92 369.23"/><polygon class="cls-22" points="1300.89 377.56 1242.79 393.19 1242.17 390.77 1300.27 375.13 1300.89 377.56"/><polygon class="cls-22" points="1302.44 383.66 1244.35 399.3 1243.73 396.87 1301.83 381.24 1302.44 383.66"/><polygon class="cls-22" points="1304 389.77 1245.9 405.41 1245.29 402.98 1303.39 387.35 1304 389.77"/><polygon class="cls-22" points="1305.19 393.57 1246.94 409.02 1246.33 406.59 1304.58 391.14 1305.19 393.57"/><polygon class="cls-22" points="1307.1 402.01 1249.01 417.64 1248.39 415.22 1306.49 399.58 1307.1 402.01"/><polygon class="cls-22" points="1308.32 405.76 1250.07 421.22 1249.46 418.79 1307.71 403.33 1308.32 405.76"/><polygon class="cls-22" points="1310.2 414.22 1252.11 429.86 1251.49 427.44 1309.59 411.8 1310.2 414.22"/><polygon class="cls-22" points="1311.44 417.94 1253.19 433.4 1252.59 430.96 1310.83 415.51 1311.44 417.94"/><polygon class="cls-22" points="1313.01 424.01 1254.77 439.47 1254.16 437.03 1312.4 421.58 1313.01 424.01"/><polygon class="cls-21" points="1340.74 460.82 1267.13 465.04 1261.85 367.77 1316.5 364.63 1336.46 382.06 1340.74 460.82"/><polygon class="cls-22" points="1316.5 364.63 1336.46 382.06 1317.51 383.16 1316.5 364.63"/><polygon class="cls-22" points="1311 383.79 1270.08 386.14 1269.94 383.64 1310.86 381.28 1311 383.79"/><polygon class="cls-22" points="1311.34 390.09 1270.42 392.45 1270.29 389.94 1311.2 387.59 1311.34 390.09"/><polygon class="cls-22" points="1311.68 396.41 1270.76 398.77 1270.63 396.27 1311.55 393.91 1311.68 396.41"/><polygon class="cls-22" points="1331.06 401.6 1271.1 405.06 1270.97 402.55 1330.92 399.1 1331.06 401.6"/><polygon class="cls-22" points="1331.38 407.93 1271.43 411.38 1271.29 408.87 1331.25 405.42 1331.38 407.93"/><polygon class="cls-22" points="1331.74 414.23 1271.79 417.68 1271.65 415.18 1331.61 411.73 1331.74 414.23"/><polygon class="cls-22" points="1332.07 420.52 1272.12 423.97 1271.98 421.47 1331.93 418.02 1332.07 420.52"/><polygon class="cls-22" points="1332.43 426.83 1272.47 430.28 1272.34 427.77 1332.29 424.32 1332.43 426.83"/><polygon class="cls-22" points="1332.76 433.15 1272.8 436.6 1272.67 434.1 1332.62 430.64 1332.76 433.15"/><polygon class="cls-22" points="1333.12 439.45 1273.16 442.9 1273.03 440.4 1332.98 436.95 1333.12 439.45"/><polygon class="cls-22" points="1333.46 445.74 1273.5 449.19 1273.37 446.69 1333.32 443.24 1333.46 445.74"/><polygon class="cls-22" points="1333.8 452.05 1273.85 455.5 1273.71 453 1333.67 449.55 1333.8 452.05"/><path class="cls-23" d="M1250.49,522.07c0,13.15,9.86,24.07,22.59,25.06h138.19c15.82.76,29.25-11.83,30-28.12s-11.48-30.11-27.3-30.88c-.86-27.46-23.17-49-49.84-48.12-19.68.65-37,13.53-43.8,32.56-14.14-7.32-31.36-1.45-38.47,13.11a30.13,30.13,0,0,0-3,11.47,24,24,0,0,0-4-.33c-13.47,0-24.4,11.25-24.4,25.12Z" transform="translate(-3)"/><path class="cls-24" d="M1250.49,522.07c0,13.15,9.86,24.07,22.59,25.06h138.19c15.82.76,29.25-11.83,30-28.12s-11.48-30.11-27.3-30.88c-.86-27.46-23.17-49-49.84-48.12-19.68.65-37,13.53-43.8,32.56-14.14-7.32-31.36-1.45-38.47,13.11a30.13,30.13,0,0,0-3,11.47,24,24,0,0,0-4-.33c-13.47,0-24.4,11.25-24.4,25.12Z" transform="translate(-3)"/><path class="cls-23" d="M1241.93,522.07c0,13.16,9.87,24.09,22.62,25.06h138.19c15.82.76,29.25-11.83,30-28.12s-11.48-30.11-27.3-30.88c-.88-27.47-23.22-49-49.9-48.1-19.66.67-37,13.54-43.76,32.54a27.62,27.62,0,0,0-12.73-3.12c-15.17,0-27.72,12.11-28.65,27.7a24,24,0,0,0-4-.33c-13.48-.06-24.44,11.15-24.5,25Z" transform="translate(-3)"/><rect class="cls-6" x="1322.15" y="504.23" width="24.94" height="22.04"/><polygon class="cls-6" points="1313.59 504.23 1355.66 504.23 1334.62 482.63 1313.59 504.23"/><rect class="cls-25" x="1135.96" y="505.81" width="1.59" height="3.28"/><rect class="cls-25" x="1135.96" y="514.45" width="1.59" height="7.14"/><polygon class="cls-25" points="1139.94 531.05 1135.96 531.05 1135.96 526.95 1137.55 526.95 1137.55 529.41 1139.94 529.41 1139.94 531.05"/><path class="cls-25" d="M1218.25,531.05H1212v-1.64h6.16Zm-10.76,0h-6.16v-1.64h6.16Zm-10.76,0h-6.16v-1.64h6.16Zm-10.76,0h-6.16v-1.64H1186Zm-10.75,0h-6.16v-1.64h6.16Zm-10.76,0h-6.15v-1.64h6.15Zm-10.76,0h-6.15v-1.64h6.15Z" transform="translate(-3)"/><rect class="cls-25" x="1219.85" y="529.41" width="3.18" height="1.64"/><ellipse class="cls-25" cx="1136.76" cy="505.98" rx="2.99" ry="3.08"/><ellipse class="cls-25" cx="1222.89" cy="530.23" rx="2.99" ry="3.08"/><rect class="cls-25" x="1442.82" y="494.11" width="3.18" height="1.64"/><path class="cls-25" d="M1534.38,495.75h-6.1v-1.64h6.1Zm-10.68,0h-6.1v-1.64h6.1Zm-10.67,0h-6.09v-1.64H1513Zm-10.66,0h-6.11v-1.64h6.11Zm-10.68,0h-6.09v-1.64h6.09Zm-10.66,0h-6.1v-1.64H1481Zm-10.68,0h-6.1v-1.64h6.1Zm-10.66,0h-6.1v-1.64h6.1Z" transform="translate(-3)"/><polygon class="cls-25" points="1539.92 498.21 1538.33 498.21 1538.33 495.75 1535.94 495.75 1535.94 494.12 1539.92 494.12 1539.92 498.21"/><rect class="cls-25" x="1538.33" y="502.42" width="1.59" height="5.62"/><rect class="cls-25" x="1538.33" y="512.27" width="1.59" height="3.28"/><path class="cls-25" d="M1446,498a3.08,3.08,0,1,1,3-3.08,3,3,0,0,1-3,3.08Z" transform="translate(-3)"/><ellipse class="cls-25" cx="1539.13" cy="515.4" rx="2.99" ry="3.08"/><polygon class="cls-21" points="1410.24 424.81 1480.85 478.32 1515.56 429.67 1444.94 376.15 1410.24 424.81"/><polygon class="cls-6" points="1415.34 424.01 1480.08 473.07 1510.46 430.47 1445.7 381.41 1415.34 424.01"/><path class="cls-22" d="M1445.11,399.14a9.19,9.19,0,0,0,1.86,12.6,8.59,8.59,0,0,0,12.24-1.92,9.2,9.2,0,0,0-1.86-12.6,8.59,8.59,0,0,0-12.24,1.92Z" transform="translate(-3)"/><polygon class="cls-22" points="1435.39 439.32 1479.99 473.11 1479.94 425.09 1435.39 439.32"/><polygon class="cls-21" points="1417.9 426.08 1454.73 453.98 1450.8 419.77 1417.9 426.08"/><polygon class="cls-21" points="1359.41 441.1 1440.42 475.6 1462.77 419.77 1381.74 385.29 1359.41 441.1"/><polygon class="cls-6" points="1364.17 439.07 1438.45 470.68 1458.01 421.82 1383.71 390.19 1364.17 439.07"/><path class="cls-22" d="M1387.35,408.3a9.12,9.12,0,0,0,4.78,11.76,8.68,8.68,0,0,0,11.42-4.92,9.11,9.11,0,0,0-4.77-11.76,8.68,8.68,0,0,0-11.43,4.91Z" transform="translate(-3)"/><polygon class="cls-22" points="1387.2 448.95 1438.38 470.75 1427.13 424.14 1387.2 448.95"/><polygon class="cls-21" points="1367.13 440.43 1409.39 458.42 1397.59 426.18 1367.13 440.43"/><ellipse class="cls-26" cx="1264.67" cy="566.75" rx="33.9" ry="34.9"/><polygon class="cls-6" points="1238.51 560.9 1283.41 548.99 1290.74 578.3 1245.85 590.22 1238.51 560.9"/><path class="cls-22" d="M1286.38,546.09c-1.35,2.26-2.77,4.46-4.13,6.71s-2.82,4.42-4.24,6.55-3,4.56-4.45,6.83l-.15.22-4,6-.2.28-.31-.14-6.36-3.28-.22-.12q-3.58-1.82-7.15-3.72c-2.28-1.18-4.55-2.41-6.83-3.62s-4.53-2.47-6.79-3.77c2.3,1,4.6,2.1,6.89,3.17s4.61,2.16,6.9,3.27c2.55,1.22,5.11,2.48,7.68,3.76h0l5.74,2.85c1.21-1.81,2.42-3.61,3.65-5.38h0c1.59-2.39,3.26-4.77,4.91-7.13s3-4.22,4.44-6.32S1284.84,548.17,1286.38,546.09Z" transform="translate(-3)"/><path class="cls-22" d="M1263.32,569h0l-.55.8c-.88,1.28-1.79,2.52-2.73,3.75-1.14,1.51-2.32,3-3.51,4.43s-2.42,2.88-3.7,4.29-2.53,2.78-3.88,4.1c1-1.64,2.17-3.12,3.31-4.61s2.34-3,3.52-4.44,2.43-2.88,3.69-4.28c1-1.13,2-2.24,3.09-3.27l.75-.74Z" transform="translate(-3)"/><path class="cls-22" d="M1293.47,574.46c-1.82-.46-3.6-1-5.35-1.64s-3.52-1.23-5.25-1.87-3.47-1.36-5.19-2.1c-1.39-.59-2.77-1.21-4.14-1.88l-.88-.43h.08l1,.28c1.43.4,2.85.86,4.26,1.31,1.77.59,3.5,1.23,5.25,1.89s3.47,1.36,5.18,2.1S1291.8,573.61,1293.47,574.46Z" transform="translate(-3)"/><path class="cls-23" d="M1288.71,545.5a7.71,7.71,0,0,1-5.34,9.38,7.44,7.44,0,0,1-9.11-5.49,7.72,7.72,0,0,1,5.33-9.38A7.47,7.47,0,0,1,1288.71,545.5Z" transform="translate(-3)"/><path class="cls-6" d="M1281.1,549.37l-1.59-6a.85.85,0,0,1,.58-1,.83.83,0,0,1,1,.6l1.59,6.06a.83.83,0,0,1-.56,1h0A.85.85,0,0,1,1281.1,549.37Zm1.72,3.39a.81.81,0,0,1-1-.6l-.08-.31a.86.86,0,0,1,.59-1,.81.81,0,0,1,1,.61h0v.31a.84.84,0,0,1-.49.92Z" transform="translate(-3)"/></g><g id="freepik--Sheets--inject-46"><rect class="cls-27" x="835.1" y="442.53" width="88.65" height="87.72"/><rect class="cls-12" x="923.74" y="442.53" width="33.69" height="87.72"/><polygon class="cls-12" points="835.1 486.38 923.75 486.38 854.51 488.64 835.1 486.38"/><polygon class="cls-12" points="923.75 519.64 835.1 519.64 904.33 521.89 923.75 519.64"/><polygon class="cls-12" points="835.1 461.87 891.25 461.87 841.34 463.7 835.1 461.87"/><polygon class="cls-12" points="923.75 506.73 867.6 506.73 917.51 508.57 923.75 506.73"/><polygon class="cls-12" points="856.36 452.1 919.69 452.1 909.13 453.2 856.36 452.1"/><polygon class="cls-12" points="843.71 495.79 907.05 495.79 896.48 496.88 843.71 495.79"/><polygon class="cls-27" points="882.65 470.21 923.75 470.21 931.08 473.16 882.65 470.21"/><polygon class="cls-27" points="823.78 470.21 864.86 470.21 872.2 473.16 823.78 470.21"/><polygon class="cls-27" points="876.49 509.63 835.4 509.63 828.06 512.58 876.49 509.63"/><polygon class="cls-12" points="923.75 499.62 956.74 499.62 964.07 502.57 923.75 499.62"/><polygon class="cls-12" points="935.25 486.38 960.84 486.38 957.44 483.97 935.25 486.38"/></g><g id="freepik--Drink--inject-46"><polygon class="cls-7" points="977.13 488.99 971.84 557.38 935.3 557.38 930.01 488.99 977.13 488.99"/><rect class="cls-13" x="926.55" y="482.81" width="53.71" height="9.98"/><polygon class="cls-10" points="976.6 482.81 930.24 482.81 932.94 471.6 973.88 471.6 976.6 482.81"/><path class="cls-1" d="M969.25,523.79c0,8.88-5.68,16.08-12.73,16.08s-12.73-7.2-12.73-16.08,5.68-16.09,12.73-16.09S969.25,515,969.25,523.79Z" transform="translate(-3)"/></g><path class="cls-1" d="M226,853" transform="translate(-3)"/><rect class="cls-2" x="833.61" y="860.51" width="144.19" height="19.23"/><rect class="cls-23" x="621.05" y="95.75" width="144.19" height="19.23"/><rect class="cls-23" x="1560.99" y="972.66" width="144.19" height="28.84"/><rect class="cls-2" x="1604.78" y="37" width="144.19" height="28.84"/></g></svg>